<svg id="Layer_1" data-name="Layer 1" xmlns="http://www.w3.org/2000/svg" width="14.54484" height="16" viewBox="0 0 14.54484 16">
  <defs>
    <style>
      .cls-1 {
        fill: none;
        stroke: #fff;
        stroke-linecap: square;
        stroke-miterlimit: 10;
        stroke-width: 1.17325px;
      }
    </style>
  </defs>
  <g>
    <path d="M13.98779,3.05958,9.28463.34422a2.56923,2.56923,0,0,0-2.56926,0L2.01221,3.05958A2.56928,2.56928,0,0,0,.72758,5.28463v5.43074a2.56928,2.56928,0,0,0,1.28463,2.225l4.70316,2.71536a2.56923,2.56923,0,0,0,2.56926,0l4.70316-2.71536a2.56928,2.56928,0,0,0,1.28463-2.225V5.28463A2.56928,2.56928,0,0,0,13.98779,3.05958Z" transform="translate(-0.72758 0)"/>
    <path class="cls-1" d="M2.87844,10.956A5.91052,5.91052,0,0,1,8,8a2.95645,2.95645,0,0,1,0,5.91289L8,2.08711A2.95645,2.95645,0,0,0,8,8,5.91056,5.91056,0,0,0,13.1216,5.04405" transform="translate(-0.72758 0)"/>
  </g>
</svg>
