<?xml version="1.0" encoding="UTF-8"?>
<svg xmlns="http://www.w3.org/2000/svg" viewBox="0 0 128 128">
  <defs>
    <style>
      .cls-1 {
        fill: none;
        stroke: #fff;
        stroke-linecap: round;
        stroke-linejoin: round;
      }

      .cls-2 {
        fill: #fff;
      }
    </style>
  </defs>
  <g id="Layer_2" data-name="Layer 2">
    <rect class="cls-1" x="1.04" y="1.04" width="125.92" height="125.92"/>
  </g>
  <g id="Layer_14" data-name="Layer 14">
    <path class="cls-2" d="m60.8,99.73s-.03,0-.05,0c-2.02-.18-4.03-.54-5.98-1.06-.27-.07-.43-.34-.35-.61.07-.27.34-.42.61-.35,1.9.5,3.85.85,5.82,1.03.27.02.48.27.45.54-.02.26-.24.46-.5.46Zm-11.54-3.07c-.07,0-.14-.01-.21-.05-1.84-.84-3.62-1.85-5.29-2.99-.23-.16-.29-.47-.13-.7.16-.23.47-.29.69-.13,1.62,1.11,3.35,2.09,5.14,2.91.25.12.36.41.25.66-.08.18-.27.29-.45.29Zm-9.85-6.74c-.13,0-.25-.05-.35-.14-1.46-1.41-2.8-2.95-4-4.58-.16-.22-.12-.54.11-.7.22-.16.54-.12.7.11,1.16,1.58,2.47,3.08,3.88,4.45.2.19.2.51.01.71-.1.1-.23.15-.36.15Zm-7.06-9.63c-.18,0-.36-.1-.45-.28-.9-1.81-1.66-3.71-2.24-5.65-.08-.26.07-.54.33-.62.27-.08.54.07.62.33.57,1.88,1.3,3.73,2.18,5.49.12.25.02.55-.22.67-.07.04-.15.05-.22.05Zm-3.44-11.43c-.25,0-.46-.19-.5-.44-.12-.95-.2-1.92-.24-2.88-.02-.52-.03-1.05-.03-1.57,0-.55.01-1.09.04-1.63.01-.28.24-.49.52-.48.28.01.49.25.48.52-.02.53-.04,1.05-.04,1.58,0,.5.01,1.01.03,1.52.04.93.12,1.88.23,2.8.03.27-.16.52-.44.56-.02,0-.04,0-.06,0Zm70.44-5.87c-.27,0-.49-.21-.5-.48-.08-1.97-.33-3.95-.75-5.86-.06-.27.11-.54.38-.59.27-.06.54.11.59.38.42,1.97.68,4,.77,6.03.01.28-.2.51-.48.52,0,0-.01,0-.02,0Zm-69.89-6.05s-.07,0-.11-.01c-.27-.06-.44-.33-.38-.6.43-1.98,1.04-3.93,1.8-5.8.1-.26.4-.38.65-.28.26.1.38.4.28.65-.74,1.82-1.33,3.72-1.75,5.64-.05.23-.26.39-.49.39Zm67.38-5.62c-.2,0-.39-.12-.46-.31-.73-1.83-1.63-3.6-2.66-5.27-.14-.24-.07-.54.16-.69.23-.15.54-.07.69.16,1.06,1.72,1.98,3.55,2.74,5.43.1.26-.02.55-.28.65-.06.02-.12.04-.19.04Zm-62.89-5.44c-.09,0-.18-.02-.26-.08-.23-.15-.31-.45-.16-.69,1.07-1.72,2.29-3.36,3.63-4.87.18-.21.5-.22.71-.04.21.18.23.5.04.71-1.3,1.47-2.49,3.07-3.53,4.74-.09.15-.26.24-.43.24Zm56.62-4.72c-.14,0-.28-.06-.38-.17-1.3-1.48-2.73-2.85-4.26-4.09-.21-.17-.25-.49-.07-.7s.49-.25.7-.07c1.57,1.27,3.05,2.69,4.39,4.21.18.21.16.52-.04.71-.09.08-.21.12-.33.12Zm-48.71-4.22c-.15,0-.29-.06-.39-.19-.17-.22-.14-.53.08-.7,1.58-1.27,3.27-2.41,5.04-3.4.24-.13.55-.05.68.19.13.24.05.55-.19.68-1.72.96-3.37,2.07-4.9,3.3-.09.07-.2.11-.31.11Zm39.43-3.29c-.08,0-.17-.02-.25-.06-1.72-.96-3.53-1.79-5.38-2.44-.26-.09-.4-.38-.3-.64.09-.26.38-.39.64-.3,1.9.67,3.76,1.52,5.53,2.51.24.14.33.44.19.68-.09.16-.26.26-.44.26Zm-28.99-2.51c-.21,0-.4-.13-.47-.33-.09-.26.05-.55.31-.64,1.91-.67,3.89-1.18,5.88-1.51.27-.05.53.14.58.41s-.14.53-.41.58c-1.94.33-3.87.82-5.72,1.47-.05.02-.11.03-.17.03Zm17.74-1.48s-.06,0-.09,0c-1.93-.33-3.91-.5-5.89-.5-.28,0-.5-.22-.5-.5s.22-.5.5-.5h0c2.03,0,4.06.18,6.05.52.27.05.45.31.41.58-.04.24-.25.42-.49.42Z"/>
    <g>
      <polygon class="cls-1" points="64 64 81.43 95.39 95.39 81.43 64 64"/>
      <line class="cls-1" x1="88.41" y1="88.41" x2="99.37" y2="99.37"/>
    </g>
    <path class="cls-2" d="m65,114.17c-.27,0-.49-.22-.5-.49,0-.28.21-.5.49-.51.99-.02,1.99-.07,2.96-.15.27-.02.52.18.54.46.02.28-.18.52-.46.54-1,.08-2.01.13-3.03.16h-.01Zm-12.88-1.42s-.08,0-.12-.01c-.97-.24-1.95-.51-2.91-.81-.26-.08-.41-.36-.33-.63.08-.26.36-.41.63-.33.94.29,1.9.56,2.86.8.27.07.43.34.37.6-.06.23-.26.38-.48.38Zm28.55-1.44c-.21,0-.4-.13-.47-.33-.09-.26.04-.55.3-.64.93-.33,1.86-.69,2.77-1.08.26-.11.55.01.66.26.11.25,0,.55-.26.66-.92.39-1.87.76-2.82,1.1-.05.02-.11.03-.17.03Zm-43.2-4.8c-.09,0-.18-.03-.27-.08-.85-.54-1.69-1.11-2.51-1.7-.22-.16-.27-.47-.11-.7.16-.22.47-.28.7-.11.8.58,1.63,1.14,2.46,1.66.23.15.3.46.16.69-.1.15-.26.23-.42.23Zm-11.93-10.55c-.15,0-.29-.06-.39-.18-.64-.78-1.26-1.59-1.85-2.4-.16-.22-.11-.54.11-.7.22-.16.54-.11.7.11.58.8,1.19,1.59,1.81,2.35.17.21.14.53-.07.7-.09.08-.21.11-.32.11Zm83.84-11.22c-.07,0-.14-.01-.2-.04-.25-.11-.37-.41-.25-.66.41-.91.79-1.83,1.13-2.75.1-.26.38-.39.64-.29.26.1.39.38.29.64-.35.93-.74,1.87-1.15,2.8-.08.19-.27.3-.46.3Zm-91.82-2.56c-.2,0-.39-.12-.47-.32-.36-.94-.69-1.9-.99-2.86-.08-.26.06-.54.33-.63.27-.08.54.06.63.33.29.94.62,1.89.97,2.81.1.26-.03.55-.29.65-.06.02-.12.03-.18.03Zm95.89-12.84s-.03,0-.05,0c-.28-.03-.48-.27-.45-.55.1-.99.16-1.98.2-2.96,0-.28.25-.46.52-.48.28,0,.49.24.48.52-.04,1-.1,2.02-.2,3.02-.03.26-.24.45-.5.45Zm-99.09-2.77c-.27,0-.49-.21-.5-.48-.03-.72-.05-1.43-.05-2.14,0-.29,0-.59,0-.89,0-.27.23-.49.5-.49h0c.28,0,.5.23.49.51,0,.29,0,.58,0,.87,0,.7.02,1.4.04,2.1.01.28-.2.51-.48.52h-.02Zm98.06-13.13c-.23,0-.43-.16-.49-.39-.22-.97-.47-1.93-.75-2.87-.08-.27.07-.54.34-.62.27-.08.54.08.62.34.28.96.54,1.95.76,2.93.06.27-.11.54-.38.6-.04,0-.07.01-.11.01Zm-96.17-2.68s-.09,0-.14-.02c-.27-.08-.42-.35-.34-.62.28-.96.59-1.93.93-2.88.09-.26.38-.4.64-.3.26.09.4.38.3.64-.33.93-.64,1.88-.91,2.82-.06.22-.26.36-.48.36Zm90.19-12.08c-.17,0-.33-.09-.43-.24-.51-.84-1.06-1.68-1.62-2.49-.16-.23-.1-.54.12-.7.23-.16.54-.1.7.12.58.83,1.13,1.69,1.66,2.54.14.24.07.54-.17.69-.08.05-.17.07-.26.07Zm-83.38-2.32c-.1,0-.2-.03-.28-.09-.23-.16-.28-.47-.13-.7.57-.83,1.17-1.65,1.79-2.44.17-.22.48-.26.7-.09.22.17.26.48.09.7-.6.77-1.2,1.58-1.76,2.39-.1.14-.25.22-.41.22Zm73.01-9.78c-.11,0-.23-.04-.32-.12-.75-.64-1.53-1.26-2.32-1.85-.22-.17-.27-.48-.1-.7s.48-.27.7-.1c.81.6,1.6,1.24,2.37,1.88.21.18.24.49.06.7-.1.12-.24.18-.38.18Zm-62-1.73c-.15,0-.3-.07-.4-.2-.17-.22-.12-.53.1-.7.8-.61,1.63-1.2,2.47-1.75.23-.15.54-.09.69.14.15.23.09.54-.14.69-.82.55-1.64,1.13-2.42,1.72-.09.07-.2.1-.3.1Zm48.35-6.48c-.06,0-.12-.01-.19-.04-.91-.37-1.85-.71-2.79-1.02-.26-.09-.4-.37-.32-.63.09-.26.37-.4.63-.32.95.32,1.91.67,2.84,1.04.26.1.38.39.28.65-.08.2-.27.31-.46.31Zm-34.26-.95c-.21,0-.4-.13-.47-.34-.09-.26.05-.54.32-.63.96-.32,1.93-.61,2.9-.87.26-.07.54.09.61.35.07.27-.09.54-.35.61-.95.25-1.91.54-2.84.86-.05.02-.11.03-.16.03Zm18.72-2.51s-.02,0-.03,0c-.92-.05-1.85-.08-2.77-.08h-.2c-.23,0-.5-.22-.5-.5,0-.28.22-.5.5-.5h.18c.95,0,1.9.03,2.85.08.28.02.49.25.47.53-.01.27-.24.47-.5.47Z"/>
    <path class="cls-1" d="m82.9,60.11c-1.8-8.79-9.58-15.41-18.9-15.41-10.66,0-19.3,8.64-19.3,19.3,0,9.19,6.43,16.88,15.03,18.82"/>
  </g>
</svg>