<?xml version="1.0" encoding="UTF-8"?>
<svg xmlns="http://www.w3.org/2000/svg" viewBox="0 0 128 128">
  <defs>
    <style>
      .cls-1 {
        fill: none;
        stroke: #fff;
        stroke-linecap: round;
        stroke-linejoin: round;
      }
    </style>
  </defs>
  <g id="Layer_2" data-name="Layer 2">
    <rect class="cls-1" x="1.04" y="1.04" width="125.92" height="125.92"/>
  </g>
  <g id="Layer_13" data-name="Layer 13">
    <g>
      <polygon class="cls-1" points="65.93 9.52 69.24 40.35 57.5 41.61 60.84 39.97 51.61 21.16 50.53 11.17 65.93 9.52"/>
      <polygon class="cls-1" points="60.84 39.97 57.5 41.61 50.25 45.18 52.82 42.51 37.7 27.98 37.7 27.97 33.28 18.97 47.18 12.14 51.61 21.16 60.84 39.97"/>
      <polygon class="cls-1" points="52.82 42.51 50.25 45.18 50.24 45.18 44.64 51 46.14 47.62 26.95 39.14 26.94 39.13 19.73 32.19 30.46 21.02 37.7 27.97 37.7 27.98 52.82 42.51"/>
      <polygon class="cls-1" points="46.14 47.62 44.64 51 41.36 58.42 41.61 54.73 20.7 53.31 20.69 53.31 11.52 49.25 17.78 35.08 26.94 39.13 26.95 39.14 46.14 47.62"/>
      <polygon class="cls-1" points="41.61 54.73 41.36 58.42 40.82 66.49 39.79 62.94 19.63 68.77 9.64 68.09 10.68 52.64 20.69 53.31 20.7 53.31 41.61 54.73"/>
      <polygon class="cls-1" points="43.06 74.27 40.88 71.29 23.96 83.65 23.95 83.65 14.31 86.44 10.01 71.55 19.63 68.77 39.79 62.94 40.82 66.49 43.06 74.27"/>
      <polygon class="cls-1" points="47.85 80.81 44.77 78.76 33.09 96.16 33.08 96.17 24.99 102.08 15.85 89.57 23.95 83.65 23.96 83.65 40.88 71.29 43.06 74.27 47.85 80.81"/>
      <polygon class="cls-1" points="54.57 85.32 50.98 84.43 45.96 104.79 45.95 104.8 40.36 113.13 27.5 104.49 33.08 96.17 33.09 96.16 44.77 78.76 47.85 80.81 47.85 80.82 54.57 85.32"/>
      <polygon class="cls-1" points="62.41 87.26 58.76 87.65 61 108.49 58.59 118.25 43.55 114.53 45.95 104.8 45.96 104.79 50.98 84.43 54.57 85.32 54.58 85.33 62.41 87.26"/>
      <polygon class="cls-1" points="73.15 86.11 77.47 116.83 62.07 118.48 58.76 87.65 73.15 86.11"/>
      <polygon class="cls-1" points="118.36 59.91 117.32 75.36 107.31 74.69 107.3 74.69 86.39 73.27 87.18 61.51 88.21 65.06 108.37 59.23 118.36 59.91"/>
      <polygon class="cls-1" points="117.99 56.45 108.37 59.23 88.21 65.06 87.18 61.51 84.94 53.73 87.12 56.71 104.04 44.35 104.05 44.35 113.69 41.56 117.99 56.45"/>
      <polygon class="cls-1" points="112.15 38.43 104.05 44.35 104.04 44.35 87.12 56.71 84.94 53.73 80.15 47.19 83.23 49.24 94.91 31.84 94.92 31.83 103.01 25.92 112.15 38.43"/>
      <polygon class="cls-1" points="100.5 23.51 94.92 31.83 94.91 31.84 83.23 49.24 80.15 47.19 80.15 47.18 73.46 42.69 77.02 43.57 82.03 23.23 82.04 23.21 87.64 14.87 100.5 23.51"/>
      <polygon class="cls-1" points="84.45 13.47 82.04 23.21 82.03 23.23 77.02 43.57 73.46 42.69 73.43 42.68 65.59 40.74 69.24 40.35 67 19.51 69.41 9.75 84.45 13.47"/>
    </g>
    <g>
      <polygon class="cls-1" points="64 64 81.43 95.39 95.39 81.43 64 64"/>
      <line class="cls-1" x1="88.41" y1="88.41" x2="99.37" y2="99.37"/>
    </g>
  </g>
</svg>