<?xml version="1.0" encoding="UTF-8"?>
<svg xmlns="http://www.w3.org/2000/svg" viewBox="0 0 128 128">
  <defs>
    <style>
      .cls-1 {
        fill: none;
        stroke: #fff;
        stroke-linecap: round;
        stroke-linejoin: round;
      }
    </style>
  </defs>
  <g id="Layer_2" data-name="Layer 2">
    <rect class="cls-1" x="1.04" y="1.04" width="125.92" height="125.92"/>
  </g>
  <g id="Layer_11" data-name="Layer 11">
    <circle class="cls-1" cx="64.38" cy="64" r="34.99"/>
    <line class="cls-1" x1="64.38" y1="29.01" x2="64.38" y2="11.77"/>
    <line class="cls-1" x1="55.32" y1="30.2" x2="49.92" y2="10.05"/>
    <line class="cls-1" x1="46.88" y1="33.7" x2="38.52" y2="19.21"/>
    <line class="cls-1" x1="39.64" y1="39.26" x2="11.03" y2="10.66"/>
    <line class="cls-1" x1="34.08" y1="46.51" x2="12.92" y2="34.29"/>
    <line class="cls-1" x1="30.58" y1="54.94" x2="15.4" y2="50.02"/>
    <line class="cls-1" x1="29.39" y1="64" x2="22.99" y2="64"/>
    <line class="cls-1" x1="30.58" y1="73.06" x2="22.4" y2="75.25"/>
    <line class="cls-1" x1="34.08" y1="81.49" x2="27.22" y2="85.45"/>
    <line class="cls-1" x1="39.64" y1="88.74" x2="22.99" y2="105.39"/>
    <line class="cls-1" x1="46.88" y1="94.3" x2="40.49" y2="105.37"/>
    <line class="cls-1" x1="55.32" y1="97.8" x2="54.48" y2="100.95"/>
    <line class="cls-1" x1="64.36" y1="98.89" x2="64.36" y2="102.16"/>
    <line class="cls-1" x1="73.43" y1="97.8" x2="74.34" y2="101.2"/>
    <line class="cls-1" x1="81.87" y1="94.3" x2="86.41" y2="102.16"/>
    <line class="cls-1" x1="89.12" y1="88.74" x2="112.61" y2="112.24"/>
    <line class="cls-1" x1="94.68" y1="81.49" x2="111.98" y2="91.48"/>
    <line class="cls-1" x1="98.18" y1="73.06" x2="102.27" y2="74.15"/>
    <line class="cls-1" x1="99.37" y1="64" x2="105.36" y2="64"/>
    <line class="cls-1" x1="98.18" y1="54.94" x2="108.62" y2="52.15"/>
    <line class="cls-1" x1="94.68" y1="46.51" x2="111.53" y2="36.77"/>
    <line class="cls-1" x1="89.12" y1="39.26" x2="112.19" y2="16.19"/>
    <line class="cls-1" x1="81.87" y1="33.7" x2="85.04" y2="28.21"/>
    <line class="cls-1" x1="73.43" y1="30.2" x2="77.22" y2="16.09"/>
    <polyline class="cls-1" points="29.39 64 33.26 64 34.91 61.76 36.75 64.77 40.74 58.07 42.27 75.1 44.11 43.03 47.79 67.13 51.12 63.01 53.3 72 55.14 62.69 56.98 74.82 58.52 66.19 60.66 71.22 64.33 36.19 68.02 89.83 71.91 47.5 75.38 73.17 80.92 53.61 82.76 65.22 84.6 74.05 86.44 65.4 88.28 68.48 90.13 62.05 91.97 66.5 93.82 64 99.37 64"/>
  </g>
</svg>