<?xml version="1.0" encoding="UTF-8"?>
<svg xmlns="http://www.w3.org/2000/svg" viewBox="0 0 128 128">
  <defs>
    <style>
      .cls-1 {
        fill: none;
        stroke: #fff;
        stroke-linecap: round;
        stroke-linejoin: round;
      }
    </style>
  </defs>
  <g id="Layer_2" data-name="Layer 2">
    <rect class="cls-1" x="1.04" y="1.04" width="125.92" height="125.92"/>
  </g>
  <g id="Layer_12" data-name="Layer 12">
    <g>
      <line class="cls-1" x1="60.95" y1="29.14" x2="60.71" y2="26.43"/>
      <line class="cls-1" x1="57.92" y1="29.54" x2="57.45" y2="26.86"/>
      <line class="cls-1" x1="54.94" y1="30.2" x2="54.24" y2="27.57"/>
      <line class="cls-1" x1="52.58" y1="32.63" x2="50.25" y2="26.22"/>
      <line class="cls-1" x1="49.21" y1="32.29" x2="48.06" y2="29.82"/>
      <line class="cls-1" x1="46.51" y1="33.7" x2="45.14" y2="31.34"/>
      <line class="cls-1" x1="43.93" y1="35.34" x2="42.37" y2="33.11"/>
      <line class="cls-1" x1="42.54" y1="38.43" x2="38.16" y2="33.2"/>
      <line class="cls-1" x1="39.26" y1="39.26" x2="37.33" y2="37.33"/>
      <line class="cls-1" x1="37.2" y1="41.51" x2="35.11" y2="39.76"/>
      <line class="cls-1" x1="35.34" y1="43.93" x2="33.11" y2="42.37"/>
      <line class="cls-1" x1="35.09" y1="47.31" x2="29.19" y2="43.9"/>
      <line class="cls-1" x1="32.29" y1="49.21" x2="29.82" y2="48.06"/>
      <line class="cls-1" x1="31.12" y1="52.03" x2="28.56" y2="51.1"/>
      <line class="cls-1" x1="30.2" y1="54.94" x2="27.57" y2="54.24"/>
      <line class="cls-1" x1="31.12" y1="58.2" x2="24.41" y2="57.02"/>
      <line class="cls-1" x1="29.14" y1="60.95" x2="26.43" y2="60.71"/>
      <line class="cls-1" x1="29.01" y1="64" x2="26.29" y2="64"/>
      <line class="cls-1" x1="29.14" y1="67.05" x2="26.43" y2="67.29"/>
      <line class="cls-1" x1="31.12" y1="69.8" x2="24.41" y2="70.98"/>
      <line class="cls-1" x1="30.2" y1="73.06" x2="27.57" y2="73.76"/>
      <line class="cls-1" x1="31.12" y1="75.97" x2="28.56" y2="76.9"/>
      <line class="cls-1" x1="32.29" y1="78.79" x2="29.82" y2="79.94"/>
      <line class="cls-1" x1="35.09" y1="80.69" x2="29.19" y2="84.1"/>
      <line class="cls-1" x1="35.34" y1="84.07" x2="33.11" y2="85.63"/>
      <line class="cls-1" x1="37.2" y1="86.49" x2="35.11" y2="88.24"/>
      <line class="cls-1" x1="39.26" y1="88.74" x2="37.33" y2="90.67"/>
      <line class="cls-1" x1="42.54" y1="89.57" x2="38.16" y2="94.8"/>
      <line class="cls-1" x1="43.93" y1="92.66" x2="42.37" y2="94.89"/>
      <line class="cls-1" x1="46.51" y1="94.3" x2="45.14" y2="96.66"/>
      <line class="cls-1" x1="49.21" y1="95.71" x2="48.06" y2="98.18"/>
      <line class="cls-1" x1="52.58" y1="95.37" x2="50.25" y2="101.78"/>
      <line class="cls-1" x1="54.94" y1="97.8" x2="54.24" y2="100.43"/>
      <line class="cls-1" x1="57.92" y1="98.46" x2="57.45" y2="101.14"/>
      <line class="cls-1" x1="60.95" y1="98.86" x2="60.71" y2="101.57"/>
      <line class="cls-1" x1="64" y1="97.38" x2="64" y2="104.2"/>
      <line class="cls-1" x1="67.05" y1="98.86" x2="67.29" y2="101.57"/>
      <line class="cls-1" x1="70.08" y1="98.46" x2="70.55" y2="101.14"/>
      <line class="cls-1" x1="73.06" y1="97.8" x2="73.76" y2="100.43"/>
      <line class="cls-1" x1="75.42" y1="95.37" x2="77.75" y2="101.78"/>
      <line class="cls-1" x1="78.79" y1="95.71" x2="79.94" y2="98.18"/>
      <line class="cls-1" x1="81.49" y1="94.3" x2="82.86" y2="96.66"/>
      <line class="cls-1" x1="84.07" y1="92.66" x2="85.63" y2="94.89"/>
      <line class="cls-1" x1="85.46" y1="89.57" x2="89.84" y2="94.8"/>
      <line class="cls-1" x1="88.74" y1="88.74" x2="90.67" y2="90.67"/>
      <line class="cls-1" x1="90.8" y1="86.49" x2="92.89" y2="88.24"/>
      <line class="cls-1" x1="92.66" y1="84.07" x2="94.89" y2="85.63"/>
      <line class="cls-1" x1="92.91" y1="80.69" x2="98.81" y2="84.1"/>
      <line class="cls-1" x1="95.71" y1="78.79" x2="98.18" y2="79.94"/>
      <line class="cls-1" x1="96.88" y1="75.97" x2="99.44" y2="76.9"/>
      <line class="cls-1" x1="97.8" y1="73.06" x2="100.43" y2="73.76"/>
      <line class="cls-1" x1="96.88" y1="69.8" x2="103.59" y2="70.98"/>
      <line class="cls-1" x1="98.86" y1="67.05" x2="101.57" y2="67.29"/>
      <line class="cls-1" x1="98.99" y1="64" x2="101.71" y2="64"/>
      <line class="cls-1" x1="98.86" y1="60.95" x2="101.57" y2="60.71"/>
      <line class="cls-1" x1="96.88" y1="58.2" x2="103.59" y2="57.02"/>
      <line class="cls-1" x1="97.8" y1="54.94" x2="100.43" y2="54.24"/>
      <line class="cls-1" x1="96.88" y1="52.03" x2="99.44" y2="51.1"/>
      <line class="cls-1" x1="95.71" y1="49.21" x2="98.18" y2="48.06"/>
      <line class="cls-1" x1="92.91" y1="47.31" x2="98.81" y2="43.9"/>
      <line class="cls-1" x1="92.66" y1="43.93" x2="94.89" y2="42.37"/>
      <line class="cls-1" x1="90.8" y1="41.51" x2="92.89" y2="39.76"/>
      <line class="cls-1" x1="88.74" y1="39.26" x2="90.67" y2="37.33"/>
      <line class="cls-1" x1="85.46" y1="38.43" x2="89.84" y2="33.2"/>
      <line class="cls-1" x1="84.07" y1="35.34" x2="85.63" y2="33.11"/>
      <line class="cls-1" x1="81.49" y1="33.7" x2="82.86" y2="31.34"/>
      <line class="cls-1" x1="78.79" y1="32.29" x2="79.94" y2="29.82"/>
      <line class="cls-1" x1="75.42" y1="32.63" x2="77.75" y2="26.22"/>
      <line class="cls-1" x1="73.06" y1="30.2" x2="73.76" y2="27.57"/>
      <line class="cls-1" x1="70.08" y1="29.54" x2="70.55" y2="26.86"/>
      <line class="cls-1" x1="67.05" y1="29.14" x2="67.29" y2="26.43"/>
      <line class="cls-1" x1="64" y1="30.62" x2="64" y2="23.8"/>
    </g>
    <g>
      <circle class="cls-1" cx="64" cy="64" r="15.55"/>
      <path class="cls-1" d="m64,79.55c-6.04,0-10.93-4.89-10.93-10.93s4.89-10.93,10.93-10.93c3.56,0,6.72,1.7,8.71,4.33"/>
    </g>
    <line class="cls-1" x1="64" y1="39.61" x2="64" y2="35.57"/>
    <line class="cls-1" x1="64" y1="79.55" x2="64.08" y2="44.15"/>
    <line class="cls-1" x1="64" y1="19.34" x2="64" y2="15.31"/>
    <path class="cls-1" d="m82.32,42.27c-4.95-4.18-11.34-6.69-18.32-6.69s-13.33,2.5-18.27,6.65"/>
    <path class="cls-1" d="m92.77,29.85c-7.77-6.55-17.81-10.5-28.77-10.5s-20.96,3.93-28.72,10.46"/>
  </g>
</svg>