<?xml version="1.0" encoding="UTF-8"?>
<svg xmlns="http://www.w3.org/2000/svg" viewBox="0 0 128 128">
  <defs>
    <style>
      .cls-1 {
        fill: none;
        stroke: #fff;
        stroke-linecap: round;
        stroke-linejoin: round;
      }
    </style>
  </defs>
  <g id="Layer_2" data-name="Layer 2">
    <rect class="cls-1" x="1.04" y="1.04" width="125.92" height="125.92"/>
  </g>
  <g id="Layer_9" data-name="Layer 9">
    <g>
      <polygon class="cls-1" points="64 64 88.96 89.81 98.83 72.71 64 64"/>
      <line class="cls-1" x1="93.89" y1="81.26" x2="107.32" y2="89.01"/>
    </g>
    <polyline class="cls-1" points="94.18 65.54 94.18 46.58 64 29.16 33.82 46.58 33.82 81.42 64 98.84 80.17 89.51"/>
    <line class="cls-1" x1="74.97" y1="57.67" x2="94.18" y2="46.58"/>
    <line class="cls-1" x1="33.82" y1="46.58" x2="56.19" y2="59.49"/>
    <line class="cls-1" x1="64" y1="98.84" x2="64" y2="75.96"/>
    <line class="cls-1" x1="64" y1="29.16" x2="64" y2="13.88"/>
    <line class="cls-1" x1="33.82" y1="46.58" x2="20.6" y2="38.94"/>
    <line class="cls-1" x1="94.18" y1="46.58" x2="107.4" y2="38.94"/>
    <line class="cls-1" x1="64" y1="98.84" x2="64" y2="114.12"/>
    <line class="cls-1" x1="33.82" y1="81.42" x2="20.6" y2="89.06"/>
  </g>
</svg>