<?xml version="1.0" encoding="UTF-8"?>
<svg id="Layer_1" data-name="Layer 1" xmlns="http://www.w3.org/2000/svg" viewBox="0 0 1920 600">
  <defs>
    <style>
      .cls-1 {
        fill: none;
        stroke: #000;
        stroke-miterlimit: 10;
      }
    </style>
  </defs>
  <path class="cls-1" d="m0,210.85c480.24,0,921.67-99.72,921.67-99.72,0,0,518.09,99.72,998.33,99.72"/>
  <path class="cls-1" d="m0,210.85c480.24,0,997.89-99.72,997.89-99.72,0,0,441.87,99.72,922.11,99.72"/>
  <path d="m1009.12,92.28h-40.12v-9.22c0-4.93-18-4.93-18,0v9.22h-40.12v11h7.29v10.87c0,1.93,1.57,3.5,3.5,3.5s3.5-1.57,3.5-3.5v-10.87h9.63l16.2,28.23v29.04c-1.76.58-3.05,2.22-3.05,4.17v4.63c0,1.95,1.29,3.59,3.05,4.17v3.56c-1.79.77-3.05,2.54-3.05,4.6v46.93c0,2.06,1.26,3.83,3.05,4.6v366.8h18V233.2c1.79-.77,3.05-2.54,3.05-4.6v-46.93c0-2.06-1.26-3.83-3.05-4.6v-3.56c1.76-.58,3.05-2.22,3.05-4.17v-4.63c0-1.95-1.29-3.59-3.05-4.17v-29.04l16.2-28.23h9.26v10.87c0,1.93,1.57,3.5,3.5,3.5s3.5-1.57,3.5-3.5v-10.87h7.66v-11Zm-69.7,11h11.58v20.19l-11.58-20.19Zm29.58,20.19v-20.19h11.59l-11.59,20.19Z"/>
</svg>