<?xml version="1.0" encoding="UTF-8"?>
<svg id="pole" xmlns="http://www.w3.org/2000/svg" viewBox="0 0 3150.37 600">
  <path d="m636.91,68c-9.94-2.03-19.89-3.43-29.83-4.22v-3.9c0-3.26-2.26-6.11-5.45-6.82-4.07-.9-8.15-1.37-12.22-1.45-2.83-26.64-23.83-28.77-42.51-30.65-16.69-1.68-31.11-3.13-31.11-20.97h-48.66v323.03h-40.31c-4.58,0-8.31-3.73-8.31-8.31v-3.34c0-2.21-1.79-4-4-4s-4,1.79-4,4v3.34c0,8.99,7.32,16.31,16.31,16.31h40.31v107.53h-40.31c-4.58,0-8.31-3.73-8.31-8.31v-3.34c0-2.21-1.79-4-4-4s-4,1.79-4,4v3.34c0,8.99,7.32,16.31,16.31,16.31h40.31v107.54h-40.31c-4.58,0-8.31-3.73-8.31-8.31v-3.34c0-2.21-1.79-4-4-4s-4,1.79-4,4v3.34c0,8.99,7.32,16.31,16.31,16.31h40.31v37.9h47.16v-95.67h40.31c8.99,0,16.31-7.32,16.31-16.31v-3.34c0-2.21-1.79-4-4-4s-4,1.79-4,4v3.34c0,4.58-3.73,8.31-8.31,8.31h-40.31v-107.54h40.31c8.99,0,16.31-7.32,16.31-16.31v-3.34c0-2.21-1.79-4-4-4s-4,1.79-4,4v3.34c0,4.58-3.73,8.31-8.31,8.31h-40.31v-113.56h108.58v-21.27c4.67-.64,9.34-1.4,14.01-2.31,4.34-.84,7.46-4.68,7.46-9.1V77.15c0-4.42-3.09-8.27-7.42-9.15Zm-97.34,0c-4.33.88-7.42,4.73-7.42,9.15v28.3h-8.93v-6.14h-8.93V11.33c5.27,19.21,24.51,22.77,41.79,25.96,13.85,2.55,26.11,4.81,29.69,14.37-3.64.15-7.28.61-10.92,1.41-3.19.7-5.45,3.55-5.45,6.82v3.9c-9.94.79-19.89,2.19-29.83,4.22Zm-7.42,84.56h-8.93v-37.63h8.93v37.63Zm14.45-128.61c16.43,1.65,33.32,3.37,38.52,21.21-5.96-6.49-17.02-8.53-28.53-10.65-15.05-2.77-30.47-5.62-37.28-18.18,6.51,5.52,17.01,6.59,27.29,7.62Zm-32.31,232.05v-84.14h8.93v-9.81h8.93v72.5c0,4.43,3.12,8.26,7.46,9.1,4.4.85,8.79,1.58,13.19,2.2v10.15h-38.51Zm100.46,0h-53.84v-9.15c17.95,1.95,35.89,1.98,53.84.09v9.06Z"/>
</svg>