<?xml version="1.0" encoding="UTF-8"?>
<svg id="Layer_1" data-name="Layer 1" xmlns="http://www.w3.org/2000/svg" viewBox="0 0 1920 600">
  <defs>
    <style>
      .cls-1 {
        fill: #666;
      }
    </style>
  </defs>
  <path class="cls-1" d="m1785.86,296.65v-36.62l11.69,5.94c.15.07.3.11.45.11.36,0,.72-.2.89-.55.25-.49.05-1.09-.44-1.34l-12.08-6.14,16.35-5.94,13.75,6.99c.15.07.3.11.45.11.36,0,.72-.2.89-.55.25-.49.05-1.09-.44-1.34l-28.28-14.37c-.5-.25-1.09-.05-1.34.44-.25.49-.05,1.09.44,1.34l12.08,6.14-16.04,5.82c-.12-.02-.25-.04-.39-.04-.07,0-.13.01-.2.02l-13.49-6.85c-.49-.25-1.09-.05-1.34.44s-.05,1.09.44,1.34l12.08,6.14-19.76,7.17-13.75-6.99c-.5-.25-1.09-.05-1.34.44s-.05,1.09.44,1.34l28.28,14.37c.15.07.3.11.45.11.36,0,.72-.2.89-.55.25-.49.05-1.09-.44-1.34l-12.08-6.14,17.83-6.47v36.97h-58.63v-37.95h-46.06v37.95h-74.13v40.22c-26.6,7.96-53.33,13.97-80.04,18.01-12.12.6-24.22.91-36.29.91-41.25,0-82.84-3.52-124.37-10.49l-51.59-48.65h-221.02v-17.06h-26.23v17.06h-17.3l-30.17,30.17c-12.12-1.63-23.65-3.25-34.52-4.84-92.29-13.49-156.3-27.15-168.44-29.8v-4.94h4.65v-6.67h-24.35v-5.6c0-2.99-10.93-2.99-10.93,0v5.6h-24.35v6.68h4.43v4.92c-8.85,1.94-45.79,9.84-101.42,19.26v-11.42h12.84v-88.5h-180.47v-24.86l11.69,5.94c.15.07.3.11.45.11.36,0,.72-.2.89-.55.25-.49.05-1.09-.44-1.34l-12.08-6.14,6.89-2.5,13.75,6.99c.15.07.3.11.45.11.36,0,.72-.2.89-.55.25-.49.05-1.09-.44-1.34l-12.08-6.14,6.89-2.5,13.75,6.99c.15.07.3.11.45.11.36,0,.72-.2.89-.55.25-.49.05-1.09-.44-1.34l-12.08-6.14,6.89-2.5,7.86,3.99c.15.07.3.11.45.11.36,0,.72-.2.89-.55.25-.49.05-1.09-.44-1.34l-6.19-3.14,7.48-2.72c.52-.19.79-.76.6-1.28-.19-.52-.76-.79-1.28-.6l-9.24,3.36-7.86-3.99c-.49-.25-1.09-.05-1.34.44-.25.49-.05,1.09.44,1.34l6.19,3.14-6.89,2.5-13.75-6.99c-.49-.25-1.09-.05-1.34.44-.25.49-.05,1.09.44,1.34l12.08,6.14-6.89,2.5-13.75-6.99c-.49-.25-1.09-.05-1.34.44-.25.49-.05,1.09.44,1.34l12.08,6.14-6.57,2.39c-.12-.02-.25-.04-.39-.04-.07,0-.13.01-.2.02l-13.49-6.85c-.49-.25-1.09-.05-1.34.44-.25.49-.05,1.09.44,1.34l12.08,6.14-13.7,4.97-14.93-7.59c-1-.51-2.16-.46-3.12.12-.95.58-1.52,1.6-1.52,2.72v.1c0,1.21.67,2.3,1.75,2.85l23.89,12.14c.46.23.95.35,1.45.35.58,0,1.15-.16,1.67-.47.95-.58,1.52-1.6,1.52-2.72v-.1c0-1.21-.67-2.3-1.75-2.85l-6.52-3.31,11.77-4.27v25.21h-101.76v-29.42h-7.93v-8.53h-14.13v8.53h-5.82v-8.53h-14.13v8.53h-7.93v29.42h-25.5v45.15c-16.6,16.09-34.81,28.8-54.47,37.93-13.8,6.41-28.49,11.13-43.97,14.18v-12.1H0v303.35h1920v-303.35h-134.14ZM457.67,184.68v-.1c0-.42.21-.79.57-1.02.19-.12.41-.18.62-.18.18,0,.37.04.54.13l13.27,6.74-3.19,1.16-11.16-5.67c-.4-.2-.65-.61-.65-1.06Zm25.63,10.97c.4.2.65.61.65,1.06v.1c0,.42-.21.79-.57,1.02-.36.22-.79.24-1.16.05l-10.3-5.23,3.19-1.16,8.19,4.16Zm1119.75,175.25c-45.51,29.51-93.6,52.01-143.3,67-31.15,9.4-63.41,15.99-96.5,19.75l-1.13-1.13v-71.44h28.46c1.85-4.66,1.95-4.91,3.8-9.58l-13.53-12.76c33.65,6.28,67.33,9.44,100.76,9.44,40.27,0,80.93-4.6,121.45-13.7v12.42Zm-593.68,14.42c-2.84-.79-5.71-1.61-8.63-2.48h8.63v2.48Zm-39.11-12.72c-6.28-2.32-12.68-4.79-19.22-7.44-38.33-15.57-79.96-36.7-121.36-61.52,33.2,5.43,77.39,12.2,128.61,18.94,17.08,2.25,35.55,4.56,55.12,6.87l-43.16,43.16Zm632.8-15.14c-40.53,9.11-81.18,13.72-121.45,13.72-33.86,0-68-3.25-102.1-9.71l-3.64-3.43c21.96,2.68,43.89,4.04,65.71,4.04,27.06,0,54.29-2.08,81.54-6.2,26.59-1.32,53.27-4.08,79.94-8.26v9.84Zm0-19.54v8.69c-23.44,3.68-46.89,6.27-70.28,7.74,23.46-3.96,46.92-9.45,70.28-16.42Zm-116.33,18.88c8.7,0,17.42-.16,26.15-.47-23.83,3.16-47.63,4.76-71.3,4.76-22.23,0-44.57-1.41-66.94-4.19l-4.29-4.04c.11,0,.21,0,.32,0v-.61c-.32,0-.64,0-.97,0l-6.05-5.71c41.1,6.82,82.25,10.26,123.07,10.26Zm-505.3-34.22c10.74,1.57,22.12,3.17,34.08,4.78l-1.54,1.54c-19.75-2.32-38.37-4.66-55.58-6.92-51.98-6.84-96.74-13.71-130.09-19.18-5.02-3.02-10.04-6.09-15.05-9.22l-.13-.08h-.03s0-.7,0-.7c12.48,2.73,76.37,16.33,168.35,29.78Zm-320.33-5.98c50.57-7.19,91.51-13.95,117.75-18.5l3.05,5.32c-26.54,7.49-68.67,17.46-120.8,23.2v-10.02Zm132.28-19.08c.34.06.69.12,1.04.18l-1.04,1.81v-1.99Zm0-.62v-1.36c.88-.16,1.72-.31,2.54-.46l-1.18,2.05c-.46-.08-.91-.16-1.36-.24Zm-10.93-.04c-.46.08-.92.16-1.38.24l-1.12-1.96c.8.14,1.64.29,2.51.45v1.27Zm0,.62v2.03l-1.06-1.85c.36-.06.71-.12,1.06-.18Zm14.51.67c.54.09,1.09.19,1.65.29-.71.23-1.45.46-2.21.69l.56-.98Zm.32-.56l1.75-3.05c4.53-.82,7.83-1.44,9.8-1.81v1.12c0,.4.12.77.31,1.09-2.19.77-5.31,1.82-9.28,3.09-.88-.15-1.74-.3-2.58-.45Zm12.28-2.15c.37.33.86.54,1.4.54,1.06,0,1.93-.78,2.09-1.79,0,0,0,0,0,0,4.54,2.83,9.09,5.61,13.64,8.36-9.49-1.56-18.04-3-25.53-4.29,3.58-1.16,6.4-2.11,8.4-2.82Zm-.73-8.19v4.86c-1.88.35-5.04.94-9.4,1.73l3.78-6.59h5.62Zm-8.42,0l-4.1,7.15c-.93.17-1.92.34-2.93.53v-7.68h7.04Zm-17.96,0v7.72c-1.01-.18-1.97-.35-2.9-.52l-4.13-7.2h7.03Zm-9.83,0l3.81,6.64c-4.48-.81-7.73-1.42-9.65-1.78v-4.86h5.85Zm-10.1,5.55v1.05c0,1.17.95,2.12,2.12,2.12s2.12-.95,2.12-2.12v-1.12c2.02.38,5.4,1.01,10.05,1.85l1.7,2.97c-26.22,4.55-67.04,11.28-117.42,18.45v-3.94c55.44-9.38,92.34-17.26,101.42-19.25Zm-436.31,56.15c-36.52,1.92-74.22,3.12-112.39,3.28v-35.44c5.61-.37,11.17-.99,16.68-1.85,28.13-4.43,55.54-15.42,81.76-32.72v17.8h13.95v48.94Zm-68-53.46c19.49-9.05,37.56-21.61,54.05-37.46v22.98c-26.27,17.43-53.74,28.49-81.92,32.93-5.46.86-10.97,1.48-16.52,1.85v-6.01c15.63-3.06,30.46-7.82,44.39-14.29Zm-63.72,163.27v-73.59h19.33v-32.33c37.45-.16,75.21-1.3,112.39-3.15v109.07h-131.72Zm466.6-89.3v-42.23c52.29-5.76,94.53-15.76,121.11-23.27l.25.43v17.63c-1.07.35-1.85,1.35-1.85,2.53v2.81c0,1.18.78,2.18,1.85,2.53v2.16c-1.09.47-1.85,1.54-1.85,2.79v28.49c0,1.25.76,2.33,1.85,2.79v193.1h-38.75v-107.16l-82.6-82.6Zm132.28,189.77v-193.11c1.09-.47,1.85-1.54,1.85-2.79v-28.49c0-1.25-.76-2.33-1.85-2.79v-2.16c1.07-.35,1.85-1.35,1.85-2.53v-2.81c0-1.18-.78-2.18-1.85-2.53v-17.63l2.58-4.49c1.4-.43,2.72-.85,3.95-1.24,8.15,1.4,17.59,3,28.17,4.73,41.85,25.18,83.98,46.6,122.74,62.35,6.45,2.62,12.77,5.06,18.97,7.36l-.3.3c1.89,4.56,2.03,4.9,3.92,9.46h25.27c3.62,1.1,7.18,2.14,10.7,3.11v173.26h-216Zm827.72,20.09h-236.65v-75.91h11.17c1.89-4.56,2.03-4.9,3.92-9.46l-35.4-35.4c32.88-3.78,64.94-10.33,95.91-19.67,49.59-14.96,97.59-37.38,143.01-66.76v13.06h18.04v194.15Z"/>
</svg>