<?xml version="1.0" encoding="UTF-8"?>
<svg id="pole" xmlns="http://www.w3.org/2000/svg" viewBox="0 0 3150.37 600">
  <defs>
    <style>
      .cls-1 {
        fill: #999;
      }
    </style>
  </defs>
  <polygon class="cls-1" points="3094.56 320.61 3094.56 299.1 3015.03 299.1 3015.03 320.61 2941.07 320.61 2941.07 279.74 2936.05 279.74 2936.05 252.52 2856.51 252.52 2856.51 279.74 2848.14 279.74 2848.14 320.61 2827.21 320.61 2827.21 406.56 2777.4 406.56 2777.4 382.29 2769.79 382.29 2769.79 248.4 2758.63 248.4 2758.63 382.29 2751.03 382.29 2751.03 406.56 2730.93 406.56 2730.93 448.76 2639.68 448.76 2639.68 347.12 2668.14 347.12 2668.14 293.54 2658.1 293.54 2658.1 252.52 2639.68 252.52 2639.68 119.4 2658.1 119.4 2658.1 80.89 2639.68 80.89 2639.68 61.43 2615.4 61.43 2615.4 42.38 2529.17 42.38 2529.17 28.19 2486.47 28.19 2486.47 42.38 2401.91 42.38 2401.91 61.43 2375.12 61.43 2375.12 103.89 2359.21 103.89 2359.21 166.29 2375.12 166.29 2375.12 290.37 2344.57 290.37 2344.57 244.15 2326.25 244.15 2326.25 0 2302.19 0 2302.19 244.15 2283.86 244.15 2283.86 290.37 2247.86 290.37 2247.86 206.86 2139.03 206.86 2139.03 135.21 2162.47 135.21 2162.47 72.57 2139.03 72.57 2139.03 13.91 1800.8 13.91 1800.8 28.19 1778.24 28.19 1778.24 72.57 1800.8 72.57 1800.8 113.02 1778.24 113.02 1778.24 157.39 1789.07 157.39 1789.07 282.67 1778.24 282.67 1778.24 327.04 1800.8 327.04 1800.8 367.5 1778.24 367.5 1778.24 411.87 1800.8 411.87 1800.8 481.88 1191.31 481.88 1191.31 411.87 1201.03 411.87 1201.03 367.5 1191.31 367.5 1191.31 327.04 1201.03 327.04 1201.03 282.67 1191.31 282.67 1191.31 242.22 1201.03 242.22 1201.03 197.85 1191.31 197.85 1191.31 157.39 1201.03 157.39 1201.03 113.02 1191.31 113.02 1191.31 58.55 1130.47 58.55 1130.47 28.19 1086.1 28.19 1086.1 58.55 1030.01 58.55 1030.01 28.19 985.63 28.19 985.63 58.55 930.52 58.55 930.52 219.46 878.19 264.46 878.19 409.17 865.91 409.17 865.91 386.67 830.19 386.67 830.19 409.17 817.36 409.17 817.36 386.67 781.64 386.67 781.64 409.17 721.64 409.17 721.64 386.67 740.01 386.67 740.01 351.09 721.64 351.09 721.64 318.65 740.01 318.65 740.01 283.07 721.64 283.07 721.64 250.63 740.01 250.63 740.01 215.05 721.64 215.05 721.64 182.61 740.01 182.61 740.01 147.03 721.64 147.03 721.64 119.75 616.43 119.75 616.43 84.24 567.31 84.24 567.31 119.75 521.54 119.75 521.54 147.03 505.17 147.03 505.17 182.61 521.54 182.61 521.54 215.05 505.17 215.05 505.17 250.63 521.54 250.63 521.54 264.46 399.04 264.46 399.04 215.05 361.64 215.05 361.64 177.34 325.64 146.38 203.4 146.38 203.4 164.82 178.85 164.82 178.85 215.05 203.4 215.05 203.4 252.94 98.47 252.94 98.47 72.57 87.31 72.57 87.31 252.94 43.5 252.94 43.5 320.61 0 320.61 0 600 3150.37 600 3150.37 320.61 3094.56 320.61"/>
</svg>