<?xml version="1.0" encoding="UTF-8"?>
<svg id="Layer_2" data-name="Layer 2" xmlns="http://www.w3.org/2000/svg" viewBox="0 0 3840 600">
  <defs>
    <style>
      .cls-1 {
        fill: #ccc;
      }
    </style>
  </defs>
  <path class="cls-1" d="m3773.82,348.8v-29.71h-87.91v29.71h-15.91v-113.86h-26.79v-18.96h-18.42v-19.05h-17.95v-55.67h-3.35v55.67h-18.05v19.05h-22.6v18.96h-31.81v65.06h-49.4v-12.32h-48.56v12.32h-12.56v69.73h-11.72v43.53h11.72v25.95h-56.93v-107.99h17.57v-24.27h-17.57v-41.88h-36.84v-11.74h6.14v-19.05h-6.14v-18.31h6.14v-19.05h-6.14v-18.31h6.14v-19.05h-6.14v-18.31h6.14v-19.05h-6.14v-18.31h6.14v-19.05h-6.14v-18.31h6.14v-19.05h-6.14V13.91h-58.6v-6.7h-78.7v6.7h-70.33v33.58h-7.01v19.05h7.01v18.31h-7.01v19.05h7.01v18.31h-7.01v19.05h7.01v18.31h-7.01v19.05h7.01v18.31h-7.01v19.05h7.01v18.31h-7.01v19.05h7.01v53.6l-26.79-26.79v-103.81h-62.79v-21.17h-43.53v-13.99h-40.19v35.16h-20.93v19.67h-7.05v19.05h7.05v18.31h-7.05v19.05h7.05v18.31h-7.05v19.05h7.05v18.31h-7.05v19.05h7.05v18.31h-7.05v19.05h7.05v18.31h-7.05v19.05h7.05v18.31h-7.05v19.05h7.05v16.74h-103.81v-107.16l-72-72v-118.53h6.34v-6.21h-6.34v-51.07h8.29v-24h-8.29v-26.23h-92.65v-18.6h-41.49v18.6h-8.19v26.23h-8.65v24h8.65v51.07h-6.7v6.21h6.7v205.6h-31.81v-14.23h10.88v-25.95h-10.88v-20.93h10.88v-25.95h-10.88v-20.93h10.88v-25.95h-10.88v-20.93h10.88v-25.95h-10.88v-20.09h-67.53v-28.47h-46.88v-22.88h-48v22.88h-16.47v28.47h-10.33v26.79h11.72v63.63h-37.12v-16.47h-25.4v16.47h-11.16v46.64h-26.79v-15.62h-37.95v15.62h-39.07v-37.71h10.05v-27.26h-10.05v-20.19h4.47v-40.74h-4.47v-17.02h-15.61v-10.79h-59.38v10.79h-33.01l-46.05,46.05v185.86h-23.44v-1.44h4.48v-31.26h-4.48v-20.33h4.48v-31.26h-4.48v-20.33h4.48v-31.26h-4.48v-20.33h4.48v-31.26h-4.48v-21.86h-11.71v-21.21h-37.47v21.21h-17.24v-21.21h-37.47v21.21h-11.65v37.69c-.75-.13-1.52-.21-2.31-.21h0c-7.71,0-13.95,6.25-13.95,13.95v7.16h-13.56v-7.16c0-7.71-6.25-13.95-13.95-13.95h0c-7.71,0-13.95,6.25-13.95,13.95v7.16h-13.56v-7.16c0-7.71-6.25-13.95-13.95-13.95s-13.95,6.25-13.95,13.95v7.16h-13.56v-7.16c0-7.71-6.25-13.95-13.95-13.95s-13.95,6.25-13.95,13.95v7.16h-8.37v61.71h-20.09v-21.25h5.3v-16.47h-5.3v-30.7h11.16v-22.51h-11.16v-9.3h-54.7v-12.28h-27.35v-68.65h-3.35v68.65h-14.51v12.28h-17.3v13.4h-7.81v18.42h7.81v61.95h-7.81v18.51h7.81v12.74h-5.02v32.37h-13.4v-71.26h7.26v-34.33h-7.26v-4.93h-51.91v-21.77h-29.58v-15.81h-18.14v-3.91c0-7.71-6.25-13.95-13.95-13.95s-13.95,6.25-13.95,13.95v3.91h-18.14v15.81h-20.09v30.14h-12.84v47.12h12.84v13.16h-75.35v-11.44h-9.21v-17.95h9.21v-16.37h-9.21v-17.95h9.21v-16.37h-9.21v-17.95h9.21v-16.37h-10.6l-17.95-17.95h4v-16.37h-10.6v-17.95h10.6v-16.37h-10.6v-17.95h10.6v-16.37h-10.6v-17.95h10.6v-16.37h-10.6v-21.21h-15.63V13.91h-2.6v28.47h-8v-12.28h-94.33v12.28h-6.14V13.91h-2.6v28.47h-16.37v21.21h-11.35v16.37h11.35v17.95h-11.35v16.37h11.35v17.95h-11.35v16.37h11.35v17.95h-11.35v16.37h11.35v17.95h-11.35v16.37h11.35v17.95h-11.35v16.37h11.35v17.95h-11.35v16.37h11.35v17.95h-11.35v11.44h-31.4v-13.16h-18.09v13.16h-4.47v33.49h-32.65v-41.3h6.42v-17.86h-6.42v-6.98l-47.72-47.72v-26.79h-20.65v-13.21h-18.98v-7.44h-13.77v7.44h-18.98v13.21h-24.74v9.12h-6.51v36.09h6.51v33.49h-23.26v-4.84c0-7.71-6.25-13.95-13.95-13.95s-13.95,6.25-13.95,13.95v4.84h-20.84v-29.02h6.33v-14.42h-6.33v-6.79h-21.77v-88.74h-10.23v-10.23h-18.6v-16.37h-4.58v-41.3h-2.6v41.3h-4.72v16.37h-17.86v10.23h-11.72v75.35h-25.12v10.88h-8.09v10.33h8.09v10.51h-8.09v10.33h8.09v10.51h-8.09v10.33h8.09v10.51h-8.09v10.33h8.09v10.51h-8.09v10.33h8.09v5.95h-18.42v-41.86h-4.65v-5.77h-10.05v5.77h-6.33v-5.77h-10.05v5.77h-4.09v-34.42h5.58v-14.88h-5.58v-5.12h-42.7l-39.35-39.35h-25.12v36.84h-19.53v-11.16h-16.19v11.16h-15.37v-11.16h-16.19v11.16h-33.19v-24.42h1.56v-15.63h-1.56v-25.95h2.94v-15.63h-25.98v15.63h2.94v25.95h-1.56v15.63h1.56v41.72h-10.05v7.81h10.05v39.95h-16.19v-13.71h-2.79v13.71h-2.79v25.36h-21.77v-10.6h-4.19v-7.81h4.19v-15.63h-4.19v-7.81h4.19v-15.63h-4.19v-7.81h4.19v-15.63h-4.19v-12l-52.74-52.74h-20.47v-36.88h-2.6v36.88h-27.16v31.26h-5.02v15.91h5.02v9.77h-40.19v-31.81h-58.6l-25.12,25.12v14.51h-4.47v8.93h4.47v16.74h-46.88v-20.09h-7.27c-2.41-6.28-8.49-10.74-15.62-10.74h-6.7c-7.13,0-13.2,4.46-15.62,10.74h-6.71v17.86h-6.7v24.56h6.7v56.37H0v251.2h3840v-251.2h-66.18Z"/>
</svg>