<?xml version="1.0" encoding="UTF-8"?>
<svg id="Layer_1" data-name="Layer 1" xmlns="http://www.w3.org/2000/svg" viewBox="0 0 1920 600">
  <path d="m0,0v600h67.19V0H0Zm21.84,41.4l-5.85,5.85c-1.24,1.24-3.36.36-3.36-1.39v-14.89c0-1.75,2.12-2.63,3.36-1.39l5.85,5.85c1.65,1.65,1.65,4.32,0,5.97Zm-.47-28.78h24.5c1.75,0,2.63,2.12,1.39,3.36l-10.66,10.66c-1.65,1.65-4.32,1.65-5.97,0l-10.66-10.66c-1.24-1.24-.36-3.36,1.39-3.36Zm15.23,37.57l14.3,14.3c1.65,1.65,1.65,4.32,0,5.97l-14.3,14.3c-1.65,1.65-4.32,1.65-5.97,0l-14.3-14.3c-1.65-1.65-1.65-4.32,0-5.97l14.3-14.3c1.65-1.65,4.32-1.65,5.97,0Zm8.79-14.76l5.82-5.82c1.24-1.24,3.36-.36,3.36,1.39v14.81c0,1.75-2.12,2.63-3.36,1.39l-5.82-5.82c-1.65-1.65-1.65-4.32,0-5.97Zm-.04,522.38l5.85-5.85c1.24-1.24,3.36-.36,3.36,1.39v14.89c0,1.75-2.12,2.63-3.36,1.39l-5.85-5.85c-1.65-1.65-1.65-4.32,0-5.97Zm.47,28.78h-24.5c-1.75,0-2.63-2.12-1.39-3.36l10.66-10.66c1.65-1.65,4.32-1.65,5.97,0l10.66,10.66c1.24,1.24.36,3.36-1.39,3.36Zm-24.02-22.81l-5.82,5.82c-1.24,1.24-3.36.36-3.36-1.39v-14.81c0-1.75,2.12-2.63,3.36-1.39l5.82,5.82c1.65,1.65,1.65,4.32,0,5.97Zm.04-464.48l-5.85,5.85c-1.24,1.24-3.36.36-3.36-1.39v-14.89c0-1.75,2.12-2.63,3.36-1.39l5.85,5.85c1.65,1.65,1.65,4.32,0,5.97Zm14.76,8.79l14.3,14.3c1.65,1.65,1.65,4.32,0,5.97l-14.3,14.3c-1.65,1.65-4.32,1.65-5.97,0l-14.3-14.3c-1.65-1.65-1.65-4.32,0-5.97l14.3-14.3c1.65-1.65,4.32-1.65,5.97,0Zm8.79-14.76l5.82-5.82c1.24-1.24,3.36-.36,3.36,1.39v14.81c0,1.75-2.12,2.63-3.36,1.39l-5.82-5.82c-1.65-1.65-1.65-4.32,0-5.97Zm-23.55,63.87l-5.85,5.85c-1.24,1.24-3.36.36-3.36-1.39v-14.89c0-1.75,2.12-2.63,3.36-1.39l5.85,5.85c1.65,1.65,1.65,4.32,0,5.97Zm14.76,8.79l14.3,14.3c1.65,1.65,1.65,4.32,0,5.97l-14.3,14.3c-1.65,1.65-4.32,1.65-5.97,0l-14.3-14.3c-1.65-1.65-1.65-4.32,0-5.97l14.3-14.3c1.65-1.65,4.32-1.65,5.97,0Zm8.79-14.76l5.82-5.82c1.24-1.24,3.36-.36,3.36,1.39v14.81c0,1.75-2.12,2.63-3.36,1.39l-5.82-5.82c-1.65-1.65-1.65-4.32,0-5.97Zm-23.55,63.87l-5.85,5.85c-1.24,1.24-3.36.36-3.36-1.39v-14.89c0-1.75,2.12-2.63,3.36-1.39l5.85,5.85c1.65,1.65,1.65,4.32,0,5.97Zm14.76,8.79l14.3,14.3c1.65,1.65,1.65,4.32,0,5.97l-14.3,14.3c-1.65,1.65-4.32,1.65-5.97,0l-14.3-14.3c-1.65-1.65-1.65-4.32,0-5.97l14.3-14.3c1.65-1.65,4.32-1.65,5.97,0Zm8.79-14.76l5.82-5.82c1.24-1.24,3.36-.36,3.36,1.39v14.81c0,1.75-2.12,2.63-3.36,1.39l-5.82-5.82c-1.65-1.65-1.65-4.32,0-5.97Zm-23.55,63.87l-5.85,5.85c-1.24,1.24-3.36.36-3.36-1.39v-14.89c0-1.75,2.12-2.63,3.36-1.39l5.85,5.85c1.65,1.65,1.65,4.32,0,5.97Zm14.76,8.79l14.3,14.3c1.65,1.65,1.65,4.32,0,5.97l-14.3,14.3c-1.65,1.65-4.32,1.65-5.97,0l-14.3-14.3c-1.65-1.65-1.65-4.32,0-5.97l14.3-14.3c1.65-1.65,4.32-1.65,5.97,0Zm8.79-14.76l5.82-5.82c1.24-1.24,3.36-.36,3.36,1.39v14.81c0,1.75-2.12,2.63-3.36,1.39l-5.82-5.82c-1.65-1.65-1.65-4.32,0-5.97Zm-23.55,63.87l-5.85,5.85c-1.24,1.24-3.36.36-3.36-1.39v-14.89c0-1.75,2.12-2.63,3.36-1.39l5.85,5.85c1.65,1.65,1.65,4.32,0,5.97Zm14.76,8.79l14.3,14.3c1.65,1.65,1.65,4.32,0,5.97l-14.3,14.3c-1.65,1.65-4.32,1.65-5.97,0l-14.3-14.3c-1.65-1.65-1.65-4.32,0-5.97l14.3-14.3c1.65-1.65,4.32-1.65,5.97,0Zm8.79-14.76l5.82-5.82c1.24-1.24,3.36-.36,3.36,1.39v14.81c0,1.75-2.12,2.63-3.36,1.39l-5.82-5.82c-1.65-1.65-1.65-4.32,0-5.97Zm-23.55,63.87l-5.85,5.85c-1.24,1.24-3.36.36-3.36-1.39v-14.89c0-1.75,2.12-2.63,3.36-1.39l5.85,5.85c1.65,1.65,1.65,4.32,0,5.97Zm14.76,8.79l14.3,14.3c1.65,1.65,1.65,4.32,0,5.97l-14.3,14.3c-1.65,1.65-4.32,1.65-5.97,0l-14.3-14.3c-1.65-1.65-1.65-4.32,0-5.97l14.3-14.3c1.65-1.65,4.32-1.65,5.97,0Zm8.79-14.76l5.82-5.82c1.24-1.24,3.36-.36,3.36,1.39v14.81c0,1.75-2.12,2.63-3.36,1.39l-5.82-5.82c-1.65-1.65-1.65-4.32,0-5.97Zm-23.55,63.87l-5.85,5.85c-1.24,1.24-3.36.36-3.36-1.39v-14.89c0-1.75,2.12-2.63,3.36-1.39l5.85,5.85c1.65,1.65,1.65,4.32,0,5.97Zm14.76,8.79l14.3,14.3c1.65,1.65,1.65,4.32,0,5.97l-14.3,14.3c-1.65,1.65-4.32,1.65-5.97,0l-14.3-14.3c-1.65-1.65-1.65-4.32,0-5.97l14.3-14.3c1.65-1.65,4.32-1.65,5.97,0Zm8.79-14.76l5.82-5.82c1.24-1.24,3.36-.36,3.36,1.39v14.81c0,1.75-2.12,2.63-3.36,1.39l-5.82-5.82c-1.65-1.65-1.65-4.32,0-5.97Zm-23.55,63.87l-5.85,5.85c-1.24,1.24-3.36.36-3.36-1.39v-14.89c0-1.75,2.12-2.63,3.36-1.39l5.85,5.85c1.65,1.65,1.65,4.32,0,5.97Zm14.76,8.79l14.3,14.3c1.65,1.65,1.65,4.32,0,5.97l-14.3,14.3c-1.65,1.65-4.32,1.65-5.97,0l-14.3-14.3c-1.65-1.65-1.65-4.32,0-5.97l14.3-14.3c1.65-1.65,4.32-1.65,5.97,0Zm8.79-14.76l5.82-5.82c1.24-1.24,3.36-.36,3.36,1.39v14.81c0,1.75-2.12,2.63-3.36,1.39l-5.82-5.82c-1.65-1.65-1.65-4.32,0-5.97Z"/>
</svg>