<?xml version="1.0" encoding="UTF-8"?>
<svg id="Layer_1" data-name="Layer 1" xmlns="http://www.w3.org/2000/svg" viewBox="0 0 3840 1080">
  <defs>
    <style>
      .cls-1 {
        fill: #999;
      }
    </style>
  </defs>
  <path class="cls-1" d="M3790.6,510.25c14.07,.01,18.4,9.14,49.4,9.14v560.61H0V519.39c26.19,.02,64.5,5.24,89.96,11.79,13.54,3.48,23.27,4.9,35.5-1.73,7.15-3.87,12.86-5.84,20.83-6.57,36.14-3.28,71.62,14.85,107.7,.15,11.13-4.53,20.79-8.55,33.2-6.11,9.13,1.79,17.82,6.17,26.51,9.33,11.29,4.1,22.87,6.62,34.74,8.27,10.23,1.42,14.8-1.69,24.16-5.24,7.72-2.91,16.04-4.99,23.98-7.22,10.13-2.85,20.61-1.82,30.82-4.26,17.03-4.08,27.53-6.48,44.35-.09,15.52,5.91,31.97,11.03,47.88,15.85,14.24,4.32,30.12,2.94,44.76,.81,29.34-4.27,58.32-12.41,86.52-21.26,10.49-3.29,21.86-5.48,32.85-6.19,11.33-.74,20.6,2.89,31.46,5.57,21.94,5.4,44.63,11.82,65.74,20.11,12.04,4.73,30,12.79,43.25,9.58,10.58-2.56,20.58-9.77,31.27-12.96,12.38-3.69,25.04-8.46,37.8-10.76,12.75-2.29,22.64,5,34.34,9.1,17.98,6.29,44.34,12.74,63.26,10.15,26.52-3.63,52.28-14.68,79.11-14.83,14.13-.08,28.3,.4,42.43,.13h.14c20.54-.38,40.12-8.35,59.08-17.2,10.59-4.94,20.99-10.15,31.26-14.45,9.3-3.91,19.31-4.72,29.27-4.04,4.44,.29,8.87,.88,13.22,1.62,20.77,3.55,36.02,15.13,54.75,24.33,25.5,12.52,49.67,21.44,77.85,25.21,19.75,2.64,36.5-7.14,55.08-11.67,13.02-3.18,26.43-4.15,39.9-4.32,12.86-.17,25.77,.39,38.46,.44,11.52,.04,22.26-.07,33.65-1.58,8.15-1.08,17.98,.19,24.46-5.3,5.28-4.47,5.9-9.68,14.04-10.58,2.7-.3,5.93,.53,8.55,1.1,9.21,2,12.32,7.09,19.43,13.01,20.73,17.25,49.52,26.25,76.02,26.02,29.37-.27,56.98-5.1,85.87-9.12,18.41-2.57,37.57-.18,56.1-.53,21.13-.39,42.21-8.09,63.44-9.71,14.72-1.13,24.24-12.44,38.27-15.62,13.39-3.03,22.77,6.62,33.34,12.32,11.99,6.47,24.9,10.78,37.44,16.11,16.93,7.19,30.93,8.63,47.62,1.25,19.26-8.52,42.6-13.17,63.47-15.9,22.47-2.94,43.87-2.75,66.06-8.71,5.39-1.44,10.35-3.73,15.57-5.68,7.57-2.83,14.27-2.93,22.34-3.98,40.97-5.31,83.89-2.43,125.24-2.43,29.56,0,59.12,.05,88.69,0,27.39-.04,57.81-.79,84.67,5.11,25.35,5.56,50.17,8.56,75.91,11.81,18.74,2.37,37.4,5.84,56.31,5.68,15.37-.13,34.66,3.01,49.53-.75,14.95-3.78,29.65-1.31,45.37-2.35,13.33-.89,24.31-9.52,38.48-9.95,14.05-.42,28.22,.12,42.28,.12,15.69,0,32.76-1.96,48.26,.24,13.75,1.95,26.11,9.2,40.11,9.55,25.01,.62,50.14-.12,75.16-.12,21.12,0,47.54,4.1,67.69-2.35,12.37-3.96,21.67-7.38,34.7-7.32,11.39,.06,22.78,0,34.17,0,15.45,0,31.21,1.9,45.72-3.23,11.3-3.98,22.97-4.15,34.63-8.02,10.48-3.49,23.23-14.48,34.96-11.62,5.4,1.31,6.45,4.71,10.29,8.34,4.99,4.72,11.71,7.34,16.85,12.02,6.29,5.73,10.96,10.78,18.21,15.21,6.71,4.12,13.22,11.62,21.05,13.11,5.24,1,9.56-1.61,14.59-2.53,5.93-1.08,11.67-.77,17.68-.68,13.53,.21,24.85-6.08,37.93-6.56,11.06-.4,22.24,.03,33.3,.11,8.66,.06,14.89-.08,22.73-3.14,6.24-2.42,11.65-6,18.36-6.8,10.05-1.21,22.03-.09,32.15,.16,6.25,.16,11.89,1.2,17.65,3.95,5.74,2.74,9.07,7.3,14.34,10.39,9.58,5.62,21.41,6.42,31.53,2.74,8.27-3,15.29-3.35,23.93-4.74,10.85-1.76,21.46-5.58,32.31-7.58,13.8-2.54,28.1-1.46,42.12-1.46,6.34,0,12.69-.15,19.03-.03,5.53,.1,10.58,2.36,15.76,2.69,11.73,.75,21.34-9.72,32.06-13.22,15.11-4.93,29.88-11.22,46.04-12.16,16.28-.95,17.39,10.02,33.71,10.03Z"/>
</svg>