<?xml version="1.0" encoding="UTF-8"?>
<svg id="Layer_6" data-name="Layer 6" xmlns="http://www.w3.org/2000/svg" viewBox="0 0 3840 1080">
  <defs>
    <style>
      .cls-1 {
        fill: #666;
      }
    </style>
  </defs>
  <path class="cls-1" d="M3840,648.84v392.35H0v-392.35c42.16,0,46.3,5.69,61.78,3.89,14.8-1.72,21.99,4.11,35.86-2.01,12.14-5.35,22.44-11.13,32.87-16.6,10.77-5.65,21.69-11,34.93-15.25,12.56-4.04,21.47-10.04,34.78-9.73,11.36,.27,22.4,7.4,33.33,11.31,15.09,5.38,28.61,14.3,44.1,18.72,13.01,3.7,25.87,5.03,37.9,11.22,11.58,5.95,20.64,3.47,32.88,.71,13.61-3.06,28.32-2.9,37.97-13.7,8.99-10.06,20.72-10.94,31.44-18.53,14.82-10.52,29.5-13.34,47.64-12.96,13.61,.28,26.45,3.27,40.22,3.28,16.25,.02,31.85-.56,47.79,2.51,10.89,2.1,23.05,.73,34.2,.72,6.54-.01,13.77,1.17,20.19,.31,9.65-1.29,15.99-8.27,25.21-10.22,12.38-2.64,24.53-2.73,36.69-5.82,17.57-4.46,35.28-3.62,53.23-3.62,4.85,0,9.83-.22,14.82-.38,6.5-.21,13.03-.33,19.32,.24,6.85,.62,10.31,3.7,16.49,6.6,8.44,3.97,19.67,8,28.98,9.38,9.83,1.46,19.21,2.81,29.02,3.3,2.77,.15,5.57,.22,8.43,.21,5.71-.02,11.2,.39,16.62,1.06,10.22,1.25,20.19,3.36,30.81,5.02,11.72,1.83,26.48,6.91,38.1,.8,.63-.32,1.26-.69,1.87-1.09,4.79-3.13,7.69-7.58,12.92-10.75,6.26-3.79,13.19-5.78,19.47-9.43,6.95-4.04,12.2-9.46,19.58-13.13,6.94-3.45,13.91-4.44,21.11-6.89,7.12-2.43,11.82-8.39,18.15-12.15,5.6-3.32,10.64-5.8,15.42-10.28,5.26-4.93,7.26-8.74,14.02-11.18,6.64-2.39,8.17-2.3,13.74-7.99,6.26-6.42,13.15-10.08,20.97-14.26,8.12-4.34,13.78-11.34,21.43-16.36,2.6-1.71,5.34-2.87,8.14-3.78,6.15-2,12.63-2.81,18.7-5.56,13.59-6.16,26.27-8.48,40.52-11.64,.68-.15,1.36-.3,2.05-.46,10.38-2.35,21.4-4.07,31.56-7.17,9.22-2.81,17.53-7.79,26.67-10.78,.08-.03,.17-.06,.25-.08,5.25-1.69,9.44-1.73,14.8-2.12,7.61-.55,13.83-3.15,21.2-5.01,15.9-4.01,30.19-11.09,46.94-13.76,11.93-1.9,27.8,2.92,38.37-2.79,5.81-3.14,11.07-7.51,17-10.79,8.72-4.83,9.26-5.77,18.13-.41,10.83,6.54,17.77,16.55,27.73,24.07,8.51,6.43,17.7,11.27,25.71,18.44,9.42,8.42,17.54,17.86,27.88,25.23,1.04,.74,2.05,1.51,3.04,2.31,6.42,5.15,12.18,11.33,19.14,15.43,9.63,5.68,20.01,10.1,29.72,15.8,9.61,5.64,21.2,7.92,29.52,15.25,17.71,15.62,40.71,23.3,61.86,34.19,19.24,9.9,38.27,21.56,56.1,33.42,3.05,2.02,5.55,3.95,7.86,5.96,3.5,3.05,6.54,6.3,10.26,10.38,7.03,7.71,16.68,9.1,25.95,13.28,22.15,9.98,38.79,17.79,63.22,18.71,8.52,.32,16.52,3.12,25.03,3.43,10.14,.38,20.45-.12,30.6-.12,11.47,0,29.79,3.59,40.29-1.21,5.49-2.51,11.77-10.88,16.37-15.21,8.91-8.41,15.2-12.13,26.25-16.52,12.51-4.98,23.24-13.12,35.39-18.65,9.26-4.22,13.79-4.66,21.2-12.17,5.37-5.43,9.77-6.72,16.85-9.49,10.86-4.24,21.63-10.89,31.48-17.08,.18-.11,.36-.23,.54-.33,10.66-6.56,16.4-5.85,29.25-2.96,11.16,2.52,21.57,5.06,32.29,8.94,14.63,5.28,24.86,20.36,40.59,13.82,5.33-2.22,11.04-3.38,16.4-5.48,10.15-3.98,13.42-9.36,20.15-16.52,6.38-6.78,15.49-8.72,23.45-13.36,8.07-4.69,15.65-10.27,23.83-14.77,9.07-4.98,18.42-7.8,26.56-14.48,10.89-8.94,13.32-12.83,28.22-9.22,13.44,3.25,25.7,9.38,39.49,11.8,11.48,2.01,21.55,6.01,32.3,10.51,11.43,4.78,20.52,5.04,32.14,7.09,8.67,1.54,15.86,3.29,24.81,2.33,9.97-1.07,18.67-6.41,28.31-8.9,7.27-1.88,15.05-2.52,22.24-4.5,6.37-1.76,12.12-5.75,18.52-7.61,9.2-2.68,16.7,.35,25.85,1.5,9.85,1.24,18.79,.09,28.47,3.31,11.9,3.95,22.21,11.06,33.36,16.62,8.74,4.35,14.72,8.02,21.39,15.44,9.34,10.39,16.75,15.22,28.96,22.23,7.07,4.05,14.31,7.85,21.42,11.82,6.32,3.53,8.81,2.88,15.48,.47,7.91-2.85,11.73-6.91,17.05-12.86,6.13-6.86,13.05-7.8,20.11-12.86,6.06-4.35,8.42-12.45,15.67-14.74,6.75-2.13,10.44-2.46,16.56-6.49,15.29-10.06,28.88-16.23,47.97-14.08,13.23,1.5,25.48,5.46,38.23,8.9,5.31,1.43,11.24,2.07,16.85,3.43,3.47,.85,6.81,1.98,9.8,3.75,5.13,3.04,9.08,8.22,14.5,11.01,5.21,2.69,10.21,3.4,15.34,6.79,11.27,7.46,22.65,14.69,34,22.1,11,7.17,18.49,11.28,31.11,14.94,13.22,3.84,23.27,12.49,32.82,22.25,6.28,6.42,13.58,13.1,18.18,20.82,5.21,8.74,10.11,11.66,19.12,16.06,14.75,7.21,30.08,13.84,45.42,19.5,10.16,3.75,18.91,2.45,29.24,.8,20.45-3.26,41.71-5.99,62.37-7.15,18.18-1.02,36.91-1.54,55.63-1.29,12.07,.17,24.15,.67,36.06,1.57,7.82,.58,15.57,1.34,23.21,2.3,7.25,.91,16.19,4.02,23.54,3.3,5.58-.54,12.37-4.33,17.81-6.08,7.02-2.27,14.73-3.58,21.53-6.34,9.37-3.8,18.47-10.64,26.51-16.54,8.33-6.11,15-6.46,25.21-7.81,29.79-3.93,60.86-1.71,90.91-1.6,11.56,.04,23.21,1.07,34.52-1.55,17.82-4.12,31.6-16.23,46.96-25.36,14.64-8.7,29.42-17.73,44.94-24.82,27.88-12.74,60.8-4.58,89.67,.09,16.43,2.66,32.62,4.71,47.87,11.5,14.14,6.31,27.3,13.4,42.25,17.75,7.52,2.18,15.42,3.78,22.64,6.97,6,2.66,11.39,6.97,17.47,9.39,9.68,3.85,17.27,.55,54.85,.55Z"/>
</svg>