<?xml version="1.0" encoding="UTF-8"?>
<svg id="Layer_5" data-name="Layer 5" xmlns="http://www.w3.org/2000/svg" viewBox="0 0 3840 1080">
  <defs>
    <style>
      .cls-1 {
        fill: #333;
      }
    </style>
  </defs>
  <path class="cls-1" d="M3840,711.66v368.34H0v-368.34c15.05-.07,25.15,3.62,38.15-4.74,10.82-6.97,24.67-19.83,37.76-20.56,9.54-.54,18.4,3.05,27.75,3.67,8.39,.56,15.82,1.13,24.09,2.33,13.48,1.96,22.69,.22,34.81-5.71,9.77-4.78,16.88-10.39,24.97-16.43,1.68-1.26,3.4-2.53,5.2-3.82,5.56-4,12.81-4.47,18.06-8.62,5.18-4.1,6.52-10.72,14.34-11.93,6.59,9.94,10.01,21.49,16.9,31.24,3.37,4.78,6.49,9.56,9.6,14.42,1.37,2.16,2.75,4.33,4.14,6.52,3.62,5.68,7.44,10.99,10.57,16.97,4.2,8.06,7.37,8.8,15.23,13.37,7.71,4.48,11.97,11.77,20.11,15.63,4.78,2.27,10.8,5.29,15.68,6.82,3.79,1.19,7.98,2.37,12.3,3.41,7.39,1.77,15.15,3.12,21.91,3.4,5.96,.24,13.68,.88,19.57,.14,4.64-.59,6.14-1.65,7.31-3.59,.92-1.53,1.62-3.6,3.5-6.42,6.78-10.18,30.98-7.68,42.16-5.76,8.99,1.54,16.05,6.85,24.42,10.07,5.48,2.1,11.31,3.27,16.77,5.4,5.81,2.26,11.59,4.76,17.33,7.08,5.84,2.36,10.86,5.92,16.59,8.5,5.04,2.26,10.76,2.67,15.74,4.76,9.39,3.95,8.24,4.19,18.87-.06,6.56-2.62,13.7-4.44,20.09-7.27,5.67-2.51,6-5.43,10.25-9.79,4.08-4.19,10.71-5.78,15.4-9.27,8.05-6.01,11.96-13.99,17.1-22.24,1.07-1.71,2.21-3.22,3.4-4.59,3.49-4.03,7.48-6.93,11.83-10.7,11.88-10.3,20.08-25.04,31.52-36.22,4.77-4.66,10-8.45,14.42-13.36,4.74-5.27,8.43-11.54,13.8-16.21,9.94-8.64,23.79-12.25,34.72-19.59,9.66-6.48,21.58-9.34,31.47-14.82,1.53-.84,3-1.75,4.41-2.74,10.55-7.4,24.71-14.31,37.47-18.03,15.89-4.64,29.38,11.95,38.72,23.18,4.46,5.35,8.01,12.31,13.21,17.11,.56,.53,1.14,1.02,1.75,1.49,7.03,5.39,15.63,3.23,23.3-.22,.64-.29,1.28-.59,1.91-.89,8.09-3.92,17.18-7.04,24.99-11.29,9.97-5.43,11.36-8.78,22.41-1.38,7.6,5.1,13.53,12.4,19.6,19.38,2.37,2.72,4.76,5.4,7.29,7.87,3.46,3.39,7.5,6.58,10.59,10.3,2.58,3.11,4.1,8.12,7.04,10.82,4.43,4.09,10.86,5.18,17.59,5.26,6.74,.09,13.79-.85,19.45-.82,4.99,.02,10.38,.87,15.23-.49,2.87-.8,5.77-2.43,8.59-4.35,3.84-2.61,7.56-5.74,10.92-8.05,12.52-8.6,24.94-16.39,37.77-24.46,13.27-8.35,27.93-17.13,39.53-27.83,3.14-2.9,5.97-6.86,9.66-9.24,2.91-1.87,6.77-2.15,9.6-4.2,7.79-5.64,10.36-11.21,19.99-15.06,12.22-4.88,22.64-13.87,35.54-5.91,10.18,6.29,16.72,15.47,26.17,22.47,6.27,4.63,8,6.56,11.02,14.22,5.03,12.73,17.41,24.26,26.23,35.01,8.76,10.66,16.33,22.77,25.46,33.04,5.55,6.24,12.25,11.09,17.31,17.77,4.94,6.53,9.47,12.83,15.62,18.39,9.75,8.81,16.81,6.93,28.92,3.9,20.27-5.07,43.65-3.71,59.37,11.64,6.91,6.75,11.52,16.27,20.4,20.9,7.46,3.89,18.25,5.49,26.68,6.23,17.44,1.52,31.23,.53,46.11-8.31,5.39-3.21,11.85-4.34,17.01-7.73,6.42-4.21,7.75-12.18,13.37-16.69,6.08-4.88,10.95-3.53,16.29-9.99,5.18-6.25,9.46-10.38,15.96-15.77,12.98-10.78,27.26-20.43,42.07-28.72,13.17-7.38,22.78-19.26,37.32-22.94,17.07-4.33,32.21-6.66,49.95-6.13,2.58,.08,5.08,.47,7.52,1.11,11.6,3,21.83,11.4,32.58,16.79,5.25,2.64,11.77,6.6,17.77,6.81,13.14,.47,29.49-7.56,42.06-11.75,10.94-3.65,21.46-7.02,31.37-12.95,7.93-4.74,11.08-7.26,21.3-5.04,14.89,3.23,28.44,9.2,43.11,12.32,30.7,6.54,55.68-5.19,80.58-23.18,7.52-5.43,12.29-14.69,20.57-18.96,2.68-1.38,8-1.78,10.86-2.73,6.69-2.21,12.41-6.12,18.76-9.05,10.61-4.89,18.3-2.74,24.47,2.76,8.55,7.62,14.16,21.66,20.51,32.23,17.27,28.76,40.87,52.97,64.08,76.98,11.91,12.31,28.3,27.53,46.36,27.68,22.48,.19,36.68-6.85,52.87-21.24,9.06-8.05,20.33-13.25,29.61-21.27,6.73-5.83,12.55-8.34,20.56-12.34,23.27-11.63,46.59-24.7,72.09-31.14,10.48-2.65,16.59-3.25,26.2,2.4,6.82,4.01,14.51,13.62,22.32,14.64,11.21,1.48,28.64-10.38,36.34-18.2,6.35-6.45,17.56-12.05,22.43-19.48,1.58-2.42,1.47-5.88,2.8-8.35,1.37-2.55,2.76-3.63,4.53-5.96,10.13-13.32,23.56-22.98,38.85-30.33,14.29-6.86,20.83-.9,34.73,6.2,18.04,9.21,35.94,20.19,54.78,27.59,29.86,11.72,61.69,13.5,93.11,8.55,14.01-2.21,28.23-5.58,42.1-8.77,10.98-2.52,20.11-8.3,30.47-12.45,8.59-3.44,17.4-6.28,26.35-8.53,16.47-4.14,30.6-10.79,44.83-18.83,3.73-2.1,7.47-4.3,11.26-6.57,14.41-8.64,27.01-19.75,41.38-28.17,9.31-5.45,16.75-13.1,25.84-18.51,8.39-4.99,9.36-2.42,17.04,1.62,9.85,5.17,21.42,6.5,30.65,13.02,16.4,11.57,33.08,21.98,49.72,33.78,7.16,5.08,13.55,10.5,21.43,14.48,9.27,4.69,17.65,12.55,27.65,15.51,13.02,3.86,16.15,7.44,26.53,16.77,8.06,7.26,16.28,14.45,23.32,22.74,4.74,5.57,7.49,13.3,12.27,18.5,10.15,11.04,35.56,13.4,49.54,17.8,14.11,4.45,27.15,8.33,41.61,11.08,9.47,1.8,14.81,2.9,19.85,9.59,.97,1.28,1.93,2.77,2.9,4.5,.92,1.63,1.78,3.3,2.6,5.01,9.23,19.23,12.71,42.73,19.67,62.62,.47,1.35,.95,2.69,1.45,4.04,7.2,19.55,16.65,38.7,21.11,58.99,3.31,15.05,9.93,30.06,22.51,40.02,14.34,11.35,36.19,6.27,51.92,1.58,20.83-6.22,45.82-7.48,64.93-17.62,11.77-6.25,22.96-12.52,34.25-19.55,13.42-8.35,26.6-10.61,42.12-13.09,20.77-3.32,40.92-3.05,61.96-3.05s43.77,.91,65.51,.23c10.7-.33,17.98-2.91,27.22-8.26,7.39-4.29,15.17-9.67,23.46-11.93,13.33-3.63,24.95,5.76,35.24,12.91,9.89,6.87,20.86,11.62,30.39,19.11,8.88,6.98,15.28,16.14,27.49,12.18,19.23-6.22,28.86-19.29,38-36.41,.11-.21,.23-.42,.34-.64,5.65-10.65,14.24-17.79,22.09-26.61,7.01-7.86,4.54-28.59,10.71-37.01,10.89-14.89-1.62-33.94,29.52-33.94Z"/>
</svg>