<?xml version="1.0" encoding="UTF-8"?>
<svg id="Layer_4" data-name="Layer 4" xmlns="http://www.w3.org/2000/svg" viewBox="0 0 3840 1080">
  <defs>
    <style>
      .cls-1 {
        fill: #1a1a1a;
      }
    </style>
  </defs>
  <path class="cls-1" d="M3840,812.84v267.16H1455.24c-34.38-1.44-68.76-2.67-103.17-3.54-67.38-1.7-135.06-3.88-202.34-8.31-27.98-1.84-56.16-4.3-84.33-5.96-19.6-1.16-39.19-1.92-58.72-1.81-40.75,.23-81.53-.49-122.27,.35-15.51,.32-31,.86-46.49,1.46-12.89,.5-25.78,1.03-38.68,1.5-27.66,1.01-55.74,.62-83.25,3.89-22.43,2.66-44.41,7.72-66.67,11.3-2.15,.35-4.29,.72-6.42,1.12H0v-301.24c15.23,0,18.64,2.05,30.95,2.17,13,.12,17.84-4.62,30.05-7.1,7.38-1.49,13.38,.58,20.57-2.12,7.05-2.65,14.05-5.26,21.17-7.85,7.24-2.63,14.57-3.08,21.83-5.52,7.49-2.52,15.53-3.22,22.79-5.89,7.95-2.91,17.85-7.99,25.45-11.77,7.97-3.96,12.1-11.14,19.35-15.87,12.87-8.39,27.82-.26,40.12,3.71,6.73,2.16,12.95,3.35,19.51,6.37,6.09,2.8,11.96,6.71,18.3,8.86,7.44,2.52,14.49,5.67,21.92,8.21,8.82,3.01,17.32,2.25,26.53,2.26,3.7,.01,7.41,.01,11.12,.01,12.2,0,24.4-.01,36.6-.01,4.08,0,8.14-.05,12.19-.04,14.8,.02,29.37,.74,43.34,7.06,10.66,4.83,21.57,11.6,31.5,17.8,9.13,5.71,17.62,18.44,28.43,20.46,6.93,1.29,17.21-2.19,24.22-3.65,9.02-1.87,18.01-6.3,26.82-9.27,9.3-3.13,19.64-6.39,27.92-11.68,7.17-4.58,12.07-11.41,19.25-15.91,7.85-4.9,16.77-6.74,24.79-11.04,7.15-3.84,12.8-8.7,20.41-11.86,1.48-.61,2.96-1.2,4.44-1.77,15.65-6.08,31.2-9.96,47.79-12.25,8.88-1.22,15.21-3.47,24.58-3.39,14.36,.14,28.72,.08,43.09,.08,8.64,0,17.32,.22,25.96,.05,9.28-.18,10.83-2.15,17.51-8.94,9.93-10.11,22.16-19.87,32.87-29.07,11.62-9.99,27.38-7.18,41.44-7.18,16.19,0,33.76-1.92,49.72,.72,14.48,2.4,34.72,5.95,49.33,2.26,2.18-.55,4.26-1.26,6.25-2.05,12.23-4.83,21.59-12.82,36.56-8.38,2.33,.69,4.55,1.62,6.71,2.72,6.75,3.42,12.81,8.44,19.07,12.56,6.14,4.03,12.36,6.56,18.65,10.06,8.41,4.69,16.39,12.34,23.83,18.43,3.62,2.97,6.46,6.97,11.2,8.45,5.96,1.85,12.26,.06,18.36,2.41,5.21,2,8.79,6.19,13.55,8.91,8.84,5.05,18.38,6.42,28.29,9.1,16.82,4.55,33.4,11.08,50.44,14.69,15.22,3.23,28.41,8.14,43.22,12.97,18.5,6.04,37.32,6.22,56.21,9.59,12.78,2.28,26.65,.65,39.64,.72,11.6,.06,22.44-1.05,33.94-2.5,19.85-2.5,40.67-.72,60.66-.72,54.32,0,108.72-.79,163.04,.07,18.49,.29,30.04-13.11,47.31-17.94,7.2-2.02,13.69-.76,20.99-1.74,8.3-1.11,14.6-2.5,23.01-2.77,10.9-.36,20.74-3.53,31.76-3.44,8.59,.08,17.19,.03,25.79,.03h64.72c19.4,0,41.55-3.35,60.42,.65,18.38,3.89,28.02,20.56,46.39,21.98,22.35,1.73,44.44,8.18,66.79,9.78,34.62,2.47,71.17,.96,105.86,0,34.85-.97,69.32-3.39,104.25-3.39,7.81,0,16.78,1.05,24.59,.17,10.21-1.16,19.16-3.48,29.73-3.31,20.12,.32,38.45-7.61,58.14-9.51,30.67-2.97,61.04,1.7,91.45,3.14,20.33,.97,41.09-.15,61.48-.16,8.23-.01,17.96,1.31,26.09-.13,9.29-1.65,14.83-9.29,23.44-12.21,7.25-2.45,15.56-3.2,22.98-5.4,7.59-2.24,15.05-4.97,22.83-6.53,5.29-1.06,11.15-.71,16.31-2.07,4.2-1.11,6.55-4.09,10.26-6.01,25.09-12.91,59.78-12.92,87.39-12.78,6.98,.04,15.16-1.53,21.94,.39,9.25,2.61,18.24,9.17,27.64,12.41,8.79,3.02,16.57,6.47,23.38,12.74,7.69,7.09,14.01,17.24,23.3,22.22,17.95,9.61,36.95-.85,54.96-3.52,45.93-6.79,93.34-12.41,139.81-12.08,13.61,.09,27.66,1.1,41.23,.24,4.46-.28,8.66-1.06,12.87-1.79,4.96-.89,9.92-1.72,15.32-1.68,12.09,.1,25.81-1.52,37.85,.35,10.29,1.6,19.02,3.01,29.64,2.94,27.03-.17,53.26-1.22,79.62,6.31,19.53,5.57,39.76,10.32,60.21,14.23,24.15,4.62,48.57,8.08,72.44,10.39,21.64,2.1,49.75-5.95,67.96-17.94,21.79-14.34,51.01-15.41,76.99-16.34,30.91-1.11,57.77,12.01,87.16,19.64,35.14,9.11,70.38,9.53,106.45,9.51,14.07,0,25.56-1,38.77-5.54,18.29-6.27,48.36-4.56,64.75,7.72,4.07,3.04,5.84,7.42,9.51,10.25,4.23,3.27,5.43,2.47,9.74,4.5,5.06,2.37,5.99,1.6,9,5.39,1.76,2.21,1.77,5.07,3.34,7.53,.41,.64,.93,1.26,1.61,1.83,7.47,6.28,25.01,7.48,33.98,7,9.21-.49,18.18-3.07,27.07-5.85Z"/>
</svg>