<?xml version="1.0" encoding="UTF-8"?>
<svg id="Layer_2" data-name="Layer 2" xmlns="http://www.w3.org/2000/svg" viewBox="0 0 3840 1080">
  <path d="M510.18,580.31c-21.24-2.91-42.77-5.26-64.38-7.31,.23-2.86,.41-5.69,.52-8.45,.29-7.43,4.34-19.36,1.8-24.65-.31,2.45-.61,4.9-.92,7.35-.98-7.58,1.84-14.7,2.12-22.12-1.26-.16-1.89-.24-2.22-2.77-.61,4.9-.9,12.33-2.14,17.15l-1.89-.24c-.02-4.98,2.16-12.17,2.14-17.15-.63-.08-1.89-.24-2.52-.32-.63-.08-.32-2.53-.02-4.98-.31,2.45-.92,7.35-1.22,9.8-.63-.08-1.89-.24-2.52-.32-.63-.08-.33-2.53-.02-4.98-1.26-.16-2.22-2.77-3.15-.39-.31,2.45-.61,4.9-.92,7.35,.59-9.88-1.95-15.17-3.84-15.41,.32,2.53-1.57,2.3-1.24,4.82-.97-7.58-2.58-15.25-4.43-5.53-2.85,19.3-5.47,38.75-7.96,58.29-28.58-2.42-57.19-4.5-85.37-6.83-3.42,.28-1.87,1.72-2.01,2.99,6.71,.7,13.5,.77,18.4,2.56,1.68,.18-1.94,2.35-.4,3.8,1.68,.18,5.04,.53,6.72,.7,1.48,2.07-2.08,3.62-.59,5.69,1.48,2.07,8.33,1.51,9.88,2.95,4.91,1.79-3.56,1.55-8.59,1.02,1.55,1.44-3.36-.35-3.49,.91-.26,2.53-.53,5.06,5.99,7.65,1.61,.81-.26,2.53-.4,3.79,18.14,1.89,37.65,3.92,56.25,4-6.89,57.52-12.74,115.52-19,172.38,.02,4.98,1.59,2.68,2.85,2.84,1.22-9.79,1.82-19.67,4-26.86,.31-2.45,2.22,2.76,3.79,.47,.31-2.45,.92-7.35,1.23-9.8,2.2-2.21,3.48,2.93,5.68,.71,2.2-2.21,2.16-12.17,3.73-14.46,2.18-7.2,1.28,5.14,.36,12.48,1.57-2.29-.61,4.9,.65,5.06,2.52,.32,5.05,.63,8.16-8.93,.94-2.37,2.52,.32,3.78,.47,3.67-29.4,7.66-61.24,8.81-90.95,.62-13.1,2.71-27.48,4.68-41.75,10.69,1.3,21.53,2.84,31.3,2.64,5.1-.11,13.23,3.3,16.92,.49-1.68-.18-3.36-.35-5.04-.53,5.23-1.37,10.07,1.05,15.18,.94,.13-1.27,.2-1.9,1.95-2.35-3.36-.35-8.46-.24-11.76-1.23l.2-1.89c3.43-.28,8.33,1.51,11.76,1.23,.07-.63,.2-1.9,.26-2.53,.07-.63,1.75-.46,3.42-.28-1.68-.18-5.04-.53-6.72-.7,.07-.63,.2-1.9,.26-2.53,.07-.63,1.74-.46,3.43-.28,.13-1.26,1.94-2.35,.33-3.16-1.68-.18-3.36-.35-5.04-.53,6.78,.07,10.47-2.74,10.67-4.64-1.75,.46-1.55-1.44-3.29-.98,5.23-1.37,10.54-3.37,3.89-4.71Z"/>
  <path d="M713.83,630.89c-12.08,1-24.24,2.49-36.39,4.23-.13-1.52-.28-3.02-.45-4.5-.69-6.11,.73-16.38-1.7-20.38,.08,2.04,.16,4.08,.24,6.12-1.6-6.07-.47-12.25-1.16-18.35-.91,.04-1.36,.05-1.89-1.97,.16,4.08,.85,10.19,.55,14.29l-1.36,.05c-.61-4.07,.06-10.23-.55-14.29-.45,.02-1.36,.05-1.82,.07-.45,.02-.53-2.02-.61-4.06,.08,2.04,.24,6.13,.32,8.16-.45,.02-1.36,.05-1.81,.07-.45,.02-.53-2.02-.61-4.07-.91,.04-1.89-1.97-2.27,.09,.08,2.04,.16,4.08,.24,6.13-.77-8.15-3.2-12.14-4.56-12.09,.53,2.03-.83,2.08-.3,4.1-1.6-6.07-3.65-12.13-3.79-3.94,.31,15.8,.79,31.69,1.37,47.63-12.29,1.95-24.54,4.01-36.67,5.91-1.71,.67-.71,1.46-.59,2.36,3.52-.45,6.99-1.34,9.75-.78,.88-.11-.65,1.91,.34,2.7,.88-.11,2.64-.34,3.53-.45,1.05,1.24-.54,2.81,.51,4.05,1.05,1.24,4.46-.11,5.46,.68,2.76,.56-1.59,1.57-4.23,1.91,.99,.79-1.76,.22-1.65,1.12,.23,1.8,.46,3.6,4.15,4.51,.94,.34,.23,1.8,.34,2.7,6.46-.82,13.25-1.69,19.92-2.95,2.08,49.08,5.02,98.46,7.51,146.93,.61,4.07,1.44,1.98,2.35,1.95-.32-8.16-1.09-16.31-.42-22.47-.08-2.04,1.89,1.97,2.72-.11-.08-2.04-.24-6.13-.32-8.17,1.28-2.09,2.8,1.94,4.08-.16,1.28-2.09,.06-10.22,.89-12.3,.67-6.16,1.52,4.03,1.76,10.15,.83-2.07,.16,4.08,1.07,4.05,1.81-.07,3.63-.14,4.67-8.36,.38-2.06,1.82-.07,2.72-.11-.95-24.5-1.98-51.03-4.74-75.46-1.32-12.52-1.46-26.71-1.89-40.47,6.8-.87,14.06-1.11,20.13-2.95,2.59-.79,7.22,.46,8.7-2.02-.88,.11-1.76,.22-2.64,.34,2.47-1.69,5.29-.67,7.87-1.46-.11-.9-.17-1.35,.65-1.91-1.76,.22-4.35,1.01-6.17,.78l-.17-1.35c1.71-.68,4.46-.11,6.17-.78-.06-.45-.17-1.35-.23-1.8-.06-.45,.82-.56,1.7-.67-.88,.11-2.64,.34-3.52,.45-.06-.45-.17-1.35-.23-1.8-.06-.45,.82-.56,1.71-.68-.11-.9,.65-1.91-.29-2.25-.88,.11-1.76,.22-2.64,.34,3.47-.9,4.94-3.37,4.77-4.72-.83,.56-1-.79-1.82-.23,2.47-1.69,4.89-3.82,1.31-3.83Z"/>
  <path d="M1125.55,643.79c-23.11-3.81-46.55-7.17-70.09-10.3,1.02-5.6,1.97-11.09,2.77-16.4,1.45-9.61,6.39-25.12,5.43-31.91-.63,3.17-1.26,6.35-1.9,9.52,.56-9.78,3.79-19.04,5.24-28.65-.89-.18-1.34-.27-1.15-3.53-1.26,6.35-2.71,15.96-4.43,22.22l-1.33-.27c.82-6.44,3.61-15.78,4.43-22.22-.45-.09-1.34-.27-1.78-.36-.44-.09,.19-3.26,.82-6.43-.63,3.17-1.9,9.52-2.53,12.69-.44-.09-1.34-.27-1.78-.35-.45-.09,.19-3.26,.82-6.44-.89-.18-1.15-3.53-2.23-.44-.63,3.18-1.26,6.35-1.9,9.52,2.08-12.79,1.12-19.58-.21-19.85-.19,3.27-1.52,3-1.71,6.26,.56-9.79,.68-19.66-2.3-7.06-5.68,26.82-11.21,53.87-16.63,81.03-30.07-3.85-60.17-7.42-89.83-11.16-3.46-.03-1.89,1.11-2.01,2.01,6.79,.96,13.65,1.47,18.62,3.09,1.7,.24-1.95,1.56-.38,2.7,1.7,.24,5.1,.72,6.8,.96,1.51,1.59-2.08,2.46-.57,4.05,1.51,1.59,8.43,1.65,10,2.79,4.97,1.62-3.59,.87-8.68,.15,1.57,1.14-3.4-.48-3.53,.42-.25,1.8-.51,3.6,6.1,5.91,1.64,.69-.25,1.8-.38,2.7,19.31,2.73,40.12,5.65,59.8,6.88-15.48,78.41-30.17,157.62-44.97,235.2-.82,6.44,.71,3.43,1.6,3.61,2.53-12.69,4.61-25.47,7.4-34.82,.63-3.17,1.15,3.52,2.67,.53,.63-3.17,1.9-9.52,2.53-12.7,1.97-2.91,2.04,3.71,4.01,.8,1.97-2.91,3.6-15.78,5.13-18.77,2.79-9.35,.07,6.62-1.83,16.14,1.52-2.99-1.26,6.35-.37,6.53,1.78,.35,3.56,.71,7.43-11.72,1.08-3.09,1.78,.35,2.67,.53,7.59-38.09,15.8-79.35,21.61-117.79,3.18-20.42,8.22-43.28,12.7-65.39,12.58,1.83,25.66,4.26,37.24,4.86,5.16,.27,13.4,3.27,17.11,1.5-1.7-.24-3.4-.48-5.09-.72,5.29-.63,10.19,1.44,15.35,1.71,.13-.9,.19-1.35,1.96-1.56-3.4-.48-8.56-.75-11.89-1.68l.19-1.35c3.46,.03,8.43,1.65,11.89,1.68,.06-.45,.19-1.35,.25-1.8,.06-.45,1.76-.21,3.46,.03-1.7-.24-5.1-.72-6.8-.96,.06-.45,.19-1.35,.25-1.8,.06-.45,1.76-.21,3.46,.03,.13-.9,1.95-1.56,.32-2.25-1.7-.24-3.4-.48-5.1-.72,6.86,.51,10.58-1.26,10.77-2.6-1.76,.21-1.57-1.14-3.33-.93,5.29-.63,10.64-1.71,3.91-3.11Z"/>
  <path d="M217.32,542.09c-24.55,1.1-49.35,2.73-74.19,4.62-.38-4.65-.8-9.21-1.31-13.59-.99-8.59-.06-23.06-2.68-28.67,.18,2.87,.36,5.74,.53,8.61-1.89-8.53-1.07-17.23-2.05-25.82-.91,.06-1.36,.08-1.99-2.76,.36,5.75,1.34,14.33,1.24,20.11l-1.36,.08c-.81-5.72-.44-14.39-1.24-20.11-.45,.03-1.36,.08-1.81,.11-.45,.03-.63-2.85-.81-5.71,.18,2.87,.53,8.62,.71,11.49-.45,.03-1.36,.08-1.81,.11-.45,.03-.63-2.84-.81-5.72-.91,.06-1.99-2.76-2.27,.14,.18,2.88,.36,5.75,.53,8.62-1.17-11.46-3.79-17.07-5.15-16.99,.63,2.85-.73,2.93-.1,5.77-1.89-8.53-4.24-17.04-3.98-5.52,1.14,23.69,2.48,47.53,3.94,71.44-30.01,2.42-60,5.09-89.59,7.52-3.45,.69-1.64,1.48-1.58,2.38,6.95-.47,13.87-1.39,19.15-.83,1.74-.12-1.61,1.93,.18,2.72,1.74-.12,5.22-.35,6.96-.47,1.83,1.24-1.56,2.83,.27,4.08,1.83,1.24,8.72-.13,10.52,.66,5.28,.55-3.39,1.59-8.6,1.94,1.8,.79-3.48,.23-3.42,1.14,.12,1.81,.24,3.62,7.29,4.52,1.77,.34,.12,1.81,.18,2.72,19.45-1.31,40.38-2.73,59.93-5.52,4.52,70.84,10,142.16,14.97,212.12,.81,5.72,1.54,2.78,2.44,2.73-.71-11.48-1.88-22.95-1.5-31.62-.18-2.87,1.99,2.76,2.72-.17-.18-2.87-.53-8.62-.71-11.5,1.18-2.95,2.9,2.71,4.08-.25,1.18-2.95-.44-14.39,.29-17.32,.37-8.68,1.71,5.66,2.25,14.28,.73-2.93,.36,5.75,1.26,5.69,1.81-.11,3.63-.22,4.27-11.8,.28-2.9,1.81-.11,2.72-.17-2.13-34.47-4.44-71.82-8.39-106.17-1.97-17.95-2.78-38.34-3.91-58.04,13.28-.88,27.32-1.18,39.35-3.04,5.19-.8,14,.43,17.32-2.07-1.74,.12-3.48,.23-5.21,.35,5.12-1.71,10.43-.7,15.61-1.5-.06-.91-.09-1.36,1.62-1.93-3.48,.23-8.66,1.04-12.17,.82l-.09-1.36c3.45-.69,8.72-.13,12.17-.82-.03-.45-.09-1.36-.12-1.81-.03-.45,1.71-.57,3.45-.69-1.74,.12-5.22,.35-6.95,.47-.03-.45-.09-1.36-.12-1.81-.03-.45,1.71-.57,3.45-.69-.06-.91,1.62-1.93-.15-2.26-1.74,.12-3.48,.23-5.22,.35,6.92-.92,10.25-3.42,10.16-4.78-1.71,.57-1.8-.79-3.51-.22,5.12-1.71,10.22-3.87,3.23-3.86Z"/>
  <path d="M1563.9,745.3c-20.79-4.8-41.9-9.09-63.13-13.1,1.23-5.39,2.34-10.68,3.25-15.8,.19-1.09,.46-2.25,.76-3.47,13.61,.19,27.2,.21,40.62,.41,1.8-.4,.95-1.4,1-2.36-3.56-.16-7.15,.16-9.78-.92-.89-.04,.98-1.88,.13-2.89-.89-.04-2.67-.12-3.57-.16-.83-1.48,1.02-2.84,.2-4.32-.83-1.48-4.43-.68-5.28-1.68-2.63-1.08,1.85-1.36,4.52-1.24-.85-1,1.78,.08,1.83-.88,.09-1.92,.17-3.85-3.33-5.45-.87-.52,.09-1.92,.13-2.88-6.85-.31-14.07-.63-21.2-.45-.03-.68-.09-1.32-.22-1.9-.16,.64-.32,1.28-.48,1.92-.27,0-.53,.02-.8,.03,1.29-6.36,3.75-12.44,4.88-18.84-1.17-.29-1.75-.44-1.64-3.38-1.4,5.58-2.9,14.1-4.89,19.54l-1.75-.44c.81-5.73,4.07-13.81,4.89-19.54-.58-.15-1.75-.44-2.34-.58-.58-.15,.12-2.94,.81-5.73-.7,2.79-2.09,8.37-2.79,11.16-.58-.15-1.75-.44-2.33-.58-.58-.15,.11-2.93,.81-5.73-1.17-.29-1.64-3.37-2.92-.73-.7,2.79-1.4,5.58-2.09,8.37,2.21-11.31,.69-17.62-1.06-18.06-.11,2.94-1.87,2.5-1.98,5.44,.34-8.81,.1-17.77-3.27-6.75-3.25,12.08-6.45,24.22-9.6,36.4-4.7-.34-9.38-.63-13.65-.06-2.7,.36-7.06-1.76-8.95,.56,.89,.04,1.78,.08,2.67,.12-2.74,1.32-5.35-.24-8.04,.12-.04,.96-.07,1.44-.98,1.88,1.78,.08,4.48-.28,6.24,.28l-.07,1.44c-1.81,.4-4.43-.68-6.24-.28-.02,.48-.07,1.44-.09,1.92-.02,.48-.91,.44-1.8,.4,.89,.04,2.67,.12,3.56,.16-.02,.48-.07,1.44-.09,1.92-.02,.48-.91,.44-1.8,.4-.04,.96-.98,1.88-.11,2.4,.89,.04,1.78,.08,2.67,.12-3.59,.32-5.48,2.64-5.54,4.08,.91-.44,.85,1,1.76,.56-2.74,1.32-5.5,3.12-1.96,3.76,8.89,.82,17.88,1.35,26.9,1.72-1.27,5.01-2.54,10.03-3.8,15.05-28.19-5.06-56.44-9.79-84.25-14.72-3.4-.06-1.99,1.44-2.22,2.62,6.55,1.3,13.23,2.01,17.92,4.17,1.64,.33-2.11,2.03-.7,3.54,1.64,.33,4.92,.98,6.56,1.3,1.29,2.09-2.34,3.21-1.05,5.31,1.29,2.09,8.08,2.22,9.49,3.72,4.69,2.16-3.63,1.12-8.55,.14,1.4,1.51-3.28-.65-3.51,.53-.47,2.36-.94,4.72,5.27,7.79,1.52,.92-.47,2.36-.7,3.54,17.71,3.52,36.74,7.29,55.05,9.14-16.07,65.43-31.23,131.5-46.59,196.24-.81,5.73,1.05,3.22,2.22,3.51,2.79-11.16,5-22.47,8.26-30.55,.7-2.79,1.64,3.37,3.5,.88,.7-2.79,2.09-8.37,2.79-11.17,2.45-2.35,2.8,3.67,5.25,1.31,2.45-2.35,4.07-13.81,5.94-16.31,3.26-8.09,.35,6.02-1.74,14.39,1.86-2.5-1.4,5.58-.23,5.87,2.33,.58,4.67,1.17,9.21-9.56,1.28-2.65,2.33,.58,3.5,.88,8.37-33.49,17.44-69.78,23.48-103.85,2.77-15.01,7.14-31.36,11.38-47.59,10.82,2.32,21.82,4.97,31.83,5.74,5.04,.39,12.77,4.38,16.63,2.08-1.64-.33-3.28-.65-4.92-.98,5.27-.79,9.84,1.95,14.87,2.34,.23-1.18,.35-1.77,2.11-2.03-3.28-.65-8.32-1.04-11.48-2.28l.35-1.77c3.4,.06,8.08,2.22,11.48,2.28,.12-.59,.35-1.77,.47-2.36,.12-.59,1.76-.26,3.4,.06-1.64-.33-4.92-.98-6.56-1.3,.12-.59,.35-1.77,.47-2.36,.12-.59,1.76-.27,3.4,.06,.23-1.18,2.11-2.03,.59-2.95-1.64-.33-3.28-.65-4.92-.98,6.68,.71,10.54-1.59,10.89-3.35-1.76,.26-1.41-1.51-3.16-1.24,5.27-.79,10.66-2.18,4.22-4.07Z"/>
  <path d="M1093.15,765.91c1.47-1.81,2.83-3.62,3.05-4.98-.66,.88-1.32,1.76-1.97,2.64,1.43-3.04,3.95-5.27,5.74-8.05-.36-.27-.55-.41-.07-1.42-1.32,1.76-3.11,4.53-4.61,6.15l-.54-.41c1.14-1.9,3.47-4.26,4.61-6.15-.18-.14-.55-.41-.73-.54-.18-.14,.48-1.02,1.14-1.89-.66,.88-1.98,2.64-2.63,3.52-.18-.14-.55-.41-.73-.54-.18-.14,.48-1.01,1.14-1.89-.36-.27-.07-1.42-.91-.68-.66,.88-1.32,1.76-1.98,2.64,2.45-3.65,2.86-6.09,2.32-6.5-.48,1.02-1.02,.61-1.5,1.62,1.43-3.05,2.68-6.23-.14-2.85-3.39,4.36-6.76,8.76-10.12,13.19-5.57-4.28-11.17-8.51-16.66-12.75-.92-.46-.82,.21-1.1,.57,1.55,1.26,3.25,2.35,4.13,3.65,.39,.32-.96,.39-.86,1.06,.39,.32,1.17,.95,1.55,1.26-.04,.84-1.25,.74-1.29,1.58-.04,.84,1.8,1.76,1.9,2.42,.88,1.3-1.21-.1-2.37-1.05,.1,.67-.78-.63-1.06-.28-.57,.7-1.15,1.41-.02,3.2,.25,.49-.57,.7-.86,1.06,3.22,2.62,6.63,5.38,10.15,7.86-17.81,23.72-35.32,48.1-52.64,71.81-1.14,1.89-.11,1.29,.25,1.56,2.63-3.51,5.08-7.17,7.42-9.53,.66-.88,.07,1.42,1.09,.82,.66-.88,1.98-2.64,2.64-3.52,1.2-.47,.43,1.7,1.64,1.22,1.2-.47,3.47-4.26,4.5-4.87,2.34-2.37-.77,2.17-2.75,4.8,1.02-.61-1.32,1.76-.95,2.03,.73,.54,1.45,1.09,4.63-2.02,.84-.74,.73,.54,1.09,.82,7.9-10.55,16.46-21.98,23.64-33.07,5.15-7.84,12.25-16.29,17.91-24.28,3.01,2.44,5.98,5.29,9.06,7.11,1.31,.77,2.68,3.06,4.17,2.81-.39-.32-.78-.63-1.16-.95,1.59,.42,2.33,1.9,3.64,2.67,.29-.35,.43-.53,.96-.39-.78-.63-2.09-1.4-2.72-2.21l.43-.53c.92,.46,1.8,1.76,2.72,2.21,.14-.18,.43-.53,.57-.7,.14-.18,.53,.14,.92,.46-.39-.32-1.17-.95-1.55-1.26,.14-.18,.43-.53,.57-.7,.14-.18,.53,.14,.92,.46,.29-.35,.96-.39,.72-.88-.39-.32-.78-.63-1.17-.95,1.7,1.09,3.19,.84,3.62,.31-.53-.14-.1-.67-.63-.81,1.6,.42,3.33,.66,1.92-.78-5.48-4.83-11.21-9.49-17.02-14.06Z"/>
  <path d="M2178.48,758.82c-1.49,.46-4.48,1.37-5.97,1.83-.17-.56-.52-1.69-.69-2.26-.17-.57,1.32-1.02,2.81-1.48-.35-1.13,.8-2.71-.86-2.82-1.49,.46-2.98,.92-4.48,1.37,5.79-2.4,7.91-6.13,7.39-7.82-1.32,1.02-1.84-.67-3.16,.35,3.95-3.07,7.74-6.7,1.6-5.43-20.39,5.54-40.82,11.74-61.22,18.25-1.31-3.89-2.65-7.68-4.06-11.3-2.82-7.24-4.32-20.27-8.64-24.34,.75,2.47,1.5,4.94,2.25,7.4-3.95-6.89-4.51-14.81-7.33-22.04-1.13,.34-1.69,.52-3.01-1.78,1.5,4.94,4.32,12.17,5.26,17.28l-1.69,.52c-2.07-4.77-3.19-12.52-5.26-17.28-.57,.17-1.7,.52-2.26,.69-.56,.17-1.32-2.3-2.07-4.76,.75,2.47,2.25,7.41,3.01,9.87-.56,.17-1.69,.52-2.26,.69-.57,.17-1.32-2.29-2.07-4.77-1.13,.34-3.01-1.78-2.82,.86,.75,2.47,1.5,4.94,2.25,7.41-3.57-9.7-7.9-13.78-9.59-13.27,1.32,2.3-.38,2.82,.94,5.11-3.95-6.89-8.46-13.61-6.02-3.56,5.79,20.45,11.84,40.96,18.07,61.51-23.83,7.86-47.57,15.95-71.07,23.72-2.81,1.48-.97,2.15-.62,3.28,5.96-1.83,11.76-4.22,16.58-4.47,1.49-.46-.8,2.71,1.04,3.39,1.49-.46,4.48-1.37,5.97-1.83,2.01,1.23-.46,3.84,1.56,5.08,2.01,1.24,7.63-1.72,9.47-1.05,4.82-.25-2.46,2.61-6.94,3.98,1.84,.67-2.98,.92-2.64,2.04,.69,2.26,1.38,4.52,7.87,4.38,1.67,.11,.69,2.26,1.04,3.39,14.95-4.59,30.93-9.51,45.82-15.52,17.95,58.04,36.99,116.14,55.21,173.3,2.07,4.77,2.44,1.95,3.57,1.6-3-9.87-6.58-19.57-7.7-27.32-.75-2.47,3.01,1.78,3.39-1.03-.75-2.47-2.25-7.41-3.01-9.88,.94-2.98,4.14,1.44,5.08-1.55,.94-2.98-3.19-12.51-2.81-15.33-1.13-7.76,3.2,4.42,5.45,11.83,.38-2.81,1.5,4.94,2.63,4.59,2.26-.69,4.52-1.38,3.21-11.76-.19-2.64,2.26-.69,3.39-1.03-9.02-29.63-18.79-61.72-30.06-90.66-4.91-12.88-9.09-27.58-13.33-42.12,10.64-3.15,21.81-5.92,31.05-10.08,4.3-1.94,12.45-1.97,14.57-5.7-1.49,.46-2.98,.91-4.47,1.37,3.95-3.07,8.95-2.74,13.25-4.68-.35-1.13-.52-1.69,.8-2.72-2.98,.92-7.28,2.85-10.44,3.2l-.52-1.69c2.81-1.48,7.63-1.72,10.44-3.2-.17-.57-.52-1.69-.69-2.26-.17-.56,1.32-1.02,2.81-1.48Z"/>
  <path d="M2542.64,706.21c-21.69,5.55-43.49,11.64-65.28,17.97-.61-3.37-1.25-6.68-1.95-9.86-1.52-6.91-1.5-18.82-4.45-23.13,.36,2.33,.71,4.65,1.07,6.98-2.41-6.77-2.13-13.96-3.65-20.87-.9,.14-1.35,.21-2.15-2.06,.71,4.66,2.23,11.57,2.49,16.29l-1.35,.21c-1.16-4.59-1.33-11.71-2.49-16.29-.45,.07-1.35,.21-1.8,.27-.45,.07-.8-2.26-1.16-4.58,.36,2.33,1.07,6.98,1.42,9.31-.45,.07-1.35,.21-1.79,.27-.45,.07-.81-2.26-1.16-4.59-.9,.14-2.15-2.05-2.24,.34,.36,2.33,.71,4.66,1.07,6.98-1.87-9.24-4.83-13.56-6.17-13.35,.81,2.26-.54,2.47,.26,4.72-2.41-6.77-5.28-13.48-4.3-4.11,2.67,19.67,5.55,39.45,8.57,59.27-27.51,8.16-54.94,16.57-82.05,24.66-3.04,1.33-1.21,1.76-.96,2.63,6.32-1.78,12.51-3.99,17.5-4.45,1.58-.44-1.09,2.19,.74,2.62,1.58-.44,4.74-1.33,6.32-1.78,1.95,.87-.84,3.07,1.11,3.93,1.95,.87,8.02-1.79,9.85-1.36,4.99-.46-2.79,2.2-7.53,3.53,1.82,.43-3.16,.89-2.91,1.76,.49,1.75,.98,3.5,7.67,3.03,1.7,0,.49,1.75,.74,2.62,17.2-4.84,35.68-10.06,52.75-16.27,8.68,55.6,18.25,111.44,27.25,166.29,1.16,4.59,1.7,2.12,2.6,1.98-1.42-9.3-3.29-18.55-3.46-25.66-.36-2.33,2.15,2.05,2.69-.41-.36-2.33-1.07-6.98-1.42-9.31,.99-2.53,3.05,1.92,4.04-.62,.99-2.53-1.33-11.7-.79-14.17-.17-7.13,2.06,4.45,3.12,11.43,.54-2.46,.71,4.66,1.61,4.52,1.79-.27,3.59-.55,3.51-10.06,.09-2.4,1.8-.27,2.69-.41-4.27-27.93-8.89-58.18-14.95-85.83-2.9-13.64-4.91-29.16-7.11-44.29,12.09-3.4,25.01-6.35,35.75-10.47,4.62-1.77,13.01-2.24,15.55-5.32-1.58,.44-3.16,.89-4.74,1.33,4.37-2.65,9.48-2.67,14.1-4.44-.25-.87-.37-1.31,1.09-2.19-3.16,.89-7.78,2.66-11.06,3.11l-.37-1.31c3.04-1.33,8.02-1.79,11.06-3.11-.12-.44-.37-1.31-.49-1.75-.12-.44,1.46-.88,3.04-1.33-1.58,.44-4.74,1.33-6.32,1.78-.12-.44-.37-1.31-.49-1.75-.12-.44,1.46-.88,3.04-1.33-.25-.87,1.09-2.19-.61-2.18-1.58,.45-3.16,.89-4.74,1.33,6.2-2.22,8.74-5.29,8.38-6.6-1.46,.88-1.83-.43-3.28,.45,4.37-2.64,8.62-5.73,2.18-4.38Z"/>
  <path d="M2969.86,806.69c-.69-1.51-2.07-4.53-2.77-6.05-.07-1.79,1.93,.95,1.86-.85-.07-1.79-3.25-7.65-3.53-9.35-1.66-4.73,2,2.74,4.08,7.27-.28-1.7,1.38,3.02,1.8,2.83,.83-.38,1.65-.76-.49-7.08-.48-1.61,.83-.38,1.24-.57-8.3-18.14-17.29-37.78-26.41-55.54-5.7-11.21-11.36-24.63-17.04-36.85,6.91-4.66,14.5-9.29,20.53-14,2.49-1.94,7.34-4.1,8.45-6.21-.87,.58-1.74,1.17-2.61,1.75,2.23-2.31,5.22-3.5,7.71-5.44-.25-.38-.38-.57,.37-1.34-1.74,1.17-4.23,3.1-6.09,4.08l-.38-.57c1.62-1.36,4.48-2.73,6.09-4.08-.13-.19-.38-.57-.51-.75-.13-.19,.74-.77,1.61-1.35-.87,.58-2.61,1.75-3.48,2.33-.13-.19-.38-.57-.51-.75-.13-.19,.74-.77,1.61-1.36-.25-.38,.37-1.34-.63-.94-.87,.58-1.74,1.17-2.61,1.75,3.36-2.52,4.46-4.63,4.09-5.2-.74,.77-1.12,.21-1.87,.98,2.23-2.32,4.34-4.82,.73-2.67-12.33,7.94-24.66,16.18-36.95,24.54-.35-.7-.71-1.41-1.06-2.1-2.28-4.44-4.91-12.37-7.33-14.92,.69,1.51,1.38,3.02,2.07,4.53-2.69-4.25-4.15-9.07-6.43-13.5-.41,.19-.62,.28-1.52-1.14,1.38,3.02,3.66,7.46,4.84,10.58l-.62,.28c-1.59-2.93-3.25-7.65-4.84-10.58-.21,.09-.62,.28-.83,.38-.21,.09-.9-1.42-1.59-2.93,.69,1.51,2.07,4.53,2.77,6.04-.21,.09-.62,.28-.83,.38-.21,.09-.9-1.42-1.59-2.93-.41,.19-1.52-1.13-1.03,.47,.69,1.51,1.38,3.02,2.07,4.53-2.97-5.95-5.39-8.5-6.01-8.22,.9,1.42,.28,1.7,1.18,3.12-2.69-4.25-5.59-8.41-3.03-2.27,5.01,11.31,10.14,22.66,15.32,34.02-15.6,10.69-31.12,21.51-46.49,32.08-1.61,1.36-.49,1.15-.24,1.53,3.48-2.33,6.83-4.85,9.7-6.23,.87-.58-.36,1.34,.76,1.13,.87-.58,2.61-1.75,3.48-2.33,1.25-.02-.11,1.71,1.14,1.7,1.25-.02,4.48-2.73,5.6-2.93,2.87-1.37-1.36,1.73-3.97,3.48,1.12-.21-1.74,1.17-1.49,1.54,.51,.75,1.01,1.51,4.87-.26,1-.39,.51,.75,.76,1.13,9.95-6.67,20.67-13.86,30.26-21.23,17.82,38.9,36.31,77.94,54.21,116.28,1.59,2.93,1.31,1.22,1.72,1.04-2.76-6.04-5.74-11.99-7.4-16.71-.69-1.51,1.52,1.13,1.24-.57Z"/>
  <path d="M3056.5,648.29c-11.98,3.16-24.03,6.66-36.06,10.28,.13-1.52,.14-2.85-.11-3.79-.16,1.32-.32,2.64-.48,3.96-.01,0-.02,0-.03,.01-.1-4.23,1.04-8.32,1.33-12.51-.45-.05-.68-.08-.73-1.53-.35,2.84-.64,7.11-1.21,9.92l-.68-.08c.12-2.86,1.09-7.06,1.21-9.92-.23-.03-.68-.08-.9-.11-.23-.03-.05-1.45,.12-2.86-.17,1.42-.52,4.25-.69,5.67-.23-.03-.68-.08-.9-.11-.23-.03-.05-1.44,.12-2.86-.45-.05-.73-1.53-1.13-.14-.17,1.42-.35,2.84-.52,4.25,.47-5.7-.31-8.67-.99-8.75,.05,1.45-.62,1.36-.57,2.81-.16-4.33-.54-8.7-1.46-3.06-1,7.39-1.97,14.83-2.92,22.29-12.22,3.75-24.4,7.56-36.45,11.26-1.51,.67-.59,.88-.47,1.32,3.14-.91,6.22-2.04,8.7-2.28,.79-.23-.53,1.1,.38,1.31,.79-.23,2.36-.68,3.14-.91,.97,.43-.41,1.54,.57,1.96,.97,.43,3.99-.92,4.9-.71,2.48-.25-1.38,1.11-3.74,1.79,.91,.21-1.57,.45-1.44,.89,.25,.87,.5,1.74,3.83,1.49,.85,0,.25,.87,.38,1.31,6.08-1.76,12.49-3.62,18.73-5.68-4.77,38.7-8.94,77.93-13.26,116.29-.12,2.86,.5,1.5,.95,1.55,.69-5.67,1.16-11.36,2.13-15.56,.17-1.42,.73,1.52,1.35,.16,.17-1.42,.52-4.25,.69-5.67,.85-1.33,1.18,1.58,2.03,.25,.85-1.33,1.09-7.06,1.71-8.42,.97-4.2,.33,2.92-.19,7.17,.62-1.36-.35,2.84,.1,2.89,.9,.11,1.8,.22,3.17-5.37,.4-1.39,.9,.11,1.35,.16,2.07-17.01,4.32-35.44,5.49-52.55,1.03-14.01,4-30.7,5.03-44.68,7.59-2.82,17.1-4.62,24.51-7.53,2.29-.9,6.47-1.16,7.73-2.71-.78,.23-1.57,.45-2.35,.68,2.17-1.34,4.71-1.36,7-2.26-.13-.44-.19-.65,.53-1.1-1.57,.45-3.86,1.35-5.5,1.59l-.19-.65c1.51-.67,3.99-.92,5.5-1.59-.06-.22-.19-.65-.25-.87-.06-.22,.72-.45,1.51-.67-.78,.23-2.36,.68-3.14,.91-.06-.22-.19-.65-.25-.87-.06-.22,.72-.45,1.51-.67-.13-.44,.53-1.1-.32-1.09-.79,.23-1.57,.45-2.36,.68,3.08-1.13,4.33-2.67,4.14-3.33-.72,.45-.91-.21-1.63,.24,2.17-1.34,4.27-2.89,1.07-2.2Z"/>
  <path d="M3155.05,624.38c-.73,.39-2.19,1.17-2.92,1.56-.11-.2-.32-.6-.43-.8-.11-.2,.62-.59,1.36-.98-.21-.4,.3-1.19-.53-1-.73,.39-1.46,.78-2.19,1.17,2.82-1.76,3.75-3.54,3.43-4.14-.62,.59-.95-.01-1.57,.58,1.87-1.77,3.64-3.74,.61-2.38-12.12,6.09-24.24,12.58-36.3,19.19-.07-1.53-.15-3.03-.26-4.5-.29-3.97,.52-10.6-.65-13.23,.02,1.32,.04,2.65,.06,3.97-.74-3.96-.12-7.94-.4-11.91-.45,0-.68,.01-.93-1.31,.04,2.65,.33,6.61,.14,9.27h-.68c-.27-2.64,.13-6.61-.14-9.26-.23,0-.68,.01-.91,.01-.23,0-.25-1.32-.27-2.64,.02,1.32,.06,3.97,.08,5.29-.23,0-.68,.01-.91,.01-.23,0-.25-1.32-.27-2.64-.45,0-.93-1.31-1.13,.02,.02,1.33,.04,2.65,.06,3.97-.31-5.29-1.48-7.92-2.16-7.91,.25,1.32-.43,1.33-.19,2.65-.74-3.96-1.71-7.92-1.85-2.62,0,12.06,.12,24.2,.3,36.39-10.31,5.71-20.57,11.46-30.75,17.08-1.36,.98-.41,.99-.2,1.39,2.92-1.55,5.74-3.31,8.15-4.08,.73-.39-.3,1.19,.64,1.2,.73-.39,2.19-1.17,2.93-1.56,1.05,.21-.09,1.59,.96,1.8,1.05,.21,3.76-1.74,4.7-1.73,2.41-.77-1.14,1.38-3.33,2.55,.94,.01-1.46,.78-1.25,1.18,.43,.8,.85,1.6,4.1,.65,.84-.19,.43,.8,.64,1.2,4.44-2.36,9.06-4.82,13.63-7.39,.57,30.61,1.51,61.39,2.26,91.6,.27,2.64,.7,1.31,1.16,1.3-.08-5.29-.39-10.58,0-14.56-.02-1.32,.93,1.31,1.36-.02-.02-1.32-.06-3.97-.08-5.3,.66-1.33,1.38,1.3,2.04-.03,.66-1.33,.13-6.62,.56-7.95,.39-3.98,.72,2.64,.78,6.61,.43-1.33,.04,2.65,.49,2.64,.91-.01,1.82-.03,2.42-5.33,.21-1.33,.91-.01,1.36-.02-.24-15.88-.49-33.09-1.64-48.96-.54-8.06-.47-17.16-.55-26,.95-.59,1.89-1.19,2.81-1.8,6.99-4.49,16.29-8.33,23.18-12.85,2.09-1.37,6.17-2.51,7.1-4.29-.73,.39-1.46,.78-2.19,1.17,1.87-1.77,4.39-2.33,6.47-3.7-.21-.4-.32-.6,.31-1.19-1.46,.78-3.55,2.15-5.12,2.72l-.32-.6c1.36-.98,3.76-1.75,5.12-2.72-.11-.2-.32-.6-.43-.8-.11-.2,.62-.59,1.35-.98Z"/>
  <path d="M3584.07,479.28c2.5-1.47,6.84-2.2,9.34-3.67-.17-.42-.5-1.27-.66-1.69-.17-.42,1.17-.95,2.5-1.47-1.33,.52-4,1.57-5.34,2.1-.17-.42-.5-1.27-.66-1.69-.17-.42,1.17-.95,2.5-1.47-.33-.84,.67-2.21-.83-2.11-1.34,.53-2.67,1.05-4,1.57,5.17-2.52,7.01-5.68,6.51-6.95-1.17,.95-1.67-.32-2.84,.63,3.5-2.84,6.84-6.1,1.34-4.43-20.16,7.3-40.35,15.23-60.48,23.42-.18-3.46-.4-6.84-.68-10.12-.63-7.22,.89-19.31-1.5-24.08,.06,2.41,.12,4.82,.18,7.23-1.54-7.19-.36-14.46-.99-21.68-.91,.02-1.36,.03-1.88-2.37,.12,4.82,.75,12.04,.41,16.87l-1.36,.03c-.57-4.81,.16-12.06-.42-16.87-.45,.01-1.36,.03-1.82,.04-.45,.01-.51-2.4-.57-4.81,.06,2.41,.18,7.23,.24,9.64-.45,.01-1.36,.03-1.81,.04-.45,.01-.51-2.4-.57-4.81-.91,.02-1.87-2.37-2.27,.06,.06,2.41,.12,4.82,.18,7.23-.69-9.63-3.08-14.4-4.44-14.36,.51,2.4-.85,2.44-.33,4.83-1.54-7.2-3.53-14.38-3.75-4.73,.18,21.92,.59,44.01,1.14,66.16-20.2,8.37-40.3,16.87-60.23,25.11-2.5,1.47-.83,1.79-.5,2.64,5.33-2.1,10.51-4.62,14.84-5.34,1.33-.52-.67,2.21,1,2.54,1.33-.52,4-1.57,5.34-2.1,1.83,.74-.34,3.06,1.49,3.8,1.83,.74,6.84-2.2,8.5-1.88,4.34-.73-2.17,2.32-6.17,3.89,1.67,.32-2.67,1.05-2.34,1.89,.66,1.69,1.33,3.38,7.16,2.55,1.5-.1,.66,1.69,1,2.54,9.93-3.9,20.37-8.01,30.53-12.46,1.6,55.51,3.94,111.31,5.88,166.1,.57,4.81,1.42,2.37,2.33,2.35-.24-9.63-.93-19.27-.2-26.52-.06-2.41,1.87,2.36,2.72-.07-.06-2.41-.18-7.23-.24-9.64,1.3-2.44,2.78,2.35,4.08-.1,1.3-2.44,.16-12.06,1.01-14.49,.73-7.26,1.48,4.79,1.66,12.02,.85-2.43,.12,4.82,1.03,4.8,1.82-.04,3.63-.09,4.76-9.76,.4-2.42,1.82-.04,2.72-.07-.71-28.92-1.48-60.25-4.01-89.13-1.14-14-1.2-29.74-1.46-45.15,12.54-5.97,28.28-10.36,40.27-16.6,3.84-2,11.17-2.93,13.01-6.09-1.33,.52-2.67,1.05-4,1.57,3.5-2.84,8.01-3.15,11.84-5.14-.33-.85-.5-1.27,.67-2.22-2.67,1.05-6.51,3.04-9.34,3.67l-.5-1.27Z"/>
  <path d="M3840,615.77v464.23H0v-464.23c27.44,.02,42.37,6.78,55.33,10.27,20.28,5.49,11.36,10.08,31.86,15.1,13.27,3.24,25.57,8.56,38.6,12.43,1.59,.47,3.16,.99,4.72,1.55,9.44,3.37,18.45,8.04,28.14,10.38,8.31,2.02,16.95,.97,25.07,3.56,1.26,.4,2.53,.79,3.81,1.16,7.45,2.2,15.14,4.04,22.43,6.5,10.33,3.49,18.08,10.8,29.26,12.75,4.17,.73,8.28,1.45,12.41,2.04,6.08,.88,12.18,1.49,18.49,1.45,12.24-.07,24.48,.05,36.72-.06,14.11-.14,25.87,6.53,39.53,6.6,15.2,.09,28.75,3.26,43.56,6.4,16.2,3.43,32.01,3.23,48.43,3.19,10.65-.02,19.68,2.84,30,3.34,12.03,.59,24.28-.12,36.34-.12,22.28,0,45.68-.41,67.04,5.57,9.93,2.77,19.33,3.14,28.33,6.71,1.58,.62,3.15,1.35,4.71,2.2,6.9,3.78,13.32,4.83,21.03,6.47,1.32,.28,2.56,.64,3.76,1.06,5.24,1.8,9.55,4.64,14.95,6.37,5.3,1.71,10.42,1.54,15.7,3.7,5.16,2.13,9.34,5.75,14.42,7.91,15.14,6.42,30.42,9.24,46.37,13.17,6.19,1.52,11.7,4.29,17.78,6.13,10.71,3.24,22.33,3.91,33.32,6.07,20.61,4.07,40.79,6.75,61.27,12.1,8.32,2.17,17.07,4.37,25.58,5.65,7.55,1.13,14.22,.49,21.24,3.85,10.61,5.09,21.53,8.44,33.44,9.93,10.95,1.36,23.34-.18,34.48-.17,8.62,0,17.58-.78,26.16-.17,9.26,.66,17.86,3.12,27.27,3.36,16.43,.43,35.13,5.07,50.78,10.41,13.72,4.68,26.97,6.9,41.14,9.77,12.85,2.6,25.7,5.73,38.59,8.23,8.69,1.68,17.57-.01,26.31,.91,7.53,.8,15.56,2.09,22.99,3.67,11.4,2.43,25.15,5.52,35.67,10.16,10.88,4.81,19.34,5.23,31.18,5.24,12.37,.01,23.53,.18,35.71,2.51,11.59,2.21,23.74-1.15,35.2,1.43,11.84,2.67,22.84,2.51,35.24,2.51h68.91c38.14,0,77.44-3.2,114.85,5.12,34.26,7.62,68.74,16.84,103.4,22.28,18.56,2.91,36.86,10.62,55.69,11.44,19.67,.86,37.75,.4,57.33,3.88,17.7,3.15,35.39,6.45,52.88,10.56,13.69,3.21,28.4,7.86,42.44,8.06,36.94,.52,73.58,9.84,110.66,12.53,16.04,1.16,34.71,2.03,50.73-.44,24.43-3.76,48.98-1.97,73.55-4.94,22.51-2.71,45.1-4.78,67.6-7.63,11.7-1.48,24.66-1.65,35.85-4.45,11.11-2.78,22.51-3.4,33.84-6.68,14.07-4.08,27.82-8.38,42.38-10.33,16.31-2.17,32.03-3.62,47.7-9.05,9.14-3.17,17.02-9.11,26.17-12.03,8.67-2.77,17.81-1.93,26.73-2.12,23.95-.51,48.75-5.8,72.17-10.64,6.14-1.27,13.25-1.15,19.2-2.97,6.91-2.12,12.44-6.05,19.89-7.55,18.57-3.72,37.71-3.86,56.26-7.86,21.87-4.71,44.88-6.54,66.34-13,20.64-6.22,42.27-6.79,62.9-14.52,21.04-7.88,43.04-14.28,65.43-17.05,12.05-1.49,24.17-2.91,36.28-3.78,12.51-.9,23.8-5.17,36.07-7.43,20.61-3.79,41.42-7.8,61.76-12.78,10.11-2.47,18.46-4.77,28.8-6.09,7.5-.97,14.9-1.87,22.38-2.71,24.13-2.7,47.5-5.62,69.85-16.02,8.67-4.03,17.53-5.87,26.19-8.26,7.72-2.12,15.28-4.68,22.4-9.62,15.73-10.9,32.7-12.96,51.1-17.7,30.28-7.79,61.33-12.27,91.96-18.76,5.71-1.21,11.41-2.49,17.09-3.88,4.63-1.13,9.09-2.54,13.47-4.06,12.99-4.53,25.29-10.14,39.19-12.86,10.76-2.11,20.93-5.53,31.2-9.18,15.28-5.44,30.34-6.46,45.92-10.06,16.95-3.91,32.82-11.64,49.35-16.73,18.46-5.67,37.27-10.15,55.57-16.15,8.14-2.66,16.96-2.16,25.43-3.77,14.93-2.83,29.85-5.6,45-7.13,20.69-2.09,40.96,1.4,61.29-3.65,22.97-5.7,45.92-12.75,69.47-15.71,19.71-2.47,39.79-4.22,59.61-6.36,14.27-1.54,28.59,.5,42.8-.88,10.76-1.04,25.45,5.63,36.04,3.48,14.96-3.04,24.45,16.19,74.52,16.19Z"/>
</svg>