<?xml version="1.0" encoding="UTF-8"?>
<svg id="Layer_3" data-name="Layer 3" xmlns="http://www.w3.org/2000/svg" viewBox="0 0 3840 1080">
  <path d="M2006.48,632.63c9.29-2.57,23.81-1.68,33.09-4.24-.17-1.35-.52-4.06-.69-5.41-.17-1.35,4.55-1.96,9.28-2.56-4.72,.6-14.18,1.82-18.9,2.42-.17-1.35-.52-4.05-.69-5.4-.17-1.35,4.55-1.96,9.28-2.56-.35-2.7,4.04-6.01-.86-6.75-4.73,.61-9.45,1.21-14.18,1.82,18.74-3.77,27.33-11.74,26.81-15.79-4.56,1.96-5.08-2.1-9.63-.14,13.66-5.87,27.15-13.09,8.07-12.02-62.86,6.49-126.22,14.42-189.66,23.07-1.7-18.94-3.63-37.38-5.99-54.93-3.29-24.42-1.06-65.72-9.14-81.53,.64,8.17,1.28,16.34,1.93,24.51-6-24.19-3.85-49.04-7.14-73.46-2.72,.21-4.07,.32-6.08-7.76,1.28,16.35,4.57,40.77,4.5,57.24l-4.07,.32c-2.65-16.26-1.86-40.99-4.5-57.24-1.36,.11-4.08,.32-5.44,.43-1.36,.11-2-8.07-2.64-16.24,.64,8.17,1.93,24.53,2.57,32.7-1.36,.11-4.07,.32-5.43,.43-1.36,.11-2-8.06-2.65-16.25-2.71,.21-6.07-7.75-6.79,.53,.64,8.19,1.28,16.35,1.93,24.53-3.93-32.6-12-48.42-16.08-48.1,2,8.08-2.07,8.4-.07,16.46-6-24.2-13.36-48.3-12.15-15.5,4.74,73.73,10.15,147.94,16,222.39-83.64,11.91-167.17,24.66-249.61,36.59-9.28,2.56-4.2,4.66-3.85,7.36,18.89-2.42,37.63-6.19,52.15-5.31,4.73-.61-4.03,6.01,1.04,8.11,4.73-.61,14.18-1.82,18.91-2.42,5.24,3.44-3.7,8.71,1.56,12.16,5.24,3.45,23.8-1.68,28.87,.42,14.54,.88-8.94,5.26-23.11,7.08,5.07,2.1-9.45,1.21-9.11,3.91,.69,5.4,1.38,10.81,20.81,12.44,4.9,.75,.69,5.41,1.04,8.11,54.07-6.92,112.43-14.41,166.3-26.07,15.85,194.31,34.26,389.69,51.16,581.48,2.64,16.25,4.72,7.84,7.43,7.62-2.57-32.68-6.5-65.28-5.71-90.02-.64-8.18,6.07,7.73,8.15-.64-.64-8.18-1.93-24.53-2.57-32.72,3.43-8.49,8.79,7.55,12.22-.96,3.43-8.49-1.86-40.97,.22-49.36,.78-24.76,5.36,16.03,7.28,40.55,2.07-8.38,1.29,16.35,4,16.14,5.43-.43,10.86-.85,12.37-33.87,.72-8.28,5.43-.43,8.15-.64-7.71-98.1-16.06-204.38-29.2-302.05-5.81-45.11-9-95.71-12.53-145.59,33.38-4,68.02-7.03,97.82-13.76,14.01-3.17,38.33-.79,46.91-8.75-4.72,.6-9.45,1.21-14.17,1.81,13.65-5.87,28.35-3.63,42.36-6.8-.35-2.7-.52-4.05,4.04-6.01-9.45,1.21-23.46,4.38-33.09,4.24l-.52-4.05Z"/>
  <path d="M3048.04,588.8c-23.76-3.92-47.84-6.05-65.08-12.57-5.95-.98,7.12-6.19,1.77-10.76-5.95-.98-17.84-2.94-23.79-3.92-5.05-6.35,7.72-9.76,2.66-16.12-5.05-6.35-29.42-6.69-34.77-11.26-17.26-6.52,12.78-3.41,30.61-.47-5.35-4.56,11.89,1.96,12.48-1.62,1.18-7.17,2.37-14.34-20.52-23.63-5.65-2.77,1.18-7.17,1.77-10.75-57.75-9.53-119.39-19.69-179.24-25.66,6.82-25.06,13.06-49.59,18.25-73.13,4.15,3.21,8.35,6.16,12.63,8.71,7,4.17,13.66,17.01,22.16,15.3-2.04-1.74-4.08-3.47-6.12-5.21,8.77,2.1,12.24,10.42,19.24,14.59,1.77-2.08,2.65-3.11,5.58-2.41-4.08-3.47-11.08-7.65-14.28-12.16l2.65-3.11c4.97,2.44,9.32,9.72,14.28,12.16,.89-1.04,2.65-3.11,3.54-4.15,.88-1.04,2.92,.7,4.96,2.44-2.04-1.74-6.12-5.21-8.16-6.95,.88-1.04,2.65-3.11,3.53-4.15,.89-1.04,2.92,.7,4.97,2.44,1.77-2.07,5.57-2.41,4.41-5.18-2.04-1.74-4.08-3.47-6.12-5.21,9.04,5.91,17.54,4.2,20.19,1.09-2.93-.7-.28-3.81-3.2-4.51,8.77,2.1,18.42,3.16,11.14-4.82-23.28-21.65-47.51-42.65-72.21-63.25,4.11-14.61,6.82-27.9,5.55-36.98-2.81,9.97-5.62,19.95-8.43,29.92,3.18-31.4,16.86-59.87,23.54-90.3-3.5-.99-5.25-1.48-4.18-11.96-5.62,19.96-12.3,50.39-19.67,69.87l-5.24-1.48c3.87-20.47,15.8-49.42,19.67-69.87-1.75-.49-5.25-1.48-7-1.97-1.75-.49,1.06-10.47,3.87-20.44-2.81,9.97-8.43,29.94-11.24,39.92-1.75-.49-5.25-1.48-6.99-1.97-1.75-.49,1.05-10.46,3.87-20.46-3.5-.98-4.18-11.95-8.74-2.46-2.81,9.99-5.62,19.96-8.43,29.94,9.49-40.42,6.37-62.84,1.13-64.32-1.06,10.49-6.31,9.01-7.37,19.47,3.18-31.41,4.62-63.32-8.36-23.9-10.07,33.81-20.05,67.75-29.95,101.78-26.35-20.99-52.75-41.76-78.67-62.57-4.96-2.44-4.69,1.38-6.45,3.45,8.15,6.94,17.2,12.85,21.55,20.14,2.04,1.74-5.57,2.41-5.3,6.23,2.04,1.74,6.12,5.21,8.16,6.95-.61,4.84-7.34,4.48-7.95,9.33-.61,4.85,9.31,9.72,9.59,13.53,4.36,7.29-6.73-.37-12.85-5.58,.27,3.81-4.08-3.47-5.85-1.4-3.53,4.15-7.07,8.3-1.56,18.35,1.16,2.78-3.53,4.15-5.3,6.22,20.51,17.47,42.45,36.14,65.5,51.56-11.27,39.3-22.45,78.72-33.54,118.22-49.73-7.49-102.88-20.01-149.5-22.97-18.13-1.15-46.66-13.22-60.03-6.22,5.94,.98,11.88,1.96,17.82,2.94-18.71,2.44-35.66-5.88-53.78-7.03-.59,3.59-.89,5.38-7.14,6.19,11.89,1.96,30.02,3.11,41.62,6.87l-.89,5.37c-12.19-.17-29.43-6.69-41.62-6.87-.3,1.8-.89,5.38-1.18,7.17-.3,1.79-6.24,.81-12.18-.17,5.94,.98,17.84,2.94,23.77,3.92-.3,1.79-.89,5.38-1.18,7.16-.3,1.8-6.24,.82-12.19-.17-.59,3.58-7.13,6.19-1.48,8.96,5.95,.98,11.89,1.96,17.84,2.94-24.08-2.13-37.45,4.87-38.33,10.24,6.25-.81,5.36,4.57,11.6,3.75-18.72,2.44-37.73,6.66-14.25,12.37,85.36,16.36,172.08,30.75,259.14,44.17-64.27,231.64-126.01,465.4-188.04,694.49-3.87,20.46,2.44,11.44,5.94,12.42,11.23-39.89,20.72-80.31,32.65-109.26,2.81-9.98,4.19,11.93,10.49,2.95,2.81-9.98,8.43-29.94,11.24-39.94,8.05-8.5,7.67,12.94,15.73,4.43,8.05-8.49,15.79-49.39,22.1-58.39,11.93-28.98-.38,21.44-8.81,51.37,6.3-8.99-5.62,19.96-2.12,20.95,6.99,1.97,13.99,3.94,30.47-34.5,4.56-9.49,6.99,1.97,10.49,2.95,33.72-119.76,70.25-249.5,96.97-371.21,11.67-51.7,28.2-107.92,44.52-163.94,97.18,14.39,194.38,27.96,290.21,42.08,12.19,.17,6.82-4.4,7.41-7.98Z"/>
  <path d="M1359.38,780.54c-48.17-7.19-96.99-13.18-146.03-18.52,1.86-12.57,3.44-24.87,4.6-36.75,1.92-19.64,12.73-51.07,8.19-65.13-1.09,6.46-2.17,12.93-3.26,19.4-.77-20.08,6.52-38.81,8.44-58.44-2.69-.45-4.03-.68-4.29-7.38-2.18,12.94-4.09,32.57-7.61,45.29l-4.03-.68c.83-13.17,6.78-32.13,7.61-45.29-1.35-.23-4.03-.68-5.38-.9-1.34-.23-.25-6.7,.83-13.16-1.09,6.46-3.26,19.41-4.35,25.87-1.34-.23-4.03-.68-5.37-.9-1.35-.23-.26-6.69,.83-13.17-2.69-.45-4.28-7.37-6.71-1.13-1.09,6.48-2.18,12.94-3.26,19.41,3.01-26.11-1.53-40.18-5.56-40.85,.26,6.7-3.78,6.03-3.52,12.72-.77-20.08-2.88-40.4-8.57-14.75-10.46,56.07-20.4,112.63-29.98,169.47-65.06-6.47-130.19-12.21-194.35-18.47-7.73,.46-4.26,3.61-4.58,6.32,15.13,1.79,30.44,2.22,41.47,6.27,3.79,.45-4.42,4.96-.96,8.12,3.79,.45,11.36,1.34,15.15,1.79,3.3,4.5-4.75,7.66-1.44,12.17,3.3,4.5,18.76,3.59,22.23,6.74,11.05,4.05-8.05,3.16-19.41,1.82,3.46,3.15-7.57-.89-7.89,1.81-.64,5.41-1.28,10.82,13.38,16.67,3.63,1.8-.64,5.41-.96,8.12,40.96,4.84,84.98,10.03,127.01,10.97-24.85,151.68-47.55,304.66-70.94,454.62-.83,13.17,2.94,7.13,5.63,7.59,4.35-25.86,7.35-51.97,13.3-70.92,1.09-6.47,4.29,7.36,8.06,1.36,1.09-6.47,3.26-19.41,4.35-25.89,5.11-5.79,6.97,7.83,12.09,2.03,5.12-5.79,6.78-32.11,10.55-38.13,5.95-18.97,1.85,13.62-1.41,33.02,3.77-6.01-2.18,12.94,.51,13.39,5.37,.9,10.75,1.81,19.13-23.39,2.43-6.24,5.37,.9,8.06,1.35,13.05-77.63,27.19-161.73,34.87-240.26,3.63-34.66,10.66-72.67,17.41-110.39,25.07,3.33,50.6,7.41,73.55,7.39,11.52-.01,29.8,7.64,38.17,1.77-3.78-.45-7.57-.89-11.35-1.34,11.83-2.72,22.71,2.68,34.22,2.67,.32-2.71,.48-4.06,4.43-4.97-7.57-.89-19.09-.88-26.5-3.13l.48-4.05c7.74-.46,18.77,3.59,26.5,3.13,.16-1.36,.48-4.06,.64-5.41,.16-1.35,3.95-.9,7.73-.46-3.78-.45-11.36-1.34-15.14-1.79,.16-1.35,.48-4.06,.64-5.41,.16-1.36,3.94-.91,7.73-.46,.32-2.7,4.43-4.96,.8-6.76-3.79-.45-7.57-.89-11.36-1.34,15.31,.44,23.68-5.43,24.16-9.49-3.95,.91-3.47-3.15-7.41-2.25,11.83-2.72,23.83-6.78,8.85-9.92Z"/>
  <path d="M526.81,807.53c-64.47-17.39-129.94-33.97-195.68-50.12,2.01-13.09,3.87-25.91,5.49-38.34,3.18-24.42,13.56-64.24,11.8-81.16-1.36,8.08-2.72,16.17-4.08,24.25,1.39-24.7,8.16-48.51,11.34-72.92-1.79-.3-2.69-.45-2.22-8.7-2.72,16.18-5.9,40.58-9.52,56.62l-2.68-.45c1.82-16.34,7.69-40.29,9.52-56.62-.9-.15-2.69-.45-3.58-.6-.89-.15,.47-8.24,1.82-16.32-1.36,8.08-4.08,24.26-5.44,32.34-.89-.15-2.69-.45-3.58-.6-.9-.15,.46-8.23,1.82-16.33-1.79-.3-2.22-8.69-4.48-.75-1.36,8.1-2.72,16.18-4.08,24.26,4.54-32.5,2.79-49.43,.1-49.89-.46,8.25-3.15,7.8-3.61,16.03,1.39-24.71,1.89-49.57-4.44-17.38-11.6,65.18-22.92,130.87-34.06,196.81-85.27-20.71-170.75-40.8-254.87-61.05-9.46-1.45-5.28,1.48-5.72,3.24,18.47,4.66,37.18,8.44,50.59,13.7,4.62,1.17-5.5,2.36-1.33,5.29,4.62,1.17,13.86,3.5,18.49,4.66,3.95,3.8-5.96,4.11-2,7.92,3.95,3.81,22.87,6.7,27.05,9.63,13.43,5.26-9.91,.31-23.77-3.19,4.17,2.93-9.24-2.33-9.69-.57-.89,3.52-1.78,7.04,16.04,14.35,4.4,2.05-.89,3.52-1.33,5.28,55.44,13.99,115.51,29.14,171.84,39.6,2.61,.5,5.25,1.04,7.9,1.59-34.64,206.78-67.49,415.77-100.57,620.4-1.82,16.33,1.33,8.52,3.12,8.82,5.43-32.33,9.98-64.83,15.85-88.79,1.36-8.09,2.22,8.67,5.38,.9,1.36-8.09,4.08-24.27,5.44-32.36,4.04-7.63,4.01,9,8.06,1.35,4.04-7.63,7.69-40.27,10.84-48.06,5.87-23.98-.03,16.63-4.11,40.88,3.15-7.78-2.72,16.18-.93,16.48,3.58,.6,7.17,1.2,15.29-30.69,2.26-7.94,3.58,.6,5.37,.9,16.32-97.04,33.99-202.17,46.72-299.81,7.54-56.18,19.55-119.93,29.73-180.55,33.88,8.66,68.95,18.65,100.22,24.45,14.09,2.62,36.29,11.97,46.64,9.89-4.62-1.16-9.24-2.33-13.85-3.49,14.52,.85,27.72,6.99,41.8,9.61,.44-1.76,.67-2.64,5.52-2.36-9.24-2.33-23.32-4.95-32.35-8.16l.67-2.64c9.47,1.45,22.88,6.71,32.35,8.16,.22-.88,.67-2.64,.89-3.52,.22-.88,4.84,.29,9.46,1.45-4.62-1.16-13.86-3.5-18.48-4.66,.22-.88,.67-2.64,.89-3.52,.22-.88,4.84,.28,9.47,1.45,.44-1.76,5.51-2.36,1.11-4.4-4.63-1.17-9.24-2.33-13.86-3.5,18.71,3.78,29.06,1.71,29.73-.93-4.85-.29-4.18-2.93-9.02-3.21,14.53,.85,29.28,.83,11.02-4.71Z"/>
  <path d="M3579.16,581.1c-66.44,8.55-133.5,18.24-200.64,28.43-3.78-13.36-7.59-26.39-11.46-38.91-7.26-23.53-14.39-64.06-23.03-78.71,2.13,7.91,4.25,15.83,6.38,23.75-9.01-23.04-12.77-47.51-20.03-71.03-1.76,.47-2.63,.71-5.64-6.99,4.26,15.84,11.52,39.36,14.9,55.45l-2.63,.71c-5.14-15.61-9.77-39.84-14.9-55.45-.88,.24-2.63,.71-3.51,.94-.88,.24-3-7.69-5.13-15.6,2.13,7.91,6.39,23.76,8.51,31.67-.88,.24-2.63,.71-3.51,.94-.88,.24-3.01-7.68-5.14-15.61-1.75,.47-5.64-6.98-4.38,1.18,2.13,7.93,4.26,15.84,6.39,23.76-9.39-31.45-18.03-46.11-20.66-45.4,3.01,7.69,.38,8.4,3.38,16.08-9.01-23.05-18.91-45.87-11.27-13.96,16.6,64.19,33.65,128.72,50.98,193.41-86.45,13.36-172.86,27.35-258.08,40.69-9.3,2.27-4.31,3.38-4.05,5.18,18.85-2.74,37.58-6.38,51.99-6.64,4.72-.69-4.18,4.28,.78,5.39,4.72-.69,14.15-2.06,18.87-2.74,5.1,2.01-3.94,6.08,1.18,8.09,5.1,2.01,23.7-2.53,28.68-1.42,14.42-.26-9.04,4.07-23.19,6.12,4.97,1.11-9.43,1.37-9.17,3.17,.52,3.59,1.05,7.19,20.3,7.14,4.85,.21,.52,3.6,.78,5.39,56.59-8.23,117.89-17.14,173.95-28.96,2.84-.58,5.71-1.14,8.63-1.68,54.5,202.32,111.54,405.91,166.56,605.62,5.14,15.61,4.76,7.2,6.51,6.72-8.51-31.66-17.9-63.1-22.53-87.33-2.13-7.92,5.63,6.96,5.26-1.41-2.13-7.92-6.39-23.76-8.52-31.69,.5-8.62,7.39,6.52,7.89-2.12,.5-8.62-9.76-39.82-10.14-48.21-4.64-24.25,6.89,15.14,13.27,38.89-.37-8.38,4.26,15.84,6.01,15.37,3.51-.94,7.02-1.89,1.13-34.27-1.25-8.16,3.51-.94,5.26-1.41-25.54-95.03-53.2-197.99-82.25-292.07-16.34-53.64-31.78-115.83-47.56-174.63,34.36-4.87,70.25-9,101.11-15.51,14.02-2.96,38.11-2.79,46.89-8.65-4.71,.68-9.43,1.37-14.14,2.06,13.75-4.75,28.29-4.11,42.3-7.07-.26-1.8-.39-2.7,4.2-4.28-9.43,1.37-23.45,4.33-33.01,4.8l-.39-2.69c9.31-2.27,23.71-2.53,33.01-4.8-.13-.9-.39-2.7-.52-3.6-.13-.9,4.59-1.58,9.3-2.27-4.71,.68-14.15,2.06-18.86,2.74-.13-.9-.39-2.7-.52-3.59-.13-.9,4.58-1.59,9.3-2.27-.26-1.8,4.19-4.28-.65-4.49-4.72,.69-9.43,1.37-14.15,2.06,18.73-3.64,27.51-9.51,27.12-12.2-4.59,1.59-4.98-1.11-9.56,.47,13.75-4.75,27.38-10.4,8.39-8.56Z"/>
  <path d="M2418.68,845.37c-13.63-.88-27.33-.85-37.45-3.32-3.41-.22,3.64-3.41,.35-5.44-3.41-.22-10.23-.66-13.65-.88-3.23-2.94,3.76-5.21,.52-8.15-3.23-2.94-16.99-2-20.28-4.03-10.12-2.47,7-2.28,17.22-1.62-3.29-2.03,6.82,.44,6.94-1.37,.23-3.62,.47-7.25-13-10.85-3.35-1.13,.23-3.63,.35-5.44-31.03-2-64.03-4.11-96.11-4.59,3.13-17.49,10.47-41.94,8.41-53.24-1.1,5.77-2.19,11.55-3.29,17.32,.61-17.83,6.58-34.66,8.98-52.16-1.79-.34-2.68-.51-2.47-6.46-2.19,11.56-4.59,29.06-7.68,40.45l-2.67-.51c1.3-11.73,6.38-28.72,7.68-40.45-.89-.17-2.68-.51-3.57-.68-.89-.17,.21-5.95,1.3-11.72-1.1,5.77-3.29,17.34-4.39,23.11-.89-.17-2.68-.51-3.57-.68-.89-.17,.2-5.94,1.3-11.73-1.78-.34-2.47-6.46-4.46-.85-1.1,5.78-2.19,11.56-3.29,17.34,3.5-23.28,1.23-35.69-1.45-36.19-.21,5.95-2.88,5.45-3.09,11.39,.61-17.84,.34-35.85-4.94-12.91-7.96,39.11-15.73,78.48-23.35,118.02-31.99-.65-68.35-5.9-98.99-5.16-10.29,.25-27.1-4.47-34.21-.38,3.41,.22,6.82,.44,10.23,.66-10.4,2.06-20.46-1.32-30.74-1.07-.12,1.81-.18,2.72-3.65,3.41,6.82,.44,17.11,.19,23.87,1.54l-.17,2.72c-6.88,.47-17-2-23.87-1.54-.06,.91-.18,2.72-.23,3.63-.06,.91-3.47,.69-6.88,.47,3.41,.22,10.23,.66,13.64,.88-.06,.91-.17,2.72-.23,3.62-.06,.91-3.47,.69-6.88,.47-.12,1.81-3.64,3.4-.29,4.53,3.41,.22,6.82,.44,10.23,.66-13.7,.03-20.81,4.12-20.99,6.84,3.47-.69,3.3,2.03,6.76,1.34-10.4,2.06-20.87,5.03-7.29,6.81,53.45,4.66,107.66,8.09,161.98,10.99-28.71,151.31-55.43,304.57-82.53,454.49-1.3,11.73,1.58,6.27,3.37,6.61,4.38-23.09,7.88-46.38,12.96-63.37,1.1-5.78,2.47,6.44,5.36,1.02,1.1-5.78,3.29-17.34,4.39-23.12,3.77-5.26,4.25,6.8,8.03,1.52,3.77-5.26,6.37-28.71,9.26-34.15,5.08-17.01,.48,12.06-2.81,29.39,2.88-5.43-2.19,11.56-.41,11.9,3.57,.68,7.14,1.36,14.2-21.24,1.99-5.61,3.57,.68,5.35,1.02,13.16-69.33,27.42-144.44,37.02-214.43,6.55-46.04,18.6-98.86,27.28-147.51,53,2.6,105.95,4.86,158.22,7.43,6.88-.47,3.58-2.5,3.69-4.31Z"/>
  <path d="M822.89,887.53c-2.46,.7,1.71-3.32-1.12-3.93-2.46,.7-7.37,2.09-9.83,2.79-3.01-1.27,1.34-4.63-1.68-5.89-3.01-1.27-12.46,2.84-15.29,2.22-7.75,.79,4.35-3.36,11.72-5.45-2.83-.61,4.91-1.4,4.54-2.71-.74-2.62-1.49-5.24-11.87-4.41-2.64,.04-.74-2.62-1.12-3.93-26.38,7.5-54.73,15.56-80.99,25.06-.55-1.45-1.11-2.89-1.67-4.32-4.82-12.29-9.19-33.99-15.2-41.24,1.39,4.16,2.78,8.33,4.17,12.5-6.11-11.85-8.35-25-13.17-37.29-1.29,.43-1.94,.65-3.98-3.31,2.78,8.34,7.6,20.62,9.74,29.18l-1.94,.65c-3.43-8.13-6.31-21.06-9.74-29.18-.65,.22-1.94,.65-2.59,.86-.65,.22-2.04-3.95-3.43-8.12,1.39,4.16,4.17,12.51,5.56,16.67-.65,.22-1.94,.65-2.58,.86-.65,.22-2.04-3.95-3.43-8.12-1.29,.43-3.98-3.31-3.23,1.08,1.39,4.17,2.78,8.34,4.17,12.51-6.21-16.46-12.23-23.72-14.16-23.07,2.04,3.96,.1,4.6,2.14,8.55-6.11-11.85-12.87-23.5-7.95-6.61,9.34,29.28,18.93,58.67,28.68,88.11-19.7,5.73-41.11,10.57-58.76,17.33-7.18,2.75-20.21,3.62-24.18,8.29,2.45-.7,4.91-1.4,7.36-2.09-6.81,4.06-14.73,4.19-21.91,6.94,.37,1.31,.56,1.97-1.71,3.32,4.91-1.4,12.09-4.15,17.19-4.89l.56,1.96c-4.73,2.05-12.47,2.84-17.19,4.89,.19,.66,.56,1.97,.75,2.62,.19,.65-2.27,1.35-4.72,2.05,2.45-.7,7.37-2.09,9.82-2.79,.19,.65,.56,1.97,.74,2.62,.19,.66-2.27,1.35-4.73,2.05,.37,1.31-1.71,3.32,.93,3.27,2.46-.7,4.91-1.4,7.37-2.09-9.64,3.45-13.62,8.12-13.06,10.09,2.27-1.35,2.83,.61,5.1-.74-6.81,4.06-13.43,8.77-3.42,6.64,36.37-9.44,72.94-19.83,109.48-30.6,36.22,108.38,74.4,217.29,111.14,324.17,3.43,8.12,3.33,3.51,4.62,3.08-5.56-16.66-11.77-33.12-14.66-46.05-1.39-4.17,3.97,3.3,3.88-1.29-1.39-4.17-4.17-12.51-5.57-16.68,.55-4.81,5.27,2.88,5.81-1.94,.55-4.81-6.31-21.05-6.41-25.65-2.89-12.95,4.72,7.69,8.89,20.19-.1-4.6,2.78,8.34,4.08,7.91,2.58-.86,5.17-1.73,1.54-19.04-.74-4.38,2.58-.86,3.88-1.29-16.7-50.01-34.78-104.2-54.06-153.34-11.66-30.18-22.34-65.93-33.51-98.87,40.46-12.13,80.79-24.56,120.67-36.55,4.73-2.05,1.89-2.66,1.52-3.97-9.82,2.79-19.46,6.24-27.2,7.02Z"/>
</svg>