<?xml version="1.0" encoding="UTF-8"?>
<svg id="Layer_7" data-name="Layer 7" xmlns="http://www.w3.org/2000/svg" viewBox="0 0 3840 1080">
  <defs>
    <style>
      .cls-1 {
        fill: #111;
      }
    </style>
  </defs>
  <path d="M3182.34,576.08c18.24-.9,44.73,6.75,62.95,5.86,.24-2.58,.72-7.72,.96-10.29,.24-2.57,9.23-1.73,18.21-.89-8.98-.84-26.98-2.51-35.96-3.35,.24-2.57,.72-7.71,.96-10.28,.24-2.58,9.22-1.74,18.23-.9,.48-5.14,9.95-9.44,1.2-12.85-9-.84-17.99-1.67-26.98-2.51,36.21,.77,55.39-10.4,56.11-18.11-9.24,1.74-8.52-5.98-17.75-4.24,27.69-5.2,55.62-12.97,19.9-18.88-118.93-14.02-239.4-25.57-360.3-35.83,4.7-35.74,8.75-70.63,11.64-104.06,4.03-46.53,25.23-121.97,16.84-154.55-2.19,15.37-4.39,30.76-6.58,46.13-1.09-47.23,13.17-92.29,17.2-138.8-5.11-.73-7.67-1.09-8.03-16.86-4.39,30.77-8.42,77.28-15.37,107.71l-7.66-1.09c1.83-31.16,13.53-76.57,15.37-107.71-2.56-.37-7.67-1.09-10.23-1.46-2.55-.36-.36-15.75,1.84-31.12-2.19,15.37-6.59,46.16-8.78,61.53-2.55-.36-7.67-1.09-10.22-1.46-2.56-.37-.37-15.74,1.83-31.14-5.11-.73-8.02-16.85-12.77-1.82-2.2,15.4-4.39,30.77-6.59,46.16,6.22-61.91-2.16-94.51-9.83-95.6,.36,15.77-7.31,14.67-6.94,30.41-1.08-47.24-4.72-94.86-16.05-33.69-21.75,138.3-42.45,277.8-62.44,417.9-159.61-12.58-216.04-20.42-373.43-32.48-18.23,.9-9.69,6.88-10.17,12.02,35.94,3.34-31.17,.97-4.68,8.62,8.99,.84-9.93,9.44-1.44,15.43,8.99,.84,26.98,2.51,35.98,3.35,8.27,8.54-10.44,14.57-2.15,23.13,8.27,8.54,44.71,6.75,53.22,12.73,26.52,7.65-18.7,6.03-45.67,3.52,8.5,5.98-17.99-1.67-18.46,3.47-.96,10.28-1.91,20.56,33.33,31.62,8.75,3.41-.96,10.28-1.44,15.42,102.86,9.57,213.89,19.88,318.33,20.62-51.11,365.91-97.91,734.84-146.03,1096.53-1.83,31.14,5.48,16.45,10.59,17.18,8.78-61.5,15-123.41,26.7-168.83,2.2-15.39,8.03,16.82,15.34,2.19,2.2-15.39,6.59-46.16,8.79-61.57,9.85-14.28,13.13,17.59,22.99,3.28,9.86-14.28,13.52-76.54,20.83-91.2,11.7-45.47,3.27,31.87-3.31,78.01,7.3-14.64-4.39,30.77,.72,31.5,10.22,1.46,20.45,2.92,36.89-57.52,4.75-15.02,10.22,1.46,15.33,2.19,26.34-184.61,54.88-384.61,71-570.67,7.91-85.82,22.97-180.73,37.08-274.43,63.39,6.41,128.7,15.16,186.6,15.03,27.22-.06,71.21,14.41,90.38,3.23-8.98-.84-17.98-1.67-26.96-2.51,27.68-5.21,53.94,5.02,81.15,4.96,.48-5.14,.72-7.71,9.96-9.45-17.99-1.67-45.19-1.61-62.95-5.86l.72-7.7Z"/>
  <path d="M528.1,866.94c-27.44-1.36-67.31,10.16-94.73,8.81l-4.08-11.31c9.36-8.69-7.71-7.1-24.76-5.51,13.52-1.26,40.6-3.78,54.11-5.04-.36-3.86-1.08-11.6-1.44-15.46-.36-3.88-13.88-2.62-27.43-1.36-.72-7.73-14.97-14.21-1.8-19.33,13.55-1.26,27.06-2.52,40.6-3.78-54.49,1.16-83.35-15.65-84.43-27.25,13.91,2.61,12.83-9,26.71-6.38-41.66-7.83-83.7-19.52-29.94-28.41,178.96-21.09,360.23-38.47,542.16-53.91-7.08-53.77-13.17-106.28-17.52-156.59-6.07-70.01-37.97-183.54-25.35-232.56,3.3,23.13,6.6,46.28,9.91,69.42,1.64-71.06-7.23-60.48-13.3-130.47,7.7-1.1,11.54-1.65,12.08-25.38,6.61,46.31,.08,37.9,10.54,83.68l11.52-1.64c-2.76-46.89-20.36-115.23-23.13-162.08l12.27-4.63c8.26,10.94,4.31-16.75,.36-44.39,3.3,23.13,9.91,69.46,13.21,92.59,3.84-.55,11.54-1.65,15.37-2.19,3.85-.55,.55-23.68-2.75-46.86,7.69-1.1,12.08-25.35,19.22-2.74,3.31,23.18,6.61,46.31,9.91,69.46-9.37-93.16,3.25-142.22,14.78-143.86-.54,23.73,11,22.08,10.45,45.76,1.63-71.08,28.11-7.49,45.16,84.55,32.73,208.11,42.87,282.77,72.94,493.59,239.88-18.91,351.3-29.01,587.86-47.13,.58-.04,1.17-.05,1.75-.02,15.94,.91,17.58,4.54,16.57,8.96-1.26,5.49-6.08,9.44-11.7,9.92-50.9,4.35,27.31-.39-10.21,10.45-13.53,1.26,14.95,14.21,2.16,23.22-13.53,1.26-40.6,3.78-54.14,5.04-12.44,12.85,15.71,21.93,3.24,34.8-12.44,12.86-67.27,10.15-80.08,19.15-39.91,11.51,28.14,9.08,68.73,5.3-12.8,8.99,27.06-2.52,27.78,5.22,1.44,15.47,2.88,30.94-50.16,47.58-13.17,5.13,1.44,15.47,2.16,23.2-154.78,14.4-321.85,29.92-479.01,31.02,76.9,550.6,147.34,1105.75,219.74,1650,2.76,46.86-8.24,24.75-15.93,25.85-13.2-92.54-22.57-185.7-40.17-254.05-3.3-23.15-12.08,25.3-23.08,3.29-3.3-23.15-9.91-69.46-13.22-92.64-14.83-21.48-19.75,26.47-34.6,4.94-14.83-21.48-20.35-115.17-31.35-137.23-17.6-68.42-4.92,47.95,4.99,117.39-10.99-22.03,6.61,46.31-1.08,47.41-15.38,2.19-30.77,4.39-55.51-86.55-7.15-22.6-15.38,2.19-23.07,3.29-39.64-277.8-82.59-578.75-106.84-858.72-11.91-129.14-34.56-271.95-55.8-412.94-95.38,9.65-193.67,22.81-280.79,22.62-40.96-.09-107.15,21.68-136,4.86,13.52-1.26,27.05-2.52,40.57-3.78-41.65-7.83-81.17,7.55-122.11,7.46-.72-7.74-1.08-11.6-14.99-14.22,27.06-2.52,68.01-2.42,94.73-8.82l-1.08-11.59Z"/>
  <g>
    <path class="cls-1" d="M2793.56,505.97c1.75-2.3,3.58-4.2,5.17-4.06,1.53,.14,2.04,1.5,1.85,3.54-.19,2.1-1.12,4.82-2.45,7.51-2.86,5.69-6.58,8.85-9.36,8.6-1.14-.1-1.57-1-1.4-2.93l-.85,1.81c-.15,.33-.33,.43-.61,.4l-2.38-.21c-.28-.03-.38-.21-.24-.48l14.76-30.32c.35-.71,.5-1.1,.52-1.38,.02-.17-.03-.29-.2-.3-.85-.08-2.1,2.33-2.76,3.99-.16,.44-.76,.16-.61-.23,.94-2.15,2.02-4.63,4.06-4.44,1.19,.11,1.85,1.08,1.71,2.62-.08,.85-.4,1.91-.96,3.06l-5.34,11.02-.91,1.81Zm-1.52,11.14c2.07-3.88,5.13-9.9,6.29-12.65,.14-.27,.24-.72,.27-1.06,.04-.4-.05-.75-.33-.77-1.36-.12-4.7,3.87-7.74,9.6-1.38,2.62-2.3,5.23-2.45,6.88-.09,.96,.14,1.62,.65,1.66,.91,.08,1.99-1.08,3.31-3.65Z"/>
    <path class="cls-1" d="M2816.67,506.11c-.08,.85-.28,1.81-.54,2.76l2.1-4.27c.14-.33,.33-.43,.61-.4l2.39,.22c.28,.03,.38,.21,.24,.48l-8.01,16.51c-.35,.71-.5,1.1-.52,1.33-.01,.17,.09,.24,.21,.25,1.19,.11,2.56-2.97,3-4.02,.15-.39,.76-.22,.55,.28-.8,1.93-2.08,4.68-4.24,4.48-.79-.07-1.64-.83-1.46-2.82,.07-.74,.26-1.58,.64-2.63-2.03,2.79-4.12,5.01-5.48,4.89-1.14-.1-1.98-1.55-1.74-4.16,.17-1.93,.98-4.49,2.57-7.55,2.9-5.52,6.12-8.21,8.62-7.98,.96,.09,1.21,1.2,1.08,2.67Zm-3.24,.39c-1.23,2.18-6.46,12.58-6.93,13.97-.29,.72-.32,1.06-.34,1.29-.04,.4,.06,.63,.4,.67,1.02,.09,4.52-3.83,6.95-8.53,1.46-2.85,2.36-5.91,2.54-7.84,.1-1.14-.06-1.84-.52-1.88-.62-.06-1.41,1.07-2.1,2.33Z"/>
    <path class="cls-1" d="M2822.71,524.17c-.28-.03-.38-.21-.24-.48l8.01-16.51c.35-.71,.5-1.16,.53-1.38,.01-.17-.04-.23-.21-.25-.85-.08-2.1,2.33-2.76,3.99-.15,.44-.76,.16-.61-.23,.66-1.6,1.91-4.64,4.06-4.44,1.19,.11,1.74,1.02,1.62,2.38-.07,.74-.38,1.63-.8,2.56l-1.41,2.91c2.46-3.78,5.02-7.45,7.29-7.24,1.14,.1,1.77,1.36,1.61,3.12-.08,.91-.35,1.97-.9,3.01l-5.9,11.49c-.28,.55-.43,.99-.45,1.22-.03,.28,.13,.41,.3,.43,1.19,.11,2.57-3.09,3-4.02,.15-.39,.76-.22,.55,.28-.8,1.87-2.2,4.67-4.01,4.5-1.08-.1-1.89-1.26-1.72-3.19,.09-.97,.42-2.08,1.11-3.39l5.63-11c.14-.33,.42-.88,.46-1.27,.03-.28-.07-.46-.3-.49-1.3-.12-6.01,5.75-9.25,12.5l-2.6,5.32c-.15,.33-.33,.43-.61,.4l-2.38-.21Z"/>
    <path class="cls-1" d="M2842.41,525.95c-.28-.03-.38-.21-.24-.48l8.01-16.51c.35-.71,.5-1.16,.53-1.38,.01-.17-.04-.23-.21-.25-.85-.08-2.1,2.33-2.76,3.99-.15,.44-.76,.16-.61-.23,.66-1.6,1.91-4.64,4.06-4.44,1.19,.11,1.74,1.02,1.62,2.38-.07,.74-.38,1.63-.8,2.56l-1.41,2.91c2.46-3.78,5.02-7.45,7.29-7.24,1.14,.1,1.77,1.36,1.61,3.12-.08,.91-.35,1.97-.9,3.01l-5.9,11.49c-.28,.55-.43,.99-.45,1.22-.03,.28,.13,.41,.3,.43,1.19,.11,2.57-3.09,3-4.02,.15-.39,.76-.22,.55,.28-.8,1.87-2.2,4.67-4.01,4.5-1.08-.1-1.89-1.26-1.72-3.19,.09-.97,.42-2.08,1.11-3.39l5.63-11c.14-.33,.42-.88,.46-1.27,.03-.28-.07-.46-.3-.49-1.3-.12-6.01,5.75-9.25,12.5l-2.6,5.32c-.15,.33-.33,.43-.61,.4l-2.38-.22Z"/>
    <path class="cls-1" d="M2872.8,511.4l-7.16,14.69c-.35,.71-.5,1.1-.52,1.33-.01,.17,.09,.24,.21,.25,1.19,.11,2.56-2.97,3-4.02,.15-.39,.76-.22,.55,.28-.8,1.93-2.08,4.68-4.24,4.48-.85-.08-1.63-1.01-1.46-2.88,.09-1.02,.5-2.36,1.28-4.01l8.72-17.93c3.16-6.53,6.56-8.05,8.1-7.91,.85,.08,1.05,1.01,.96,2.03-.33,3.63-4.2,9.12-9.42,13.69Zm.7-1.42c4.71-4.67,7.92-11.71,8.03-12.9,.04-.45-.05-.75-.33-.77-.79-.07-1.73,1.39-2.21,2.32l-5.49,11.35Z"/>
    <path class="cls-1" d="M2881.54,529.42l3.37-6.91c-2.39,3.62-5.01,7.28-7.22,7.08-1.13-.1-1.77-1.36-1.61-3.12,.08-.91,.35-1.97,.9-3.01l5.9-11.49c.28-.55,.42-.88,.45-1.16,.03-.34-.12-.53-.41-.55-.85-.08-2.1,2.33-2.76,3.99-.16,.44-.76,.16-.61-.23,.72-1.65,1.91-4.64,4.06-4.44,1.02,.09,1.97,.98,1.8,2.85-.08,.91-.41,1.97-1.1,3.33l-5.77,11.27c-.27,.49-.49,.93-.52,1.33-.03,.28,.01,.52,.29,.54,1.31,.12,5.75-5.38,9.26-12.5l2.6-5.32c.14-.33,.33-.43,.61-.4l2.38,.22c.28,.03,.38,.21,.24,.48l-10.41,21.44c-1.75,3.56-6.46,8.8-9.24,8.55-.85-.08-1.42-.7-1.31-2.01,.35-3.92,3.14-6.93,9.08-9.94Zm-.42,.82c-4.29,2.48-7.74,7.14-7.95,9.47-.05,.57,.14,.93,.71,.98,1.19,.11,3.08-1.84,5.68-7.16l1.56-3.29Z"/>
    <path class="cls-1" d="M2895.33,528.2c.04-.45,.15-1.02,.31-1.52,.54-1.55,1.69-3.51,3.17-3.38,.74,.07,.95,.89,.86,1.85-.06,.62-.24,1.35-.51,1.84-1.11,2.13-2.57,2.52-2.62,3.08-.03,.34,.23,.65,.97,.72,1.19,.11,2.21-1,2.72-2.27,1.73-4.59,1.6-7.64,2.89-12.33-1.34,1.54-2.67,2.96-4.31,4.59-.31,.26-.73-.18-.41-.49,3.21-3.26,6.96-7.39,9.13-10.45,.2-.27,.79,.07,.47,.44-1.03,1.28-1.66,2.48-1.89,5.1l-.33,3.63c-.21,2.38-.54,4.76-1.42,6.85-1.15,2.64-3.61,5.8-6.79,5.51-1.7-.15-2.39-1.47-2.23-3.18Z"/>
    <path class="cls-1" d="M2924.9,506.2c.28,.03,.38,.21,.24,.48l-3.3,6.8,1.87,.17c.57,.05,.5,.85-.07,.79l-2.21-.2-7.81,16.18c-.35,.71-.5,1.1-.52,1.33-.01,.17,.09,.24,.21,.25,1.19,.11,2.56-2.98,3-4.02,.15-.39,.76-.22,.55,.28-.8,1.93-2.08,4.68-4.24,4.48-.85-.08-1.63-1-1.46-2.88,.09-1.02,.5-2.36,1.28-4.01l5.77-11.9-1.82-.16c-.57-.05-.5-.85,.07-.79l2.16,.19,3.3-6.8c.14-.33,.32-.43,.61-.4l2.38,.22Z"/>
  </g>
</svg>