<?xml version="1.0" encoding="UTF-8"?>
<svg xmlns="http://www.w3.org/2000/svg" viewBox="0 0 256 256">
  <defs>
    <style>
      .cls-1 {
        fill: #fff;
      }

      .cls-1, .cls-2, .cls-3 {
        stroke: #fff;
        stroke-width: .25px;
      }

      .cls-1, .cls-3 {
        stroke-miterlimit: 10;
      }

      .cls-2 {
        stroke-linecap: round;
        stroke-linejoin: round;
      }

      .cls-2, .cls-3 {
        fill: none;
      }
    </style>
  </defs>
  <g id="Layer_1" data-name="Layer 1">
    <line class="cls-2" x1="81.07" y1="16.94" x2="84.14" y2="24.2"/>
    <line class="cls-2" x1="31.83" y1="55.29" x2="38.12" y2="60.04"/>
    <line class="cls-2" x1="16.94" y1="174.93" x2="24.2" y2="171.86"/>
    <line class="cls-2" x1="55.28" y1="224.17" x2="60.04" y2="217.88"/>
    <line class="cls-2" x1="174.93" y1="239.06" x2="171.86" y2="231.8"/>
    <line class="cls-2" x1="224.17" y1="200.71" x2="217.88" y2="195.96"/>
    <line class="cls-2" x1="239.06" y1="81.07" x2="231.79" y2="84.14"/>
    <line class="cls-2" x1="200.71" y1="31.83" x2="195.96" y2="38.12"/>
    <line class="cls-2" x1="142.89" y1="8.36" x2="141.91" y2="16.18"/>
    <line class="cls-2" x1="8.36" y1="113.11" x2="16.18" y2="114.09"/>
    <line class="cls-2" x1="113.11" y1="247.64" x2="114.09" y2="239.82"/>
    <line class="cls-2" x1="247.64" y1="142.89" x2="239.82" y2="141.91"/>
  </g>
  <g id="Layer_8" data-name="Layer 8">
    <line class="cls-2" x1="142.58" y1="10.82" x2="142.22" y2="13.72"/>
    <line class="cls-2" x1="127.16" y1="9.92" x2="127.18" y2="12.84"/>
    <line class="cls-2" x1="96.63" y1="14.16" x2="97.4" y2="16.98"/>
    <line class="cls-2" x1="82.04" y1="19.23" x2="83.17" y2="21.92"/>
    <line class="cls-2" x1="68.23" y1="26.16" x2="69.71" y2="28.68"/>
    <line class="cls-2" x1="43.91" y1="45.1" x2="45.99" y2="47.15"/>
    <line class="cls-2" x1="33.81" y1="56.78" x2="36.14" y2="58.55"/>
    <line class="cls-2" x1="25.32" y1="69.69" x2="27.86" y2="71.13"/>
    <line class="cls-2" x1="13.73" y1="98.25" x2="16.55" y2="98.99"/>
    <line class="cls-2" x1="10.82" y1="113.42" x2="13.72" y2="113.78"/>
    <line class="cls-2" x1="9.92" y1="128.84" x2="12.84" y2="128.82"/>
    <line class="cls-2" x1="14.16" y1="159.37" x2="16.98" y2="158.6"/>
    <line class="cls-2" x1="19.23" y1="173.96" x2="21.92" y2="172.83"/>
    <line class="cls-2" x1="26.16" y1="187.77" x2="28.68" y2="186.29"/>
    <line class="cls-2" x1="45.1" y1="212.09" x2="47.15" y2="210.01"/>
    <line class="cls-2" x1="56.78" y1="222.19" x2="58.55" y2="219.86"/>
    <line class="cls-2" x1="69.69" y1="230.68" x2="71.13" y2="228.14"/>
    <line class="cls-2" x1="98.25" y1="242.27" x2="98.99" y2="239.45"/>
    <line class="cls-2" x1="113.42" y1="245.18" x2="113.78" y2="242.28"/>
    <line class="cls-2" x1="128.84" y1="246.08" x2="128.82" y2="243.16"/>
    <line class="cls-2" x1="159.37" y1="241.84" x2="158.6" y2="239.02"/>
    <line class="cls-2" x1="173.96" y1="236.77" x2="172.83" y2="234.08"/>
    <line class="cls-2" x1="187.77" y1="229.84" x2="186.29" y2="227.32"/>
    <line class="cls-2" x1="212.09" y1="210.9" x2="210.01" y2="208.85"/>
    <line class="cls-2" x1="222.19" y1="199.22" x2="219.86" y2="197.45"/>
    <line class="cls-2" x1="230.68" y1="186.31" x2="228.14" y2="184.87"/>
    <line class="cls-2" x1="242.27" y1="157.75" x2="239.45" y2="157.01"/>
    <line class="cls-2" x1="245.18" y1="142.58" x2="242.28" y2="142.22"/>
    <line class="cls-2" x1="246.08" y1="127.16" x2="243.16" y2="127.18"/>
    <line class="cls-2" x1="241.84" y1="96.63" x2="239.02" y2="97.4"/>
    <line class="cls-2" x1="236.77" y1="82.04" x2="234.08" y2="83.17"/>
    <line class="cls-2" x1="229.84" y1="68.23" x2="227.32" y2="69.71"/>
    <line class="cls-2" x1="210.9" y1="43.91" x2="208.85" y2="45.99"/>
    <line class="cls-2" x1="199.22" y1="33.81" x2="197.45" y2="36.14"/>
    <line class="cls-2" x1="186.31" y1="25.32" x2="184.87" y2="27.86"/>
    <line class="cls-2" x1="172.87" y1="17.44" x2="170.85" y2="22.44"/>
    <line class="cls-2" x1="111.59" y1="9.82" x2="112.33" y2="15.15"/>
    <line class="cls-2" x1="54.69" y1="33.86" x2="58" y2="38.11"/>
    <line class="cls-2" x1="17.44" y1="83.13" x2="22.44" y2="85.15"/>
    <line class="cls-2" x1="9.82" y1="144.41" x2="15.15" y2="143.67"/>
    <line class="cls-2" x1="33.86" y1="201.31" x2="38.11" y2="198"/>
    <line class="cls-2" x1="83.13" y1="238.56" x2="85.15" y2="233.56"/>
    <line class="cls-2" x1="144.41" y1="246.18" x2="143.67" y2="240.85"/>
    <line class="cls-2" x1="201.31" y1="222.14" x2="198" y2="217.89"/>
    <line class="cls-2" x1="238.56" y1="172.87" x2="233.56" y2="170.85"/>
    <line class="cls-2" x1="246.18" y1="111.59" x2="240.85" y2="112.33"/>
    <line class="cls-2" x1="222.14" y1="54.69" x2="217.89" y2="58"/>
    <line class="cls-2" x1="157.75" y1="13.73" x2="157.01" y2="16.55"/>
  </g>
  <g id="Layer_9" data-name="Layer 9">
    <line class="cls-2" x1="157.51" y1="14.64" x2="157.25" y2="15.64"/>
    <line class="cls-2" x1="154.54" y1="13.9" x2="154.3" y2="14.91"/>
    <line class="cls-2" x1="151.54" y1="13.25" x2="151.33" y2="14.26"/>
    <line class="cls-2" x1="148.53" y1="12.67" x2="148.35" y2="13.69"/>
    <line class="cls-2" x1="145.5" y1="12.17" x2="145.35" y2="13.2"/>
    <line class="cls-2" x1="142.46" y1="11.76" x2="142.34" y2="12.78"/>
    <line class="cls-2" x1="139.42" y1="11.42" x2="139.31" y2="12.45"/>
    <line class="cls-2" x1="136.36" y1="11.16" x2="136.29" y2="12.19"/>
    <line class="cls-2" x1="133.3" y1="10.98" x2="133.25" y2="12.01"/>
    <line class="cls-2" x1="130.23" y1="10.88" x2="130.21" y2="11.92"/>
    <line class="cls-2" x1="127.17" y1="10.86" x2="127.17" y2="11.9"/>
    <line class="cls-2" x1="124.1" y1="10.92" x2="124.14" y2="11.96"/>
    <line class="cls-2" x1="121.04" y1="11.07" x2="121.1" y2="12.1"/>
    <line class="cls-2" x1="117.98" y1="11.29" x2="118.07" y2="12.32"/>
    <line class="cls-2" x1="114.93" y1="11.59" x2="115.04" y2="12.62"/>
    <line class="cls-2" x1="111.88" y1="11.97" x2="112.03" y2="13"/>
    <line class="cls-2" x1="108.85" y1="12.43" x2="109.02" y2="13.46"/>
    <line class="cls-2" x1="105.83" y1="12.98" x2="106.03" y2="13.99"/>
    <line class="cls-2" x1="102.83" y1="13.59" x2="103.05" y2="14.61"/>
    <line class="cls-2" x1="99.84" y1="14.29" x2="100.09" y2="15.3"/>
    <line class="cls-2" x1="96.88" y1="15.07" x2="97.15" y2="16.07"/>
    <line class="cls-2" x1="93.93" y1="15.92" x2="94.23" y2="16.91"/>
    <line class="cls-2" x1="91.01" y1="16.85" x2="91.34" y2="17.84"/>
    <line class="cls-2" x1="88.11" y1="17.86" x2="88.47" y2="18.83"/>
    <line class="cls-2" x1="85.24" y1="18.94" x2="85.62" y2="19.91"/>
    <line class="cls-2" x1="82.4" y1="20.1" x2="82.81" y2="21.05"/>
    <line class="cls-2" x1="79.59" y1="21.33" x2="80.02" y2="22.27"/>
    <line class="cls-2" x1="76.82" y1="22.63" x2="77.27" y2="23.56"/>
    <line class="cls-2" x1="74.08" y1="24.01" x2="74.56" y2="24.93"/>
    <line class="cls-2" x1="71.37" y1="25.45" x2="71.88" y2="26.36"/>
    <line class="cls-2" x1="68.71" y1="26.97" x2="69.23" y2="27.87"/>
    <line class="cls-2" x1="66.09" y1="28.56" x2="66.63" y2="29.44"/>
    <line class="cls-2" x1="63.5" y1="30.21" x2="64.07" y2="31.08"/>
    <line class="cls-2" x1="60.97" y1="31.94" x2="61.56" y2="32.79"/>
    <line class="cls-2" x1="58.47" y1="33.72" x2="59.09" y2="34.56"/>
    <line class="cls-2" x1="56.03" y1="35.58" x2="56.67" y2="36.39"/>
    <line class="cls-2" x1="53.64" y1="37.49" x2="54.29" y2="38.29"/>
    <line class="cls-2" x1="51.29" y1="39.47" x2="51.97" y2="40.25"/>
    <line class="cls-2" x1="49" y1="41.51" x2="49.7" y2="42.27"/>
    <line class="cls-2" x1="46.76" y1="43.6" x2="47.48" y2="44.35"/>
    <line class="cls-2" x1="44.58" y1="45.76" x2="45.32" y2="46.49"/>
    <line class="cls-2" x1="42.46" y1="47.97" x2="43.21" y2="48.68"/>
    <line class="cls-2" x1="40.39" y1="50.24" x2="41.17" y2="50.93"/>
    <line class="cls-2" x1="38.39" y1="52.56" x2="39.18" y2="53.23"/>
    <line class="cls-2" x1="36.44" y1="54.93" x2="37.25" y2="55.58"/>
    <line class="cls-2" x1="34.56" y1="57.35" x2="35.39" y2="57.98"/>
    <line class="cls-2" x1="32.74" y1="59.82" x2="33.59" y2="60.43"/>
    <line class="cls-2" x1="30.99" y1="62.34" x2="31.85" y2="62.92"/>
    <line class="cls-2" x1="29.31" y1="64.9" x2="30.18" y2="65.46"/>
    <line class="cls-2" x1="27.69" y1="67.51" x2="28.58" y2="68.04"/>
    <line class="cls-2" x1="26.14" y1="70.15" x2="27.04" y2="70.66"/>
    <line class="cls-2" x1="24.66" y1="72.84" x2="25.57" y2="73.33"/>
    <line class="cls-2" x1="23.25" y1="75.56" x2="24.18" y2="76.03"/>
    <line class="cls-2" x1="21.91" y1="78.32" x2="22.85" y2="78.76"/>
    <line class="cls-2" x1="20.65" y1="81.12" x2="21.6" y2="81.53"/>
    <line class="cls-2" x1="19.46" y1="83.94" x2="20.42" y2="84.33"/>
    <line class="cls-2" x1="18.34" y1="86.8" x2="19.31" y2="87.16"/>
    <line class="cls-2" x1="17.3" y1="89.68" x2="18.28" y2="90.02"/>
    <line class="cls-2" x1="16.34" y1="92.59" x2="17.33" y2="92.91"/>
    <line class="cls-2" x1="15.45" y1="95.53" x2="16.45" y2="95.82"/>
    <line class="cls-2" x1="14.64" y1="98.49" x2="15.64" y2="98.75"/>
    <line class="cls-2" x1="13.9" y1="101.46" x2="14.91" y2="101.7"/>
    <line class="cls-2" x1="13.25" y1="104.46" x2="14.26" y2="104.67"/>
    <line class="cls-2" x1="12.67" y1="107.47" x2="13.69" y2="107.65"/>
    <line class="cls-2" x1="12.17" y1="110.5" x2="13.2" y2="110.65"/>
    <line class="cls-2" x1="11.76" y1="113.54" x2="12.78" y2="113.66"/>
    <line class="cls-2" x1="11.42" y1="116.58" x2="12.45" y2="116.69"/>
    <line class="cls-2" x1="11.16" y1="119.64" x2="12.19" y2="119.71"/>
    <line class="cls-2" x1="10.98" y1="122.7" x2="12.01" y2="122.75"/>
    <line class="cls-2" x1="10.88" y1="125.77" x2="11.92" y2="125.79"/>
    <line class="cls-2" x1="10.86" y1="128.83" x2="11.9" y2="128.83"/>
    <line class="cls-2" x1="10.92" y1="131.9" x2="11.96" y2="131.86"/>
    <line class="cls-2" x1="11.07" y1="134.96" x2="12.1" y2="134.9"/>
    <line class="cls-2" x1="11.29" y1="138.02" x2="12.32" y2="137.93"/>
    <line class="cls-2" x1="11.59" y1="141.07" x2="12.62" y2="140.96"/>
    <line class="cls-2" x1="11.97" y1="144.12" x2="13" y2="143.97"/>
    <line class="cls-2" x1="12.43" y1="147.15" x2="13.46" y2="146.98"/>
    <line class="cls-2" x1="12.98" y1="150.17" x2="13.99" y2="149.97"/>
    <line class="cls-2" x1="13.59" y1="153.17" x2="14.61" y2="152.95"/>
    <line class="cls-2" x1="14.29" y1="156.16" x2="15.3" y2="155.91"/>
    <line class="cls-2" x1="15.07" y1="159.12" x2="16.07" y2="158.85"/>
    <line class="cls-2" x1="15.92" y1="162.07" x2="16.91" y2="161.77"/>
    <line class="cls-2" x1="16.85" y1="164.99" x2="17.84" y2="164.66"/>
    <line class="cls-2" x1="17.86" y1="167.89" x2="18.83" y2="167.53"/>
    <line class="cls-2" x1="18.94" y1="170.76" x2="19.91" y2="170.38"/>
    <line class="cls-2" x1="20.1" y1="173.6" x2="21.05" y2="173.19"/>
    <line class="cls-2" x1="21.33" y1="176.41" x2="22.27" y2="175.98"/>
    <line class="cls-2" x1="22.63" y1="179.18" x2="23.56" y2="178.73"/>
    <line class="cls-2" x1="24.01" y1="181.92" x2="24.93" y2="181.44"/>
    <line class="cls-2" x1="25.45" y1="184.63" x2="26.36" y2="184.12"/>
    <line class="cls-2" x1="26.97" y1="187.29" x2="27.87" y2="186.77"/>
    <line class="cls-2" x1="28.56" y1="189.91" x2="29.44" y2="189.37"/>
    <line class="cls-2" x1="30.21" y1="192.5" x2="31.08" y2="191.93"/>
    <line class="cls-2" x1="31.94" y1="195.03" x2="32.79" y2="194.44"/>
    <line class="cls-2" x1="33.72" y1="197.53" x2="34.56" y2="196.91"/>
    <line class="cls-2" x1="35.58" y1="199.97" x2="36.39" y2="199.33"/>
    <line class="cls-2" x1="37.49" y1="202.36" x2="38.29" y2="201.71"/>
    <line class="cls-2" x1="39.47" y1="204.71" x2="40.25" y2="204.03"/>
    <line class="cls-2" x1="41.51" y1="207" x2="42.27" y2="206.3"/>
    <line class="cls-2" x1="43.6" y1="209.24" x2="44.35" y2="208.52"/>
    <line class="cls-2" x1="45.76" y1="211.42" x2="46.49" y2="210.68"/>
    <line class="cls-2" x1="47.97" y1="213.54" x2="48.68" y2="212.79"/>
    <line class="cls-2" x1="50.24" y1="215.61" x2="50.93" y2="214.83"/>
    <line class="cls-2" x1="52.56" y1="217.61" x2="53.23" y2="216.82"/>
    <line class="cls-2" x1="54.93" y1="219.56" x2="55.58" y2="218.75"/>
    <line class="cls-2" x1="57.35" y1="221.44" x2="57.98" y2="220.61"/>
    <line class="cls-2" x1="59.82" y1="223.26" x2="60.43" y2="222.41"/>
    <line class="cls-2" x1="62.34" y1="225.01" x2="62.92" y2="224.15"/>
    <line class="cls-2" x1="64.9" y1="226.69" x2="65.46" y2="225.82"/>
    <line class="cls-2" x1="67.51" y1="228.31" x2="68.04" y2="227.42"/>
    <line class="cls-2" x1="70.15" y1="229.86" x2="70.66" y2="228.96"/>
    <line class="cls-2" x1="72.84" y1="231.34" x2="73.33" y2="230.43"/>
    <line class="cls-2" x1="75.56" y1="232.75" x2="76.03" y2="231.82"/>
    <line class="cls-2" x1="78.32" y1="234.09" x2="78.76" y2="233.15"/>
    <line class="cls-2" x1="81.12" y1="235.35" x2="81.53" y2="234.4"/>
    <line class="cls-2" x1="83.94" y1="236.54" x2="84.33" y2="235.58"/>
    <line class="cls-2" x1="86.8" y1="237.66" x2="87.16" y2="236.69"/>
    <line class="cls-2" x1="89.68" y1="238.7" x2="90.02" y2="237.72"/>
    <line class="cls-2" x1="92.59" y1="239.66" x2="92.91" y2="238.67"/>
    <line class="cls-2" x1="95.53" y1="240.55" x2="95.82" y2="239.55"/>
    <line class="cls-2" x1="98.49" y1="241.36" x2="98.75" y2="240.36"/>
    <line class="cls-2" x1="101.46" y1="242.1" x2="101.7" y2="241.09"/>
    <line class="cls-2" x1="104.46" y1="242.75" x2="104.67" y2="241.74"/>
    <line class="cls-2" x1="107.47" y1="243.33" x2="107.65" y2="242.31"/>
    <line class="cls-2" x1="110.5" y1="243.83" x2="110.65" y2="242.8"/>
    <line class="cls-2" x1="113.54" y1="244.24" x2="113.66" y2="243.22"/>
    <line class="cls-2" x1="116.58" y1="244.58" x2="116.69" y2="243.55"/>
    <line class="cls-2" x1="119.64" y1="244.84" x2="119.71" y2="243.81"/>
    <line class="cls-2" x1="122.7" y1="245.02" x2="122.75" y2="243.99"/>
    <line class="cls-2" x1="125.77" y1="245.12" x2="125.79" y2="244.08"/>
    <line class="cls-2" x1="128.83" y1="245.14" x2="128.83" y2="244.1"/>
    <line class="cls-2" x1="131.9" y1="245.08" x2="131.86" y2="244.04"/>
    <line class="cls-2" x1="134.96" y1="244.93" x2="134.9" y2="243.9"/>
    <line class="cls-2" x1="138.02" y1="244.71" x2="137.93" y2="243.68"/>
    <line class="cls-2" x1="141.07" y1="244.41" x2="140.96" y2="243.38"/>
    <line class="cls-2" x1="144.12" y1="244.03" x2="143.97" y2="243"/>
    <line class="cls-2" x1="147.15" y1="243.57" x2="146.98" y2="242.54"/>
    <line class="cls-2" x1="150.17" y1="243.02" x2="149.97" y2="242.01"/>
    <line class="cls-2" x1="153.17" y1="242.41" x2="152.95" y2="241.39"/>
    <line class="cls-2" x1="156.16" y1="241.71" x2="155.91" y2="240.7"/>
    <line class="cls-2" x1="159.12" y1="240.93" x2="158.85" y2="239.93"/>
    <line class="cls-2" x1="162.07" y1="240.08" x2="161.77" y2="239.09"/>
    <line class="cls-2" x1="164.99" y1="239.15" x2="164.66" y2="238.16"/>
    <line class="cls-2" x1="167.89" y1="238.14" x2="167.53" y2="237.17"/>
    <line class="cls-2" x1="170.76" y1="237.06" x2="170.38" y2="236.09"/>
    <line class="cls-2" x1="173.6" y1="235.9" x2="173.19" y2="234.95"/>
    <line class="cls-2" x1="176.41" y1="234.67" x2="175.98" y2="233.73"/>
    <line class="cls-2" x1="179.18" y1="233.37" x2="178.73" y2="232.44"/>
    <line class="cls-2" x1="181.92" y1="231.99" x2="181.44" y2="231.07"/>
    <line class="cls-2" x1="184.63" y1="230.55" x2="184.12" y2="229.64"/>
    <line class="cls-2" x1="187.29" y1="229.03" x2="186.77" y2="228.13"/>
    <line class="cls-2" x1="189.91" y1="227.44" x2="189.37" y2="226.56"/>
    <line class="cls-2" x1="192.5" y1="225.79" x2="191.93" y2="224.92"/>
    <line class="cls-2" x1="195.03" y1="224.06" x2="194.44" y2="223.21"/>
    <line class="cls-2" x1="197.53" y1="222.28" x2="196.91" y2="221.44"/>
    <line class="cls-2" x1="199.97" y1="220.42" x2="199.33" y2="219.61"/>
    <line class="cls-2" x1="202.36" y1="218.51" x2="201.71" y2="217.71"/>
    <line class="cls-2" x1="204.71" y1="216.53" x2="204.03" y2="215.75"/>
    <line class="cls-2" x1="207" y1="214.49" x2="206.3" y2="213.73"/>
    <line class="cls-2" x1="209.24" y1="212.4" x2="208.52" y2="211.65"/>
    <line class="cls-2" x1="211.42" y1="210.24" x2="210.68" y2="209.51"/>
    <line class="cls-2" x1="213.54" y1="208.03" x2="212.79" y2="207.32"/>
    <line class="cls-2" x1="215.61" y1="205.76" x2="214.83" y2="205.07"/>
    <line class="cls-2" x1="217.61" y1="203.44" x2="216.82" y2="202.77"/>
    <line class="cls-2" x1="219.56" y1="201.07" x2="218.75" y2="200.42"/>
    <line class="cls-2" x1="221.44" y1="198.65" x2="220.61" y2="198.02"/>
    <line class="cls-2" x1="223.26" y1="196.18" x2="222.41" y2="195.57"/>
    <line class="cls-2" x1="225.01" y1="193.66" x2="224.15" y2="193.08"/>
    <line class="cls-2" x1="226.69" y1="191.1" x2="225.82" y2="190.54"/>
    <line class="cls-2" x1="228.31" y1="188.49" x2="227.42" y2="187.96"/>
    <line class="cls-2" x1="229.86" y1="185.85" x2="228.96" y2="185.34"/>
    <line class="cls-2" x1="231.34" y1="183.16" x2="230.43" y2="182.67"/>
    <line class="cls-2" x1="232.75" y1="180.44" x2="231.82" y2="179.97"/>
    <line class="cls-2" x1="234.09" y1="177.68" x2="233.15" y2="177.24"/>
    <line class="cls-2" x1="235.35" y1="174.88" x2="234.4" y2="174.47"/>
    <line class="cls-2" x1="236.54" y1="172.06" x2="235.58" y2="171.67"/>
    <line class="cls-2" x1="237.66" y1="169.2" x2="236.69" y2="168.84"/>
    <line class="cls-2" x1="238.7" y1="166.32" x2="237.72" y2="165.98"/>
    <line class="cls-2" x1="239.66" y1="163.41" x2="238.67" y2="163.09"/>
    <line class="cls-2" x1="240.55" y1="160.47" x2="239.55" y2="160.18"/>
    <line class="cls-2" x1="241.36" y1="157.51" x2="240.36" y2="157.25"/>
    <line class="cls-2" x1="242.1" y1="154.54" x2="241.09" y2="154.3"/>
    <line class="cls-2" x1="242.75" y1="151.54" x2="241.74" y2="151.33"/>
    <line class="cls-2" x1="243.33" y1="148.53" x2="242.31" y2="148.35"/>
    <line class="cls-2" x1="243.83" y1="145.5" x2="242.8" y2="145.35"/>
    <line class="cls-2" x1="244.24" y1="142.46" x2="243.22" y2="142.34"/>
    <line class="cls-2" x1="244.58" y1="139.42" x2="243.55" y2="139.31"/>
    <line class="cls-2" x1="244.84" y1="136.36" x2="243.81" y2="136.29"/>
    <line class="cls-2" x1="245.02" y1="133.3" x2="243.99" y2="133.25"/>
    <line class="cls-2" x1="245.12" y1="130.23" x2="244.08" y2="130.21"/>
    <line class="cls-2" x1="245.14" y1="127.17" x2="244.1" y2="127.17"/>
    <line class="cls-2" x1="245.08" y1="124.1" x2="244.04" y2="124.14"/>
    <line class="cls-2" x1="244.93" y1="121.04" x2="243.9" y2="121.1"/>
    <line class="cls-2" x1="244.71" y1="117.98" x2="243.68" y2="118.07"/>
    <line class="cls-2" x1="244.41" y1="114.93" x2="243.38" y2="115.04"/>
    <line class="cls-2" x1="244.03" y1="111.88" x2="243" y2="112.03"/>
    <line class="cls-2" x1="243.57" y1="108.85" x2="242.54" y2="109.02"/>
    <line class="cls-2" x1="243.02" y1="105.83" x2="242.01" y2="106.03"/>
    <line class="cls-2" x1="242.41" y1="102.83" x2="241.39" y2="103.05"/>
    <line class="cls-2" x1="241.71" y1="99.84" x2="240.7" y2="100.09"/>
    <line class="cls-2" x1="240.93" y1="96.88" x2="239.93" y2="97.15"/>
    <line class="cls-2" x1="240.08" y1="93.93" x2="239.09" y2="94.23"/>
    <line class="cls-2" x1="239.15" y1="91.01" x2="238.16" y2="91.34"/>
    <line class="cls-2" x1="238.14" y1="88.11" x2="237.17" y2="88.47"/>
    <line class="cls-2" x1="237.06" y1="85.24" x2="236.09" y2="85.62"/>
    <line class="cls-2" x1="235.9" y1="82.4" x2="234.95" y2="82.81"/>
    <line class="cls-2" x1="234.67" y1="79.59" x2="233.73" y2="80.02"/>
    <line class="cls-2" x1="233.37" y1="76.82" x2="232.44" y2="77.27"/>
    <line class="cls-2" x1="231.99" y1="74.08" x2="231.07" y2="74.56"/>
    <line class="cls-2" x1="230.55" y1="71.37" x2="229.64" y2="71.88"/>
    <line class="cls-2" x1="229.03" y1="68.71" x2="228.13" y2="69.23"/>
    <line class="cls-2" x1="227.44" y1="66.09" x2="226.56" y2="66.63"/>
    <line class="cls-2" x1="225.79" y1="63.5" x2="224.92" y2="64.07"/>
    <line class="cls-2" x1="224.06" y1="60.97" x2="223.21" y2="61.56"/>
    <line class="cls-2" x1="222.28" y1="58.47" x2="221.44" y2="59.09"/>
    <line class="cls-2" x1="220.42" y1="56.03" x2="219.61" y2="56.67"/>
    <line class="cls-2" x1="218.51" y1="53.64" x2="217.71" y2="54.29"/>
    <line class="cls-2" x1="216.53" y1="51.29" x2="215.75" y2="51.97"/>
    <line class="cls-2" x1="214.49" y1="49" x2="213.73" y2="49.7"/>
    <line class="cls-2" x1="212.4" y1="46.76" x2="211.65" y2="47.48"/>
    <line class="cls-2" x1="210.24" y1="44.58" x2="209.51" y2="45.32"/>
    <line class="cls-2" x1="208.03" y1="42.46" x2="207.32" y2="43.21"/>
    <line class="cls-2" x1="205.76" y1="40.39" x2="205.07" y2="41.17"/>
    <line class="cls-2" x1="203.44" y1="38.39" x2="202.77" y2="39.18"/>
    <line class="cls-2" x1="201.07" y1="36.44" x2="200.42" y2="37.25"/>
    <line class="cls-2" x1="198.65" y1="34.56" x2="198.02" y2="35.39"/>
    <line class="cls-2" x1="196.18" y1="32.74" x2="195.57" y2="33.59"/>
    <line class="cls-2" x1="193.66" y1="30.99" x2="193.08" y2="31.85"/>
    <line class="cls-2" x1="191.1" y1="29.31" x2="190.54" y2="30.18"/>
    <line class="cls-2" x1="188.49" y1="27.69" x2="187.96" y2="28.58"/>
    <line class="cls-2" x1="185.85" y1="26.14" x2="185.34" y2="27.04"/>
    <line class="cls-2" x1="183.16" y1="24.66" x2="182.67" y2="25.57"/>
    <line class="cls-2" x1="180.44" y1="23.25" x2="179.97" y2="24.18"/>
    <line class="cls-2" x1="177.68" y1="21.91" x2="177.24" y2="22.85"/>
    <line class="cls-2" x1="174.88" y1="20.65" x2="174.47" y2="21.6"/>
    <line class="cls-2" x1="172.06" y1="19.46" x2="171.67" y2="20.42"/>
    <line class="cls-2" x1="169.2" y1="18.34" x2="168.84" y2="19.31"/>
    <line class="cls-2" x1="166.32" y1="17.3" x2="165.98" y2="18.28"/>
    <line class="cls-2" x1="163.41" y1="16.34" x2="163.09" y2="17.33"/>
    <line class="cls-2" x1="160.47" y1="15.45" x2="160.18" y2="16.45"/>
  </g>
  <g id="Layer_4" data-name="Layer 4">
    <circle class="cls-1" cx="140.64" cy="26.39" r="3.45"/>
    <circle class="cls-1" cx="189.75" cy="46.32" r="3.45"/>
    <circle class="cls-1" cx="222.32" cy="88.14" r="3.45"/>
    <circle class="cls-1" cx="229.61" cy="140.64" r="3.45"/>
    <circle class="cls-1" cx="209.67" cy="189.75" r="3.45"/>
    <circle class="cls-1" cx="167.85" cy="222.32" r="3.45"/>
    <circle class="cls-1" cx="115.35" cy="229.61" r="3.45"/>
    <circle class="cls-1" cx="66.24" cy="209.68" r="3.45"/>
    <circle class="cls-1" cx="33.68" cy="167.86" r="3.45"/>
    <circle class="cls-1" cx="26.39" cy="115.36" r="3.45"/>
    <circle class="cls-1" cx="46.32" cy="66.24" r="3.45"/>
    <circle class="cls-1" cx="88.14" cy="33.68" r="3.45"/>
  </g>
  <g id="Layer_7" data-name="Layer 7">
    <circle class="cls-1" cx="189.75" cy="46.32" r="3.45"/>
    <circle class="cls-3" cx="166.51" cy="33.12" r="1.92"/>
    <circle class="cls-3" cx="208.79" cy="65.09" r="1.92"/>
    <circle class="cls-3" cx="229.42" cy="113.91" r="1.92"/>
    <circle class="cls-3" cx="222.88" cy="166.51" r="1.92"/>
    <circle class="cls-3" cx="190.91" cy="208.79" r="1.92"/>
    <circle class="cls-3" cx="142.09" cy="229.42" r="1.92"/>
    <circle class="cls-3" cx="89.49" cy="222.88" r="1.92"/>
    <circle class="cls-3" cx="47.21" cy="190.91" r="1.92"/>
    <circle class="cls-3" cx="26.58" cy="142.09" r="1.92"/>
    <circle class="cls-3" cx="33.12" cy="89.49" r="1.92"/>
    <circle class="cls-3" cx="65.09" cy="47.21" r="1.92"/>
    <circle class="cls-3" cx="113.91" cy="26.58" r="1.92"/>
  </g>
  <g id="Layer_10" data-name="Layer 10">
    <g>
      <circle class="cls-3" cx="127.27" cy="25.61" r="1.92"/>
      <path class="cls-1" d="m127.27,23.68c1.06,0,1.92.86,1.92,1.92s-.86,1.92-1.92,1.92v-3.85Z"/>
    </g>
    <g>
      <circle class="cls-3" cx="153.8" cy="28.91" r="1.92"/>
      <path class="cls-1" d="m153.3,30.77c-1.03-.28-1.64-1.33-1.36-2.36s1.33-1.64,2.36-1.36l-1,3.72Z"/>
    </g>
    <g>
      <circle class="cls-3" cx="178.56" cy="38.96" r="1.92"/>
      <path class="cls-1" d="m179.53,37.3c.92.53,1.24,1.71.7,2.63s-1.71,1.24-2.63.7l1.92-3.33Z"/>
    </g>
    <g>
      <circle class="cls-3" cx="199.89" cy="55.08" r="1.92"/>
      <path class="cls-1" d="m198.53,56.44c-.75-.75-.75-1.97,0-2.72s1.97-.75,2.72,0l-2.72,2.72Z"/>
    </g>
    <g>
      <circle class="cls-3" cx="216.31" cy="76.17" r="1.92"/>
      <path class="cls-1" d="m217.98,75.21c.53.92.22,2.1-.7,2.63s-2.1.22-2.63-.7l3.33-1.92Z"/>
    </g>
    <g>
      <circle class="cls-3" cx="226.71" cy="100.8" r="1.92"/>
      <path class="cls-1" d="m224.86,101.29c-.28-1.03.33-2.08,1.36-2.36s2.08.33,2.36,1.36l-3.72,1Z"/>
    </g>
    <g>
      <circle class="cls-3" cx="230.39" cy="127.27" r="1.92"/>
      <path class="cls-1" d="m232.32,127.27c0,1.06-.86,1.92-1.92,1.92s-1.92-.86-1.92-1.92h3.85Z"/>
    </g>
    <g>
      <circle class="cls-3" cx="227.09" cy="153.8" r="1.92"/>
      <path class="cls-1" d="m225.23,153.3c.28-1.03,1.33-1.64,2.36-1.36s1.64,1.33,1.36,2.36l-3.72-1Z"/>
    </g>
    <g>
      <circle class="cls-3" cx="217.04" cy="178.56" r="1.92"/>
      <path class="cls-1" d="m218.7,179.53c-.53.92-1.71,1.24-2.63.7-.92-.53-1.24-1.71-.7-2.63l3.33,1.92Z"/>
    </g>
    <g>
      <circle class="cls-3" cx="200.92" cy="199.89" r="1.92"/>
      <path class="cls-1" d="m199.56,198.53c.75-.75,1.97-.75,2.72,0s.75,1.97,0,2.72l-2.72-2.72Z"/>
    </g>
    <g>
      <circle class="cls-3" cx="179.83" cy="216.31" r="1.92"/>
      <path class="cls-1" d="m180.79,217.98c-.92.53-2.1.22-2.63-.7-.53-.92-.22-2.1.7-2.63l1.92,3.33Z"/>
    </g>
    <g>
      <circle class="cls-3" cx="155.2" cy="226.71" r="1.92"/>
      <path class="cls-1" d="m154.71,224.86c1.03-.28,2.08.33,2.36,1.36s-.33,2.08-1.36,2.36l-1-3.72Z"/>
    </g>
    <g>
      <circle class="cls-3" cx="128.73" cy="230.39" r="1.92"/>
      <path class="cls-1" d="m128.73,232.32c-1.06,0-1.92-.86-1.92-1.92,0-1.06.86-1.92,1.92-1.92v3.85Z"/>
    </g>
    <g>
      <circle class="cls-3" cx="102.2" cy="227.09" r="1.92"/>
      <path class="cls-1" d="m102.7,225.23c1.03.28,1.64,1.33,1.36,2.36s-1.33,1.64-2.36,1.36l1-3.72Z"/>
    </g>
    <g>
      <circle class="cls-3" cx="77.44" cy="217.04" r="1.92"/>
      <path class="cls-1" d="m76.47,218.7c-.92-.53-1.24-1.71-.7-2.63.53-.92,1.71-1.24,2.63-.7l-1.92,3.33Z"/>
    </g>
    <g>
      <circle class="cls-3" cx="56.11" cy="200.92" r="1.92"/>
      <path class="cls-1" d="m57.47,199.56c.75.75.75,1.97,0,2.72s-1.97.75-2.72,0l2.72-2.72Z"/>
    </g>
    <g>
      <circle class="cls-3" cx="39.69" cy="179.83" r="1.92"/>
      <path class="cls-1" d="m38.02,180.79c-.53-.92-.22-2.1.7-2.63.92-.53,2.1-.22,2.63.7l-3.33,1.92Z"/>
    </g>
    <g>
      <circle class="cls-3" cx="29.29" cy="155.2" r="1.92"/>
      <path class="cls-1" d="m31.14,154.71c.28,1.03-.33,2.08-1.36,2.36s-2.08-.33-2.36-1.36l3.72-1Z"/>
    </g>
    <g>
      <circle class="cls-3" cx="25.61" cy="128.73" r="1.92"/>
      <path class="cls-1" d="m23.68,128.73c0-1.06.86-1.92,1.92-1.92,1.06,0,1.92.86,1.92,1.92h-3.85Z"/>
    </g>
    <g>
      <circle class="cls-3" cx="28.91" cy="102.2" r="1.92"/>
      <path class="cls-1" d="m30.77,102.7c-.28,1.03-1.33,1.64-2.36,1.36s-1.64-1.33-1.36-2.36l3.72,1Z"/>
    </g>
    <g>
      <circle class="cls-3" cx="38.96" cy="77.44" r="1.92"/>
      <path class="cls-1" d="m37.3,76.47c.53-.92,1.71-1.24,2.63-.7.92.53,1.24,1.71.7,2.63l-3.33-1.92Z"/>
    </g>
    <g>
      <circle class="cls-3" cx="55.08" cy="56.11" r="1.92"/>
      <path class="cls-1" d="m56.44,57.47c-.75.75-1.97.75-2.72,0s-.75-1.97,0-2.72l2.72,2.72Z"/>
    </g>
    <g>
      <circle class="cls-3" cx="76.17" cy="39.69" r="1.92"/>
      <path class="cls-1" d="m75.21,38.02c.92-.53,2.1-.22,2.63.7.53.92.22,2.1-.7,2.63l-1.92-3.33Z"/>
    </g>
    <g>
      <circle class="cls-3" cx="100.8" cy="29.29" r="1.92"/>
      <path class="cls-1" d="m101.29,31.14c-1.03.28-2.08-.33-2.36-1.36s.33-2.08,1.36-2.36l1,3.72Z"/>
    </g>
  </g>
  <g id="Layer_13" data-name="Layer 13">
    <line class="cls-2" x1="136.87" y1="56.72" x2="137.18" y2="54.19"/>
    <line class="cls-2" x1="100.04" y1="61.83" x2="99.05" y2="59.49"/>
    <line class="cls-2" x1="70.7" y1="84.68" x2="68.67" y2="83.14"/>
    <line class="cls-2" x1="56.72" y1="119.13" x2="54.19" y2="118.82"/>
    <line class="cls-2" x1="61.83" y1="155.96" x2="59.49" y2="156.95"/>
    <line class="cls-2" x1="84.68" y1="185.3" x2="83.14" y2="187.33"/>
    <line class="cls-2" x1="119.13" y1="199.28" x2="118.82" y2="201.81"/>
    <line class="cls-2" x1="155.96" y1="194.17" x2="156.95" y2="196.51"/>
    <line class="cls-2" x1="185.3" y1="171.32" x2="187.33" y2="172.86"/>
    <line class="cls-2" x1="199.28" y1="136.87" x2="201.81" y2="137.18"/>
    <line class="cls-2" x1="194.17" y1="100.04" x2="196.51" y2="99.05"/>
    <line class="cls-2" x1="172.86" y1="68.67" x2="171.32" y2="70.7"/>
    <g>
      <circle class="cls-2" cx="135.53" cy="67.46" r="10.83"/>
      <line class="cls-2" x1="138.45" y1="77.89" x2="140.28" y2="63.22"/>
      <line class="cls-2" x1="135.06" y1="71.22" x2="136.87" y2="56.71"/>
      <line class="cls-2" x1="130.14" y1="76.85" x2="131.97" y2="62.19"/>
      <line class="cls-2" x1="135.86" y1="64.81" x2="145.13" y2="72.48"/>
      <line class="cls-2" x1="135.86" y1="64.81" x2="125" y2="69.97"/>
      <line class="cls-2" x1="133.62" y1="65.87" x2="134.42" y2="59.45"/>
      <line class="cls-2" x1="137.77" y1="66.39" x2="138.57" y2="59.97"/>
    </g>
    <g>
      <circle class="cls-2" cx="164.8" cy="79.33" r="10.83"/>
      <line class="cls-2" x1="164.85" y1="79.27" x2="158.27" y2="87.97"/>
      <path class="cls-2" d="m156.16,72.8c6.49,1.47,10.94,11.44,17.28,13.06"/>
      <path class="cls-2" d="m156.5,75.26c2.51,1.18,4.74,3.51,6.95,5.86"/>
      <path class="cls-2" d="m156.78,78.08c1.85,1.27,3.56,3.07,5.27,4.88"/>
    </g>
    <g>
      <path class="cls-2" d="m179.98,94.28c-3.76,1.59-6.15,5.05-6.55,8.84-.19,1.77.05,3.61.79,5.35s1.89,3.2,3.29,4.3c2.99,2.35,7.14,3.05,10.9,1.46,5.51-2.33,8.08-8.69,5.75-14.19-2.33-5.51-8.69-8.08-14.19-5.75Z"/>
      <line class="cls-2" x1="194.17" y1="100.03" x2="180.19" y2="114.31"/>
      <line class="cls-2" x1="194.17" y1="100.03" x2="182.43" y2="100.09"/>
      <line class="cls-2" x1="174.22" y1="108.47" x2="194.17" y2="100.03"/>
      <line class="cls-2" x1="184.2" y1="104.25" x2="179.98" y2="94.28"/>
    </g>
    <g>
      <path class="cls-2" d="m199.29,136.87c-.74,5.93-6.15,10.15-12.08,9.41-1.96-.24-3.73-1-5.19-2.11-2.98-2.25-4.71-5.99-4.22-9.97.49-3.98,3.09-7.18,6.53-8.63,1.69-.72,3.59-1.02,5.55-.78,5.93.74,10.15,6.15,9.41,12.08Z"/>
      <path class="cls-2" d="m184.33,125.56c2.98,2.25,4.71,5.99,4.21,9.97s-3.09,7.18-6.53,8.63"/>
      <line class="cls-2" x1="194.63" y1="136.29" x2="177.8" y2="134.2"/>
      <line class="cls-2" x1="199.29" y1="136.87" x2="194.96" y2="133.6"/>
    </g>
    <g>
      <circle class="cls-2" cx="176.67" cy="164.79" r="10.83"/>
      <line class="cls-2" x1="176.67" y1="164.79" x2="168.03" y2="158.25"/>
      <rect class="cls-2" x="172.25" y="160.37" width="8.84" height="8.84" transform="translate(-20.99 25.87) rotate(-7.91)"/>
      <rect class="cls-2" x="176.95" y="164.46" width="4.42" height="4.42" transform="translate(-21.23 26.23) rotate(-7.91)"/>
    </g>
    <g>
      <path class="cls-2" d="m141.77,188.41c-2.33-5.51.25-11.86,5.76-14.19,1.82-.77,3.73-1,5.55-.76,3.71.46,7.08,2.83,8.64,6.52s.92,7.76-1.34,10.74c-1.1,1.47-2.6,2.68-4.42,3.45-5.51,2.33-11.86-.25-14.19-5.76Z"/>
      <g>
        <path class="cls-2" d="m150.34,180.87c3.67-1.55,7.91.17,9.46,3.84.51,1.21.67,2.48.51,3.7-.31,2.47-1.89,4.72-4.35,5.76s-5.18.61-7.16-.89c-.98-.74-1.79-1.73-2.3-2.95-1.55-3.67.17-7.91,3.84-9.46Z"/>
        <path class="cls-2" d="m147.53,174.22c3.67-1.55,7.91.17,9.46,3.84.51,1.21.67,2.48.51,3.7-.31,2.47-1.89,4.72-4.35,5.76s-5.18.61-7.16-.89c-.98-.74-1.79-1.73-2.3-2.95-1.55-3.67.17-7.91,3.84-9.46Z"/>
      </g>
      <line class="cls-2" x1="153.15" y1="187.52" x2="147.53" y2="174.22"/>
    </g>
    <g>
      <circle class="cls-2" cx="120.47" cy="188.54" r="10.83" transform="translate(-81.4 285.04) rotate(-82.97)"/>
      <line class="cls-2" x1="119.14" y1="199.29" x2="120.47" y2="188.54"/>
      <line class="cls-2" x1="121.8" y1="191.68" x2="120.47" y2="188.54"/>
      <line class="cls-2" x1="126.48" y1="193.08" x2="120.47" y2="188.54"/>
      <line class="cls-2" x1="123.61" y1="187.21" x2="120.47" y2="188.54"/>
      <line class="cls-2" x1="125" y1="182.53" x2="120.47" y2="188.54"/>
      <line class="cls-2" x1="121.79" y1="177.79" x2="120.47" y2="188.54"/>
      <line class="cls-2" x1="119.14" y1="185.4" x2="120.47" y2="188.54"/>
      <line class="cls-2" x1="114.45" y1="184.01" x2="120.47" y2="188.54"/>
      <line class="cls-2" x1="117.33" y1="189.87" x2="120.47" y2="188.54"/>
      <line class="cls-2" x1="115.93" y1="194.56" x2="120.47" y2="188.54"/>
    </g>
    <g>
      <circle class="cls-2" cx="91.2" cy="176.67" r="10.83"/>
      <polyline class="cls-2" points="98.21 171.7 86.94 186.63 95.66 180.03 94.57 172.21"/>
      <polyline class="cls-2" points="94.06 168.57 82.79 183.51 86.75 173.31 94.57 172.21"/>
      <line class="cls-2" x1="97.73" y1="168.02" x2="94.57" y2="172.21"/>
    </g>
    <g>
      <circle class="cls-2" cx="71.8" cy="151.75" r="10.83"/>
      <line class="cls-2" x1="67.59" y1="141.77" x2="67.81" y2="161.82"/>
      <polyline class="cls-2" points="70.54 156.28 81.78 147.53 67.67 149.49"/>
      <line class="cls-2" x1="61.8" y1="147.6" x2="76.02" y2="161.73"/>
      <line class="cls-2" x1="67.82" y1="158.4" x2="76.02" y2="161.73"/>
      <line class="cls-2" x1="64.26" y1="149.97" x2="67.59" y2="141.77"/>
    </g>
    <g>
      <circle class="cls-2" cx="67.46" cy="120.47" r="10.84" transform="translate(-16.71 11.02) rotate(-8.31)"/>
      <line class="cls-2" x1="67.46" y1="120.47" x2="78.21" y2="121.8"/>
      <line class="cls-2" x1="67.46" y1="120.47" x2="57.48" y2="124.69"/>
      <line class="cls-2" x1="67.46" y1="120.47" x2="58.91" y2="127.13"/>
      <line class="cls-2" x1="67.46" y1="120.47" x2="60.93" y2="129.11"/>
    </g>
    <g>
      <circle class="cls-2" cx="79.34" cy="91.21" r="10.84"/>
      <path class="cls-2" d="m75.13,82.7c4.78,3.61,5.73,10.4,2.12,15.18-.88,1.17-1.96,2.11-3.15,2.81-.44-.24-.88-.52-1.29-.83-4.78-3.61-5.73-10.4-2.12-15.18.88-1.17,1.96-2.11,3.15-2.81.44.24.88.52,1.29.83Z"/>
      <line class="cls-2" x1="79.34" y1="91.21" x2="87.99" y2="97.74"/>
      <line class="cls-2" x1="77.36" y1="93.83" x2="81.32" y2="88.58"/>
    </g>
    <g>
      <polyline class="cls-2" points="100.03 61.83 104.25 71.81 101.96 78.61 108.47 81.79"/>
      <polyline class="cls-2" points="108.64 69.96 106.34 76.76 111.91 79.48"/>
      <circle class="cls-2" cx="104.25" cy="71.81" r="10.84" transform="translate(-19.73 46.24) rotate(-22.91)"/>
    </g>
  </g>
  <g id="Layer_19" data-name="Layer 19">
    <line class="cls-2" x1="134.2" y1="78.2" x2="133.12" y2="86.88"/>
    <line class="cls-2" x1="108.47" y1="81.78" x2="111.87" y2="89.83"/>
    <line class="cls-2" x1="87.97" y1="97.74" x2="94.95" y2="103.01"/>
    <line class="cls-2" x1="78.2" y1="121.8" x2="86.88" y2="122.88"/>
    <line class="cls-2" x1="81.78" y1="147.53" x2="89.83" y2="144.13"/>
    <line class="cls-2" x1="97.74" y1="168.03" x2="103.01" y2="161.05"/>
    <line class="cls-2" x1="121.8" y1="177.8" x2="122.88" y2="169.12"/>
    <line class="cls-2" x1="147.53" y1="174.22" x2="144.13" y2="166.17"/>
    <line class="cls-2" x1="168.03" y1="158.26" x2="161.05" y2="152.99"/>
    <line class="cls-2" x1="177.8" y1="134.2" x2="169.12" y2="133.12"/>
    <line class="cls-2" x1="174.22" y1="108.47" x2="166.17" y2="111.87"/>
    <line class="cls-2" x1="158.26" y1="87.97" x2="152.99" y2="94.95"/>
  </g>
</svg>