<?xml version="1.0" encoding="UTF-8"?>
<svg id="Layer_1" data-name="Layer 1" xmlns="http://www.w3.org/2000/svg" xmlns:xlink="http://www.w3.org/1999/xlink" viewBox="0 0 347.79 794.52">
  <defs>
    <style>
      .cls-1 {
        fill: #e6e6e6;
      }

      .cls-2 {
        fill: url(#linear-gradient);
      }
    </style>
    <linearGradient id="linear-gradient" x1="59.52" y1="-127.38" x2="320.62" y2="676.2" gradientUnits="userSpaceOnUse">
      <stop offset="0" stop-color="#fff"/>
      <stop offset="1" stop-color="#000"/>
    </linearGradient>
  </defs>
  <polygon points="174.63 147.71 173.61 172.15 173.16 196.09 173.88 220.02 174.58 243.95 173.23 267.89 173.58 291.82 174.06 315.76 174.53 339.69 173.14 363.63 174.61 387.56 174.68 411.5 173.66 435.44 174.6 459.38 174.27 483.31 174.34 507.25 173.8 531.19 174.7 555.12 174.16 579.06 174.4 603 173.85 626.93 173.4 650.87 174.01 674.81 173.15 698.75 174.76 722.69 173.68 746.63 172.9 770.58 174.01 794.63 150.41 794.21 126.92 794.8 103.43 794.92 79.94 794.7 56.45 794.92 32.43 795.02 33.83 770.17 32.09 745.8 33.01 721.44 33.6 697.08 33.73 672.72 32.93 648.36 33.73 624 32.1 599.64 32.1 575.28 32.05 550.91 33.53 526.55 33.05 502.19 33.74 477.83 32.44 453.46 33.65 429.1 32.18 404.74 33.3 380.37 32.92 356.01 32.86 331.64 32.64 307.28 33.03 282.92 33.81 258.55 33.53 234.19 32.5 209.82 33.28 185.46 32 161.09 32.02 136.72 33.15 112.35 32.76 87.66 56.22 98.53 79.59 108.85 103.59 117.7 126.69 128.66 150.47 138.01 174.63 147.71"/>
  <polygon class="cls-2" points="314.74 88.14 315.45 112.34 314.69 136.7 314.35 161.06 314.37 185.42 315.22 209.78 315.62 234.14 314.98 258.5 315.56 282.86 314.57 307.22 315.01 331.59 315.68 355.95 314.98 380.31 314 404.67 314.92 429.04 314.04 453.4 313.98 477.76 315.3 502.13 314.08 526.49 315.37 550.86 314.31 575.22 314.53 599.58 314.36 623.95 314.97 648.31 315.57 672.68 313.95 697.04 315.43 721.41 314.98 745.78 313.99 770.15 315.07 794.74 291.35 793.58 267.86 794.2 244.37 794.55 220.88 794.57 197.39 795.48 173.88 794.54 171.64 770.96 173.08 746.66 174.06 722.72 173.15 698.75 173.18 674.85 172.45 650.6 173.07 626.78 173.97 603.05 173.64 579.11 173.76 555.18 173.5 531.24 172.94 507.3 173.73 483.37 173.58 459.43 173.63 435.49 172.93 411.55 173.44 387.62 173.14 363.63 174.53 339.69 173.34 315.81 173.73 291.87 172.45 267.85 174.38 243.99 173.14 220.05 173.16 196.09 173.61 172.15 173.17 147.72 197.04 137.37 220.9 128.2 244.3 117.96 267.95 108.28 291.41 98.17 314.74 88.14"/>
  <polygon class="cls-1" points="314.74 88.14 291.5 98.37 269.03 108.54 244.53 118.19 221.17 128.82 197.67 138.85 173.17 147.72 150.06 139 126.69 128.66 103.21 118.62 79.59 108.85 56.22 98.53 32.76 87.66 56.73 78.62 79.77 67.51 103.24 57.44 126.96 47.93 150.63 38.31 173.9 28.68 197.52 37.45 221.16 47.14 244.48 57.59 268.09 67.34 291.43 77.74 314.74 88.14"/>
</svg>