<?xml version="1.0" encoding="UTF-8"?>
<svg id="building" xmlns="http://www.w3.org/2000/svg" viewBox="0 0 448.8 175.26">
  <defs>
    <style>
      .cls-1, .cls-2, .cls-3, .cls-4, .cls-5 {
        fill: none;
      }

      .cls-1, .cls-2, .cls-4 {
        stroke: #4d4d4d;
        stroke-linecap: round;
        stroke-linejoin: round;
      }

      .cls-2 {
        stroke-width: 3px;
      }

      .cls-6 {
        opacity: .1;
      }

      .cls-7 {
        fill: #303030;
      }

      .cls-8 {
        fill: #333;
      }

      .cls-9, .cls-10 {
        fill: #1e1e1e;
      }

      .cls-11 {
        fill: #232323;
      }

      .cls-12 {
        fill: #141414;
      }

      .cls-13 {
        fill: #111;
      }

      .cls-14 {
        fill: #1c1c1c;
      }

      .cls-15 {
        fill: #1a1a1a;
      }

      .cls-16 {
        fill: #262626;
      }

      .cls-17 {
        fill: #fff;
        stroke: #000;
      }

      .cls-17, .cls-3, .cls-10, .cls-5 {
        stroke-miterlimit: 10;
      }

      .cls-17, .cls-4 {
        stroke-width: 2px;
      }

      .cls-3 {
        stroke: #1c1c1c;
        stroke-linecap: square;
        stroke-width: 5px;
      }

      .cls-10 {
        stroke: #1a1a1a;
      }

      .cls-18 {
        opacity: .15;
      }

      .cls-5 {
        stroke: #3d3d3d;
        stroke-width: .5px;
      }
    </style>
  </defs>
  <g>
    <rect class="cls-14" x="0" y="87.63" width="161.02" height="87.63"/>
    <rect class="cls-11" x="92.45" y="131.44" width="68.57" height="11.44"/>
    <rect class="cls-11" x="8.27" y="131.44" width="68.57" height="11.44"/>
    <rect class="cls-9" x="8.37" y="87.63" width="152.65" height="3.63"/>
    <rect class="cls-8" x="76.94" y="91.26" width="15.51" height="84"/>
    <rect class="cls-8" x="0" y="87.63" width="8.37" height="87.63"/>
    <g>
      <rect class="cls-17" x="107.85" y="92.3" width="37.81" height="38.16"/>
      <rect class="cls-17" x="93.51" y="105.29" width="14.34" height="25.18"/>
      <rect class="cls-17" x="93.51" y="92.3" width="14.34" height="12.99"/>
      <rect class="cls-17" x="145.66" y="105.29" width="14.34" height="25.18"/>
      <rect class="cls-17" x="145.66" y="92.3" width="14.34" height="12.99"/>
    </g>
    <rect class="cls-11" x="8.37" y="164.73" width="152.65" height="10.52"/>
    <g>
      <rect class="cls-17" x="9.41" y="105.29" width="28.68" height="25.18"/>
      <rect class="cls-17" x="9.41" y="92.3" width="14.34" height="12.99"/>
      <rect class="cls-17" x="23.75" y="92.3" width="14.34" height="12.99"/>
    </g>
    <rect class="cls-12" x="42.15" y="93.21" width="30.93" height="68.1"/>
    <rect class="cls-15" x="25.57" y="113.79" width="64.1" height="26.93" transform="translate(184.87 69.64) rotate(90)"/>
    <rect class="cls-12" x="46.91" y="126.28" width="5.69" height="1.39" rx=".7" ry=".7"/>
    <path class="cls-6" d="m53.53,128.65h-3.09l-1.37-.98h-1.39l1.37,1.02c-.29.08-.51.34-.51.66,0,.38.31.7.7.7h4.3c.38,0,.7-.31.7-.7s-.31-.7-.7-.7Z"/>
    <polygon class="cls-18" points="103.33 130.46 103.33 97.35 161.02 97.35 161.02 91.26 11.06 91.26 11.06 87.63 8.37 87.63 8.37 127.67 8.37 130.46 8.37 142.88 8.27 142.88 8.27 146.14 8.37 146.14 8.37 160.95 8.37 164.23 8.37 164.73 8.37 175.26 11.07 175.26 11.07 164.73 17.71 164.73 17.71 146.14 42.15 146.14 42.15 142.88 17.71 142.88 14.8 142.88 14.8 130.46 18.81 130.46 18.81 97.35 76.94 97.35 76.94 94.12 92.45 94.12 92.45 97.35 92.45 127.67 92.45 130.46 92.45 142.88 92.45 146.14 92.45 164.23 92.45 164.73 101.78 164.73 101.78 146.14 161.02 146.14 161.02 142.88 101.78 142.88 98.88 142.88 98.88 130.46 103.33 130.46"/>
    <g>
      <g>
        <line class="cls-4" x1="9.14" y1="164.73" x2="9.14" y2="134.7"/>
        <line class="cls-1" x1="16.57" y1="160.46" x2="16.57" y2="134.7"/>
        <line class="cls-1" x1="23.99" y1="160.46" x2="23.99" y2="134.7"/>
        <line class="cls-4" x1="31.42" y1="164.73" x2="31.42" y2="134.7"/>
        <line class="cls-1" x1="38.84" y1="160.46" x2="38.84" y2="134.7"/>
        <line class="cls-1" x1="46.27" y1="160.46" x2="46.27" y2="134.7"/>
        <line class="cls-4" x1="53.7" y1="164.73" x2="53.7" y2="134.7"/>
        <line class="cls-1" x1="61.12" y1="160.46" x2="61.12" y2="134.7"/>
        <line class="cls-1" x1="68.55" y1="160.46" x2="68.55" y2="134.7"/>
        <line class="cls-4" x1="75.98" y1="164.73" x2="75.98" y2="134.7"/>
      </g>
      <line class="cls-2" x1="7.22" y1="134.7" x2="77.89" y2="134.7"/>
      <line class="cls-1" x1="9.14" y1="160.95" x2="75.98" y2="160.95"/>
    </g>
  </g>
  <g>
    <rect class="cls-14" x="287.78" y="87.63" width="161.02" height="87.63" transform="translate(736.58 262.88) rotate(-180)"/>
    <rect class="cls-11" x="287.78" y="131.44" width="68.57" height="11.44" transform="translate(644.13 274.33) rotate(-180)"/>
    <rect class="cls-11" x="371.96" y="131.44" width="68.57" height="11.44" transform="translate(812.49 274.33) rotate(-180)"/>
    <rect class="cls-9" x="287.78" y="87.63" width="152.65" height="3.63" transform="translate(728.21 178.88) rotate(-180)"/>
    <rect class="cls-8" x="356.35" y="91.26" width="15.51" height="84" transform="translate(728.21 266.51) rotate(-180)"/>
    <rect class="cls-8" x="440.43" y="87.63" width="8.37" height="87.63" transform="translate(889.24 262.88) rotate(-180)"/>
    <g>
      <rect class="cls-17" x="303.14" y="92.3" width="37.81" height="38.16" transform="translate(644.1 222.77) rotate(-180)"/>
      <rect class="cls-17" x="340.95" y="105.29" width="14.34" height="25.18" transform="translate(696.24 235.75) rotate(-180)"/>
      <rect class="cls-17" x="340.95" y="92.3" width="14.34" height="12.99" transform="translate(696.24 197.59) rotate(-180)"/>
      <rect class="cls-17" x="288.8" y="105.29" width="14.34" height="25.18" transform="translate(591.95 235.75) rotate(-180)"/>
      <rect class="cls-17" x="288.8" y="92.3" width="14.34" height="12.99" transform="translate(591.95 197.59) rotate(-180)"/>
    </g>
    <rect class="cls-11" x="287.78" y="164.73" width="152.65" height="10.52" transform="translate(728.21 339.99) rotate(-180)"/>
    <g>
      <rect class="cls-17" x="410.71" y="105.29" width="28.68" height="25.18" transform="translate(850.1 235.75) rotate(-180)"/>
      <rect class="cls-17" x="425.05" y="92.3" width="14.34" height="12.99" transform="translate(864.44 197.59) rotate(-180)"/>
      <rect class="cls-17" x="410.71" y="92.3" width="14.34" height="12.99" transform="translate(835.76 197.59) rotate(-180)"/>
    </g>
    <rect class="cls-12" x="375.72" y="93.21" width="30.93" height="68.1" transform="translate(782.38 254.51) rotate(-180)"/>
    <rect class="cls-15" x="359.14" y="113.79" width="64.1" height="26.93" transform="translate(518.45 -263.93) rotate(90)"/>
    <rect class="cls-12" x="396.2" y="126.28" width="5.69" height="1.39" rx=".7" ry=".7" transform="translate(798.1 253.95) rotate(-180)"/>
    <path class="cls-6" d="m395.27,128.65h3.09s1.37-.98,1.37-.98h1.39s-1.37,1.02-1.37,1.02c.29.08.51.34.51.66,0,.38-.31.7-.7.7h-4.3c-.38,0-.7-.31-.7-.7,0-.38.31-.7.7-.7Z"/>
    <polygon class="cls-18" points="440.53 97.36 440.53 91.27 290.58 91.27 290.58 87.64 287.88 87.64 287.88 127.68 287.88 130.47 287.88 142.89 287.78 142.89 287.78 146.15 287.88 146.15 287.88 160.96 287.88 164.24 287.88 164.74 287.88 175.27 290.58 175.27 290.58 164.74 297.21 164.74 297.21 146.15 356.25 146.15 356.25 142.89 297.21 142.89 294.31 142.89 294.31 130.47 298.32 130.47 298.32 97.36 356.45 97.36 356.45 94.13 371.96 94.13 371.96 97.36 371.96 127.68 371.96 130.47 371.96 142.89 371.96 146.15 371.96 164.24 371.96 164.74 379.32 164.74 379.39 97.36 440.53 97.36"/>
    <g>
      <g>
        <line class="cls-4" x1="439.66" y1="164.73" x2="439.66" y2="134.7"/>
        <line class="cls-1" x1="432.24" y1="160.46" x2="432.24" y2="134.7"/>
        <line class="cls-1" x1="424.81" y1="160.46" x2="424.81" y2="134.7"/>
        <line class="cls-4" x1="417.39" y1="164.73" x2="417.39" y2="134.7"/>
        <line class="cls-1" x1="409.96" y1="160.46" x2="409.96" y2="134.7"/>
        <line class="cls-1" x1="402.53" y1="160.46" x2="402.53" y2="134.7"/>
        <line class="cls-4" x1="395.11" y1="164.73" x2="395.11" y2="134.7"/>
        <line class="cls-1" x1="387.68" y1="160.46" x2="387.68" y2="134.7"/>
        <line class="cls-1" x1="380.25" y1="160.46" x2="380.25" y2="134.7"/>
        <line class="cls-4" x1="372.83" y1="164.73" x2="372.83" y2="134.7"/>
      </g>
      <line class="cls-2" x1="441.58" y1="134.7" x2="370.91" y2="134.7"/>
      <line class="cls-1" x1="439.66" y1="160.95" x2="372.83" y2="160.95"/>
    </g>
  </g>
  <g>
    <rect class="cls-14" x="176.53" y="87.63" width="95.74" height="87.63"/>
    <rect class="cls-13" x="176.53" y="138.13" width="95.74" height="37.12" transform="translate(448.8 313.38) rotate(-180)"/>
    <g>
      <rect class="cls-12" x="230.7" y="90.51" width="4.53" height="42.42"/>
      <rect class="cls-10" x="235.22" y="125.34" width="38.05" height="6.98"/>
      <rect class="cls-10" x="235.22" y="118.36" width="38.05" height="6.98"/>
      <rect class="cls-10" x="235.22" y="111.38" width="38.05" height="6.98"/>
      <rect class="cls-10" x="235.22" y="104.41" width="38.05" height="6.98"/>
      <rect class="cls-10" x="235.22" y="97.43" width="38.05" height="6.98"/>
      <rect class="cls-10" x="235.22" y="90.45" width="38.05" height="6.98"/>
    </g>
    <rect class="cls-9" x="176.53" y="87.63" width="95.74" height="3.63" transform="translate(448.8 178.88) rotate(-180)"/>
    <rect class="cls-12" x="176.53" y="91.26" width="42.58" height="40.19"/>
    <polygon class="cls-18" points="219.11 91.26 182.81 91.26 176.53 91.26 176.53 99.35 176.53 131.44 193.25 131.16 185.86 99.35 219.11 99.35 219.11 91.26"/>
    <rect class="cls-18" x="219.11" y="91.26" width="11.59" height="3.81"/>
    <g class="cls-18">
      <polygon points="272.27 91.26 230.7 91.26 230.7 99.35 234.71 99.35 234.71 104.4 243.29 104.4 243.29 99.35 272.27 99.35 272.27 91.26"/>
      <rect x="234.71" y="104.45" width="6.68" height="6.92"/>
      <rect x="234.71" y="111.42" width="4.78" height="6.92"/>
      <rect x="234.71" y="118.4" width="2.88" height="6.92"/>
      <rect x="234.71" y="125.37" width=".98" height="6.92"/>
    </g>
    <g>
      <g>
        <line class="cls-3" x1="167.41" y1="144.5" x2="186.18" y2="163.27"/>
        <line class="cls-3" x1="180.87" y1="144.5" x2="199.63" y2="163.27"/>
        <line class="cls-3" x1="194.33" y1="144.5" x2="213.09" y2="163.27"/>
        <line class="cls-3" x1="207.79" y1="144.5" x2="226.55" y2="163.27"/>
        <line class="cls-3" x1="221.25" y1="144.5" x2="240.01" y2="163.27"/>
        <line class="cls-3" x1="234.7" y1="144.5" x2="253.47" y2="163.27"/>
        <line class="cls-3" x1="248.16" y1="144.5" x2="266.93" y2="163.27"/>
        <line class="cls-3" x1="261.62" y1="144.5" x2="280.39" y2="163.27"/>
      </g>
      <g>
        <line class="cls-3" x1="280.39" y1="144.5" x2="261.62" y2="163.27"/>
        <line class="cls-3" x1="266.93" y1="144.5" x2="248.16" y2="163.27"/>
        <line class="cls-3" x1="253.47" y1="144.5" x2="234.7" y2="163.27"/>
        <line class="cls-3" x1="240.01" y1="144.5" x2="221.25" y2="163.27"/>
        <line class="cls-3" x1="226.55" y1="144.5" x2="207.79" y2="163.27"/>
        <line class="cls-3" x1="213.09" y1="144.5" x2="194.33" y2="163.27"/>
        <line class="cls-3" x1="199.63" y1="144.5" x2="180.87" y2="163.27"/>
        <line class="cls-3" x1="186.18" y1="144.5" x2="167.41" y2="163.27"/>
      </g>
    </g>
    <rect class="cls-14" x="176.57" y="163.25" width="95.74" height="1.47"/>
    <rect class="cls-14" x="176.53" y="142.89" width="95.74" height="1.62"/>
    <rect class="cls-18" x="176.53" y="142.88" width="95.74" height="3.26" transform="translate(448.8 289.01) rotate(-180)"/>
    <rect class="cls-8" x="272.27" y="87.63" width="15.51" height="87.63" transform="translate(560.05 262.88) rotate(-180)"/>
    <rect class="cls-8" x="161.02" y="87.63" width="15.51" height="87.63" transform="translate(337.55 262.88) rotate(-180)"/>
    <rect class="cls-11" x="176.53" y="164.73" width="95.74" height="10.52" transform="translate(448.8 339.99) rotate(-180)"/>
    <rect class="cls-11" x="176.53" y="131.44" width="95.74" height="11.44"/>
  </g>
  <g>
    <rect class="cls-14" x="176.53" y="0" width="95.74" height="87.63" transform="translate(448.8 87.63) rotate(-180)"/>
    <rect class="cls-13" x="176.53" y="50.51" width="95.74" height="37.12" transform="translate(448.8 138.14) rotate(-180)"/>
    <g>
      <rect class="cls-12" x="213.58" y="2.88" width="4.53" height="42.42" transform="translate(431.69 48.19) rotate(-180)"/>
      <rect class="cls-10" x="175.53" y="37.71" width="38.05" height="6.98" transform="translate(389.11 82.4) rotate(-180)"/>
      <rect class="cls-10" x="175.53" y="30.73" width="38.05" height="6.98" transform="translate(389.11 68.44) rotate(-180)"/>
      <rect class="cls-10" x="175.53" y="23.76" width="38.05" height="6.98" transform="translate(389.11 54.49) rotate(-180)"/>
      <rect class="cls-10" x="175.53" y="16.78" width="38.05" height="6.98" transform="translate(389.11 40.53) rotate(-180)"/>
      <rect class="cls-10" x="175.53" y="9.8" width="38.05" height="6.98" transform="translate(389.11 26.58) rotate(-180)"/>
      <rect class="cls-10" x="175.53" y="2.83" width="38.05" height="6.98" transform="translate(389.11 12.63) rotate(-180)"/>
    </g>
    <rect class="cls-9" x="176.53" y="0" width="95.74" height="3.63"/>
    <rect class="cls-12" x="229.7" y="3.63" width="42.58" height="40.19" transform="translate(501.97 47.44) rotate(-180)"/>
    <polygon class="cls-18" points="272.27 3.63 235.98 3.63 229.7 3.63 229.7 11.72 229.7 43.81 246.41 43.53 239.02 11.72 272.27 11.72 272.27 3.63"/>
    <rect class="cls-18" x="218.11" y="3.63" width="11.59" height="3.81" transform="translate(447.8 11.07) rotate(-180)"/>
    <g class="cls-18">
      <polygon points="218.07 3.63 176.53 3.63 176.53 11.72 176.53 11.72 176.53 16.77 185.11 16.77 185.11 11.72 218.07 11.72 218.07 3.63"/>
      <rect x="176.53" y="16.83" width="6.68" height="6.92"/>
      <rect x="176.53" y="23.8" width="4.78" height="6.92"/>
      <rect x="176.53" y="30.77" width="2.88" height="6.92"/>
      <rect x="176.53" y="37.74" width=".98" height="6.92"/>
    </g>
    <g>
      <g>
        <line class="cls-3" x1="167.41" y1="56.88" x2="186.18" y2="75.65"/>
        <line class="cls-3" x1="180.87" y1="56.88" x2="199.64" y2="75.65"/>
        <line class="cls-3" x1="194.33" y1="56.88" x2="213.1" y2="75.65"/>
        <line class="cls-3" x1="207.79" y1="56.88" x2="226.55" y2="75.65"/>
        <line class="cls-3" x1="221.25" y1="56.88" x2="240.01" y2="75.65"/>
        <line class="cls-3" x1="234.71" y1="56.88" x2="253.47" y2="75.65"/>
        <line class="cls-3" x1="248.17" y1="56.88" x2="266.93" y2="75.65"/>
        <line class="cls-3" x1="261.62" y1="56.88" x2="280.39" y2="75.65"/>
      </g>
      <g>
        <line class="cls-3" x1="280.39" y1="56.88" x2="261.62" y2="75.65"/>
        <line class="cls-3" x1="266.93" y1="56.88" x2="248.17" y2="75.65"/>
        <line class="cls-3" x1="253.47" y1="56.88" x2="234.71" y2="75.65"/>
        <line class="cls-3" x1="240.01" y1="56.88" x2="221.25" y2="75.65"/>
        <line class="cls-3" x1="226.55" y1="56.88" x2="207.79" y2="75.65"/>
        <line class="cls-3" x1="213.1" y1="56.88" x2="194.33" y2="75.65"/>
        <line class="cls-3" x1="199.64" y1="56.88" x2="180.87" y2="75.65"/>
        <line class="cls-3" x1="186.18" y1="56.88" x2="167.41" y2="75.65"/>
      </g>
    </g>
    <rect class="cls-8" x="272.27" y="0" width="15.51" height="87.63"/>
    <rect class="cls-8" x="161.02" y="0" width="15.51" height="87.63"/>
    <rect class="cls-11" x="176.53" y="77.11" width="95.74" height="10.52"/>
    <rect class="cls-11" x="176.53" y="43.81" width="95.74" height="11.44" transform="translate(448.8 99.07) rotate(-180)"/>
    <rect class="cls-14" x="176.57" y="75.63" width="95.74" height="1.47"/>
    <rect class="cls-14" x="176.53" y="55.27" width="95.74" height="1.62"/>
    <rect class="cls-18" x="176.53" y="55.26" width="95.74" height="3.26" transform="translate(448.8 113.77) rotate(-180)"/>
  </g>
  <g>
    <rect class="cls-14" x="287.78" y="0" width="152.65" height="87.63"/>
    <rect class="cls-11" x="371.86" y="43.82" width="68.57" height="11.44"/>
    <rect class="cls-11" x="287.68" y="43.82" width="68.57" height="11.44"/>
    <rect class="cls-9" x="287.78" y="0" width="152.65" height="3.63"/>
    <rect class="cls-8" x="356.35" y="3.64" width="15.51" height="84"/>
    <rect class="cls-8" x="440.43" y="0" width="8.37" height="87.63"/>
    <g>
      <rect class="cls-17" x="387.26" y="4.68" width="37.81" height="38.16"/>
      <rect class="cls-17" x="372.92" y="17.67" width="14.34" height="25.18"/>
      <rect class="cls-17" x="372.92" y="4.68" width="14.34" height="12.99"/>
      <rect class="cls-17" x="425.07" y="17.67" width="14.34" height="25.18"/>
      <rect class="cls-17" x="425.07" y="4.68" width="14.34" height="12.99"/>
    </g>
    <rect class="cls-11" x="287.78" y="77.12" width="152.65" height="10.52"/>
    <g>
      <rect class="cls-17" x="288.82" y="17.67" width="28.68" height="25.18"/>
      <rect class="cls-17" x="288.82" y="4.68" width="14.34" height="12.99"/>
      <rect class="cls-17" x="303.16" y="4.68" width="14.34" height="12.99"/>
    </g>
    <rect class="cls-12" x="321.56" y="5.59" width="30.93" height="68.1"/>
    <rect class="cls-15" x="304.97" y="26.18" width="64.1" height="26.93" transform="translate(376.66 -297.38) rotate(90)"/>
    <rect class="cls-12" x="326.31" y="38.66" width="5.69" height="1.39" rx=".7" ry=".7"/>
    <path class="cls-6" d="m332.94,41.03h-3.09l-1.37-.98h-1.39s1.37,1.02,1.37,1.02c-.29.08-.51.34-.51.66,0,.38.31.7.7.7h4.3c.38,0,.7-.31.7-.7s-.31-.7-.7-.7Z"/>
    <polygon class="cls-18" points="382.84 42.85 382.84 9.74 440.53 9.74 440.53 3.64 290.25 3.64 290.25 0 287.88 0 287.88 40.05 287.88 42.85 287.88 55.27 287.78 55.27 287.78 58.52 287.88 58.52 287.88 73.34 287.88 76.61 287.88 77.12 287.88 87.64 290.58 87.64 290.58 77.12 297.21 77.12 297.21 58.52 321.66 58.52 321.66 55.27 297.21 55.27 294.31 55.27 294.31 42.85 298.32 42.85 298.32 9.74 356.45 9.74 356.45 6.5 371.96 6.5 371.96 9.74 371.96 40.05 371.96 42.85 371.96 55.27 371.96 58.52 371.96 76.61 371.96 77.12 381.29 77.12 381.29 58.52 440.53 58.52 440.53 55.27 381.29 55.27 378.39 55.27 378.39 42.85 382.84 42.85"/>
    <g>
      <g>
        <line class="cls-4" x1="288.55" y1="77.12" x2="288.55" y2="47.08"/>
        <line class="cls-1" x1="295.97" y1="72.85" x2="295.97" y2="47.08"/>
        <line class="cls-1" x1="303.4" y1="72.85" x2="303.4" y2="47.08"/>
        <line class="cls-4" x1="310.83" y1="77.12" x2="310.83" y2="47.08"/>
        <line class="cls-1" x1="318.25" y1="72.85" x2="318.25" y2="47.08"/>
        <line class="cls-1" x1="325.68" y1="72.85" x2="325.68" y2="47.08"/>
        <line class="cls-4" x1="333.11" y1="77.12" x2="333.11" y2="47.08"/>
        <line class="cls-1" x1="340.53" y1="72.85" x2="340.53" y2="47.08"/>
        <line class="cls-1" x1="347.96" y1="72.85" x2="347.96" y2="47.08"/>
        <line class="cls-4" x1="355.38" y1="77.12" x2="355.38" y2="47.08"/>
      </g>
      <line class="cls-2" x1="286.63" y1="47.08" x2="357.3" y2="47.08"/>
      <line class="cls-1" x1="288.55" y1="73.34" x2="355.38" y2="73.34"/>
    </g>
  </g>
  <g>
    <rect class="cls-14" x="8.37" y="0" width="152.75" height="87.63" transform="translate(169.5 87.63) rotate(-180)"/>
    <rect class="cls-11" x="8.37" y="43.81" width="68.57" height="11.44" transform="translate(85.32 99.07) rotate(-180)"/>
    <rect class="cls-11" x="92.55" y="43.81" width="68.57" height="11.44" transform="translate(253.67 99.07) rotate(-180)"/>
    <rect class="cls-9" x="8.37" y="0" width="152.65" height="3.63" transform="translate(169.4 3.63) rotate(-180)"/>
    <rect class="cls-8" x="76.94" y="3.63" width="15.51" height="84" transform="translate(169.4 91.26) rotate(-180)"/>
    <rect class="cls-8" x="0" y="0" width="8.37" height="87.63" transform="translate(8.37 87.63) rotate(-180)"/>
    <g>
      <rect class="cls-17" x="23.74" y="4.67" width="37.81" height="38.16" transform="translate(85.28 47.51) rotate(-180)"/>
      <rect class="cls-17" x="61.54" y="17.66" width="14.34" height="25.18" transform="translate(137.43 60.5) rotate(-180)"/>
      <rect class="cls-17" x="61.54" y="4.67" width="14.34" height="12.99" transform="translate(137.43 22.33) rotate(-180)"/>
      <rect class="cls-17" x="9.4" y="17.66" width="14.34" height="25.18" transform="translate(33.13 60.5) rotate(-180)"/>
      <rect class="cls-17" x="9.4" y="4.67" width="14.34" height="12.99" transform="translate(33.13 22.33) rotate(-180)"/>
    </g>
    <rect class="cls-11" x="8.37" y="77.11" width="152.65" height="10.52" transform="translate(169.4 164.73) rotate(-180)"/>
    <g>
      <rect class="cls-17" x="131.3" y="17.66" width="28.68" height="25.18" transform="translate(291.28 60.5) rotate(-180)"/>
      <rect class="cls-17" x="145.64" y="4.67" width="14.34" height="12.99" transform="translate(305.62 22.33) rotate(-180)"/>
      <rect class="cls-17" x="131.3" y="4.67" width="14.34" height="12.99" transform="translate(276.94 22.33) rotate(-180)"/>
    </g>
    <rect class="cls-12" x="96.32" y="5.58" width="30.93" height="68.1" transform="translate(223.56 79.26) rotate(-180)"/>
    <rect class="cls-15" x="79.73" y="26.17" width="64.1" height="26.93" transform="translate(151.41 -72.15) rotate(90)"/>
    <rect class="cls-12" x="116.8" y="38.65" width="5.69" height="1.39" rx=".7" ry=".7" transform="translate(239.28 78.69) rotate(-180)"/>
    <path class="cls-6" d="m115.86,41.02h3.09s1.37-.98,1.37-.98h1.39s-1.37,1.02-1.37,1.02c.29.08.51.34.51.66s-.31.7-.7.7h-4.3c-.38,0-.7-.31-.7-.7,0-.38.31-.7.7-.7Z"/>
    <polygon class="cls-18" points="161 9.73 161 3.63 10.72 3.63 10.72 0 8.35 0 8.35 40.04 8.35 42.84 8.35 55.26 8.25 55.26 8.25 58.51 8.35 58.51 8.35 73.33 8.35 76.6 8.35 77.11 8.35 87.63 11.05 87.63 11.05 77.11 17.68 77.11 17.68 58.51 76.72 58.51 76.72 55.26 17.68 55.26 14.78 55.26 14.78 42.84 18.79 42.84 18.79 9.73 76.92 9.73 76.92 6.49 92.43 6.49 92.43 9.73 92.43 40.04 92.43 42.84 92.43 55.26 92.43 58.51 92.43 76.6 92.43 77.11 99.78 77.11 99.86 9.73 161 9.73"/>
    <g>
      <g>
        <line class="cls-4" x1="160.26" y1="77.11" x2="160.26" y2="47.07"/>
        <line class="cls-1" x1="152.83" y1="72.84" x2="152.83" y2="47.07"/>
        <line class="cls-1" x1="145.4" y1="72.84" x2="145.4" y2="47.07"/>
        <line class="cls-4" x1="137.98" y1="77.11" x2="137.98" y2="47.07"/>
        <line class="cls-1" x1="130.55" y1="72.84" x2="130.55" y2="47.07"/>
        <line class="cls-1" x1="123.12" y1="72.84" x2="123.12" y2="47.07"/>
        <line class="cls-4" x1="115.7" y1="77.11" x2="115.7" y2="47.07"/>
        <line class="cls-1" x1="108.27" y1="72.84" x2="108.27" y2="47.07"/>
        <line class="cls-1" x1="100.84" y1="72.84" x2="100.84" y2="47.07"/>
        <line class="cls-4" x1="93.42" y1="77.11" x2="93.42" y2="47.07"/>
      </g>
      <line class="cls-2" x1="162.17" y1="47.07" x2="91.5" y2="47.07"/>
      <line class="cls-1" x1="160.26" y1="73.33" x2="93.42" y2="73.33"/>
    </g>
  </g>
  <rect class="cls-18" x="176.53" y="43.81" width="3.34" height="11.44"/>
  <rect class="cls-18" x="176.53" y="77.11" width="3.34" height="14.15"/>
  <rect class="cls-18" x="176.53" y="58.65" width="5" height="18.46"/>
  <rect class="cls-18" x="176.53" y="131.44" width="3.34" height="11.44"/>
  <rect class="cls-18" x="176.53" y="164.73" width="3.34" height="10.52"/>
  <rect class="cls-18" x="176.53" y="146.27" width="5" height="18.46"/>
  <g>
    <rect class="cls-18" x="40.97" y="41.23" width="35.98" height="22" rx="3.19" ry="3.19"/>
    <rect class="cls-8" x="39.08" y="36.74" width="35.98" height="22" rx="3.19" ry="3.19"/>
    <circle class="cls-16" cx="63.83" cy="47.74" r="8.19"/>
    <rect class="cls-7" x="41.54" y="38.93" width="11.3" height="7.53" rx="1.34" ry="1.34"/>
    <rect class="cls-7" x="41.54" y="48.17" width="11.3" height="3.35" rx="1.67" ry="1.67"/>
    <rect class="cls-7" x="41.54" y="53.21" width="11.3" height="3.35" rx="1.67" ry="1.67"/>
    <rect class="cls-5" x="54.64" y="38.56" width="18.37" height="18.37" transform="translate(111.57 -16.08) rotate(90)"/>
    <rect class="cls-5" x="46.03" y="47.17" width="18.37" height="1.15" transform="translate(102.96 -7.47) rotate(90)"/>
    <rect class="cls-5" x="47.18" y="47.17" width="18.37" height="1.15" transform="translate(104.11 -8.62) rotate(90)"/>
    <rect class="cls-5" x="48.33" y="47.17" width="18.37" height="1.15" transform="translate(105.26 -9.77) rotate(90)"/>
    <rect class="cls-5" x="49.48" y="47.17" width="18.37" height="1.15" transform="translate(106.41 -10.92) rotate(90)"/>
    <rect class="cls-5" x="50.62" y="47.17" width="18.37" height="1.15" transform="translate(107.55 -12.07) rotate(90)"/>
    <rect class="cls-5" x="51.77" y="47.17" width="18.37" height="1.15" transform="translate(108.7 -13.21) rotate(90)"/>
    <rect class="cls-5" x="52.92" y="47.17" width="18.37" height="1.15" transform="translate(109.85 -14.36) rotate(90)"/>
    <rect class="cls-5" x="54.07" y="47.17" width="18.37" height="1.15" transform="translate(111 -15.51) rotate(90)"/>
    <rect class="cls-5" x="55.22" y="47.17" width="18.37" height="1.15" transform="translate(112.15 -16.66) rotate(90)"/>
    <rect class="cls-5" x="56.37" y="47.17" width="18.37" height="1.15" transform="translate(113.3 -17.81) rotate(90)"/>
    <rect class="cls-5" x="57.51" y="47.17" width="18.37" height="1.15" transform="translate(114.44 -18.96) rotate(90)"/>
    <rect class="cls-5" x="58.66" y="47.17" width="18.37" height="1.15" transform="translate(115.59 -20.1) rotate(90)"/>
    <rect class="cls-5" x="59.81" y="47.17" width="18.37" height="1.15" transform="translate(116.74 -21.25) rotate(90)"/>
    <rect class="cls-5" x="60.96" y="47.17" width="18.37" height="1.15" transform="translate(117.89 -22.4) rotate(90)"/>
    <rect class="cls-5" x="62.11" y="47.17" width="18.37" height="1.15" transform="translate(119.04 -23.55) rotate(90)"/>
    <rect class="cls-5" x="63.25" y="47.17" width="18.37" height="1.15" transform="translate(120.19 -24.7) rotate(90)"/>
    <line class="cls-5" x1="54.64" y1="39.72" x2="73.02" y2="39.72"/>
    <line class="cls-5" x1="54.64" y1="55.72" x2="73.02" y2="55.72"/>
    <line class="cls-5" x1="54.64" y1="47.74" x2="73.02" y2="47.74"/>
  </g>
  <g>
    <rect class="cls-18" x="306.01" y="116.61" width="35.98" height="22" rx="3.19" ry="3.19"/>
    <rect class="cls-8" x="304.13" y="112.12" width="35.98" height="22" rx="3.19" ry="3.19"/>
    <circle class="cls-16" cx="328.87" cy="123.12" r="8.19"/>
    <rect class="cls-7" x="306.58" y="114.31" width="11.3" height="7.53" rx="1.34" ry="1.34"/>
    <rect class="cls-7" x="306.58" y="123.55" width="11.3" height="3.35" rx="1.67" ry="1.67"/>
    <rect class="cls-7" x="306.58" y="128.59" width="11.3" height="3.35" rx="1.67" ry="1.67"/>
    <rect class="cls-5" x="319.69" y="113.94" width="18.37" height="18.37" transform="translate(452 -205.75) rotate(90)"/>
    <rect class="cls-5" x="311.07" y="122.55" width="18.37" height="1.15" transform="translate(443.38 -197.14) rotate(90)"/>
    <rect class="cls-5" x="312.22" y="122.55" width="18.37" height="1.15" transform="translate(444.53 -198.29) rotate(90)"/>
    <rect class="cls-5" x="313.37" y="122.55" width="18.37" height="1.15" transform="translate(445.68 -199.43) rotate(90)"/>
    <rect class="cls-5" x="314.52" y="122.55" width="18.37" height="1.15" transform="translate(446.83 -200.58) rotate(90)"/>
    <rect class="cls-5" x="315.67" y="122.55" width="18.37" height="1.15" transform="translate(447.98 -201.73) rotate(90)"/>
    <rect class="cls-5" x="316.82" y="122.55" width="18.37" height="1.15" transform="translate(449.12 -202.88) rotate(90)"/>
    <rect class="cls-5" x="317.96" y="122.55" width="18.37" height="1.15" transform="translate(450.27 -204.03) rotate(90)"/>
    <rect class="cls-5" x="319.11" y="122.55" width="18.37" height="1.15" transform="translate(451.42 -205.17) rotate(90)"/>
    <rect class="cls-5" x="320.26" y="122.55" width="18.37" height="1.15" transform="translate(452.57 -206.32) rotate(90)"/>
    <rect class="cls-5" x="321.41" y="122.55" width="18.37" height="1.15" transform="translate(453.72 -207.47) rotate(90)"/>
    <rect class="cls-5" x="322.56" y="122.55" width="18.37" height="1.15" transform="translate(454.87 -208.62) rotate(90)"/>
    <rect class="cls-5" x="323.71" y="122.55" width="18.37" height="1.15" transform="translate(456.01 -209.77) rotate(90)"/>
    <rect class="cls-5" x="324.85" y="122.55" width="18.37" height="1.15" transform="translate(457.16 -210.92) rotate(90)"/>
    <rect class="cls-5" x="326" y="122.55" width="18.37" height="1.15" transform="translate(458.31 -212.06) rotate(90)"/>
    <rect class="cls-5" x="327.15" y="122.55" width="18.37" height="1.15" transform="translate(459.46 -213.21) rotate(90)"/>
    <rect class="cls-5" x="328.3" y="122.55" width="18.37" height="1.15" transform="translate(460.61 -214.36) rotate(90)"/>
    <line class="cls-5" x1="319.69" y1="115.09" x2="338.06" y2="115.09"/>
    <line class="cls-5" x1="319.69" y1="131.1" x2="338.06" y2="131.1"/>
    <line class="cls-5" x1="319.69" y1="123.12" x2="338.06" y2="123.12"/>
  </g>
</svg>