<?xml version="1.0" encoding="UTF-8"?>
<svg id="p1" xmlns="http://www.w3.org/2000/svg" viewBox="0 0 448.8 344.18">
  <defs>
    <style>
      .cls-1 {
        stroke-linecap: round;
        stroke-linejoin: round;
      }

      .cls-1, .cls-2 {
        fill: none;
        stroke: #000;
      }

      .cls-2 {
        stroke-miterlimit: 10;
      }
    </style>
  </defs>
  <g>
    <path class="cls-2" d="m-16.16,280.53c297.21,48.56,481.12-78.67,481.12-78.67"/>
    <path class="cls-2" d="m464.96,131.27C167.75,179.83-16.16,52.6-16.16,52.6"/>
  </g>
  <path class="cls-2" d="m-3.79,5.21C2.91,85.58,58.72,114.04,95.09,105.11"/>
  <path class="cls-1" d="m112.51,110.75c-.73-.24-.3-1.58-1.04-1.81s-1.17,1.11-1.9.87-.3-1.58-1.03-1.81-1.16,1.11-1.9.87-.3-1.58-1.04-1.81-1.16,1.11-1.9.87-.3-1.58-1.04-1.81-1.17,1.11-1.9.87-.3-1.58-1.04-1.81-1.17,1.11-1.9.87-.31-1.58-1.04-1.82-1.17,1.11-1.91.87"/>
  <line class="cls-1" x1="112.72" y1="109.7" x2="112.72" y2="122.97"/>
</svg>