<?xml version="1.0" encoding="UTF-8"?>
<svg id="p3" xmlns="http://www.w3.org/2000/svg" viewBox="0 0 448.8 344.18">
  <defs>
    <style>
      .cls-1, .cls-2, .cls-3 {
        fill: none;
        stroke: #000;
      }

      .cls-1, .cls-3 {
        stroke-linecap: round;
        stroke-linejoin: round;
      }

      .cls-2 {
        stroke-miterlimit: 10;
        stroke-width: 3px;
      }

      .cls-3 {
        stroke-width: 2px;
      }
    </style>
  </defs>
  <g>
    <path class="cls-2" d="m-18.67,123.63c42.53,41.21,247.76,158.35,486.14,119.56"/>
    <path class="cls-2" d="m456.87,294.55c-212.44,61.53-423.63-12.17-475.53-77.18"/>
    <path class="cls-2" d="m450.73,135.69C211.04,156.02-18.67,55.82-18.67,55.82"/>
  </g>
  <path class="cls-3" d="m383.49,140.29c-2.09-.05-2-3.81-4.08-3.86s-2.18,3.71-4.26,3.66-2-3.81-4.09-3.86-2.18,3.71-4.26,3.66-2-3.81-4.09-3.86-2.18,3.71-4.26,3.66-2-3.81-4.09-3.86-2.18,3.71-4.27,3.66-2-3.81-4.09-3.86"/>
  <path class="cls-3" d="m456.87,86.14c-13.59,34.23-43.38,53.76-73.34,54.14"/>
  <line class="cls-3" x1="345.94" y1="135.9" x2="345.94" y2="147.53"/>
  <path class="cls-1" d="m87.19,198.88v-12c0-.5.58-.76.96-.43l1.21,1.64v4.94"/>
</svg>