<?xml version="1.0" encoding="UTF-8"?>
<svg id="p7" xmlns="http://www.w3.org/2000/svg" viewBox="0 0 448.8 344.18">
  <defs>
    <style>
      .cls-1 {
        stroke-miterlimit: 10;
        stroke-width: 7px;
      }

      .cls-1, .cls-2 {
        fill: none;
        stroke: #000;
      }

      .cls-2 {
        stroke-linecap: round;
        stroke-linejoin: round;
        stroke-width: 3px;
      }
    </style>
  </defs>
  <g>
    <path class="cls-1" d="m-8.48,328.49c98.23.04,274.05-34.23,465.77-225.72"/>
    <path class="cls-1" d="m-8.48,176.36c141.77,35.52,350.23-.76,465.77-160.66"/>
  </g>
  <path class="cls-2" d="m-8.48,15.69c25.62,137.3,95.85,258.53,180.41,163.1"/>
  <path class="cls-2" d="m171.93,178.79c3.82-.85,5.67,7.5,9.48,6.65s1.96-9.19,5.78-10.04,5.67,7.5,9.48,6.65,1.96-9.19,5.78-10.04,5.67,7.5,9.49,6.65,1.96-9.19,5.78-10.04,5.67,7.5,9.49,6.65,1.97-9.19,5.78-10.04"/>
  <line class="cls-2" x1="233.32" y1="192.74" x2="233.45" y2="165.49"/>
  <path class="cls-2" d="m357.7,238.88v-52.47c0-2.67,2.17-4.84,4.84-4.84h0c2.67,0,4.84,2.17,4.84,4.84v27.53"/>
</svg>